<?xml version="1.0" encoding="UTF-8" standalone="no"?>
<!DOCTYPE svg PUBLIC "-//W3C//DTD SVG 1.1//EN"
 "http://www.w3.org/Graphics/SVG/1.1/DTD/svg11.dtd">
<!-- Generated by graphviz version 2.43.0 (0)
 -->
<!-- Title: vehicle_control_unit/lib/BMS/BMS.cpp Pages: 1 -->
<svg width="441pt" height="313pt"
 viewBox="0.00 0.00 441.10 313.00" xmlns="http://www.w3.org/2000/svg" xmlns:xlink="http://www.w3.org/1999/xlink">
<g id="graph0" class="graph" transform="scale(1 1) rotate(0) translate(4 309)">
<title>vehicle_control_unit/lib/BMS/BMS.cpp</title>
<!-- Node1 -->
<g id="node1" class="node">
<title>Node1</title>
<g id="a_node1"><a xlink:title="Implementation of the BMS class for managing the Accumulator (Kclear BMS) via CAN bus.">
<polygon fill="#999999" stroke="#666666" points="274.5,-305 159.5,-305 159.5,-275 274.5,-275 274.5,-305"/>
<text text-anchor="start" x="167.5" y="-293" font-family="Helvetica,sans-Serif" font-size="10.00">vehicle_control_unit</text>
<text text-anchor="middle" x="217" y="-282" font-family="Helvetica,sans-Serif" font-size="10.00">/lib/BMS/BMS.cpp</text>
</a>
</g>
</g>
<!-- Node2 -->
<g id="node2" class="node">
<title>Node2</title>
<g id="a_node2"><a xlink:href="BMS_8hpp.html" target="_top" xlink:title="Declaration of the BMS class for managing the Accumulator (Kclear BMS) via CAN bus.">
<polygon fill="white" stroke="#666666" points="246.5,-239 187.5,-239 187.5,-220 246.5,-220 246.5,-239"/>
<text text-anchor="middle" x="217" y="-227" font-family="Helvetica,sans-Serif" font-size="10.00">BMS.hpp</text>
</a>
</g>
</g>
<!-- Node1&#45;&gt;Node2 -->
<g id="edge1" class="edge">
<title>Node1&#45;&gt;Node2</title>
<path fill="none" stroke="#63b8ff" d="M217,-274.84C217,-267.21 217,-257.7 217,-249.45"/>
<polygon fill="#63b8ff" stroke="#63b8ff" points="220.5,-249.27 217,-239.27 213.5,-249.27 220.5,-249.27"/>
</g>
<!-- Node4 -->
<g id="node4" class="node">
<title>Node4</title>
<g id="a_node4"><a xlink:href="Enums_8hpp.html" target="_top" xlink:title="Enumeration definitions for the VCU.">
<polygon fill="white" stroke="#666666" points="177.5,-74 106.5,-74 106.5,-55 177.5,-55 177.5,-74"/>
<text text-anchor="middle" x="142" y="-62" font-family="Helvetica,sans-Serif" font-size="10.00">Enums.hpp</text>
</a>
</g>
</g>
<!-- Node1&#45;&gt;Node4 -->
<g id="edge19" class="edge">
<title>Node1&#45;&gt;Node4</title>
<path fill="none" stroke="#63b8ff" d="M203.22,-274.82C194.77,-265.38 184.38,-252.3 178,-239 152.89,-186.65 145.24,-117.18 142.95,-84.29"/>
<polygon fill="#63b8ff" stroke="#63b8ff" points="146.44,-84.04 142.34,-74.27 139.45,-84.47 146.44,-84.04"/>
</g>
<!-- Node7 -->
<g id="node7" class="node">
<title>Node7</title>
<g id="a_node7"><a xlink:title=" ">
<polygon fill="#e0e0e0" stroke="#999999" points="359.5,-74 288.5,-74 288.5,-55 359.5,-55 359.5,-74"/>
<text text-anchor="middle" x="324" y="-62" font-family="Helvetica,sans-Serif" font-size="10.00">mcp2515.h</text>
</a>
</g>
</g>
<!-- Node1&#45;&gt;Node7 -->
<g id="edge21" class="edge">
<title>Node1&#45;&gt;Node7</title>
<path fill="none" stroke="#63b8ff" d="M252.58,-274.88C303.17,-252.6 393.74,-203.94 430,-129 444.16,-99.74 404.41,-82.87 369.62,-73.97"/>
<polygon fill="#63b8ff" stroke="#63b8ff" points="370.05,-70.48 359.51,-71.57 368.43,-77.29 370.05,-70.48"/>
</g>
<!-- Node9 -->
<g id="node9" class="node">
<title>Node9</title>
<g id="a_node9"><a xlink:href="CarState_8hpp.html" target="_top" xlink:title="Definition of the CarState structure representing the state of the car.">
<polygon fill="white" stroke="#666666" points="80,-129 0,-129 0,-110 80,-110 80,-129"/>
<text text-anchor="middle" x="40" y="-117" font-family="Helvetica,sans-Serif" font-size="10.00">CarState.hpp</text>
</a>
</g>
</g>
<!-- Node1&#45;&gt;Node9 -->
<g id="edge20" class="edge">
<title>Node1&#45;&gt;Node9</title>
<path fill="none" stroke="#63b8ff" d="M159.22,-275.47C136.66,-267.83 111.96,-256.23 94,-239 65.01,-211.19 50.25,-164.89 43.93,-139.17"/>
<polygon fill="#63b8ff" stroke="#63b8ff" points="47.3,-138.2 41.66,-129.23 40.47,-139.76 47.3,-138.2"/>
</g>
<!-- Node10 -->
<g id="node10" class="node">
<title>Node10</title>
<g id="a_node10"><a xlink:href="Debug_8hpp.html" target="_top" xlink:title="Debugging macros and functions for serial and CAN output.">
<polygon fill="white" stroke="#666666" points="421.5,-129 352.5,-129 352.5,-110 421.5,-110 421.5,-129"/>
<text text-anchor="middle" x="387" y="-117" font-family="Helvetica,sans-Serif" font-size="10.00">Debug.hpp</text>
</a>
</g>
</g>
<!-- Node1&#45;&gt;Node10 -->
<g id="edge16" class="edge">
<title>Node1&#45;&gt;Node10</title>
<path fill="none" stroke="#63b8ff" d="M231.2,-274.92C262.54,-243.86 337.47,-169.6 370.67,-136.68"/>
<polygon fill="#63b8ff" stroke="#63b8ff" points="373.53,-138.78 378.17,-129.25 368.6,-133.81 373.53,-138.78"/>
</g>
<!-- Node3 -->
<g id="node3" class="node">
<title>Node3</title>
<g id="a_node3"><a xlink:href="Scheduler_8hpp.html" target="_top" xlink:title="Declaration of the Scheduler class template, for scheduling tasks on multiple MCP2515 instances.">
<polygon fill="white" stroke="#666666" points="259.5,-184 174.5,-184 174.5,-165 259.5,-165 259.5,-184"/>
<text text-anchor="middle" x="217" y="-172" font-family="Helvetica,sans-Serif" font-size="10.00">Scheduler.hpp</text>
</a>
</g>
</g>
<!-- Node2&#45;&gt;Node3 -->
<g id="edge2" class="edge">
<title>Node2&#45;&gt;Node3</title>
<path fill="none" stroke="#63b8ff" d="M217,-219.75C217,-212.8 217,-202.85 217,-194.13"/>
<polygon fill="#63b8ff" stroke="#63b8ff" points="220.5,-194.09 217,-184.09 213.5,-194.09 220.5,-194.09"/>
</g>
<!-- Node2&#45;&gt;Node7 -->
<g id="edge15" class="edge">
<title>Node2&#45;&gt;Node7</title>
<path fill="none" stroke="#63b8ff" d="M229.64,-219.81C240.85,-211.61 257.09,-198.43 268,-184 292.04,-152.21 309.4,-108.44 317.97,-83.97"/>
<polygon fill="#63b8ff" stroke="#63b8ff" points="321.38,-84.79 321.28,-74.2 314.75,-82.55 321.38,-84.79"/>
</g>
<!-- Node2&#45;&gt;Node9 -->
<g id="edge11" class="edge">
<title>Node2&#45;&gt;Node9</title>
<path fill="none" stroke="#63b8ff" d="M202.81,-219.84C172.26,-201.2 100.01,-157.11 62.89,-134.46"/>
<polygon fill="#63b8ff" stroke="#63b8ff" points="64.61,-131.42 54.25,-129.2 60.97,-137.39 64.61,-131.42"/>
</g>
<!-- Node3&#45;&gt;Node4 -->
<g id="edge3" class="edge">
<title>Node3&#45;&gt;Node4</title>
<path fill="none" stroke="#63b8ff" d="M203.31,-164.79C191.68,-156.76 175.28,-143.85 165,-129 155.62,-115.44 149.6,-97.62 146.09,-84.31"/>
<polygon fill="#63b8ff" stroke="#63b8ff" points="149.44,-83.28 143.7,-74.38 142.64,-84.92 149.44,-83.28"/>
</g>
<!-- Node3&#45;&gt;Node7 -->
<g id="edge6" class="edge">
<title>Node3&#45;&gt;Node7</title>
<path fill="none" stroke="#63b8ff" d="M227.01,-164.9C237.09,-156.12 252.98,-141.98 266,-129 281.44,-113.61 298.13,-95.11 309.63,-82.07"/>
<polygon fill="#63b8ff" stroke="#63b8ff" points="312.42,-84.2 316.37,-74.37 307.15,-79.59 312.42,-84.2"/>
</g>
<!-- Node8 -->
<g id="node8" class="node">
<title>Node8</title>
<g id="a_node8"><a xlink:href="Scheduler_8tpp.html" target="_top" xlink:title="Implementation of the Scheduler class template.">
<polygon fill="white" stroke="#666666" points="257.5,-129 174.5,-129 174.5,-110 257.5,-110 257.5,-129"/>
<text text-anchor="middle" x="216" y="-117" font-family="Helvetica,sans-Serif" font-size="10.00">Scheduler.tpp</text>
</a>
</g>
</g>
<!-- Node3&#45;&gt;Node8 -->
<g id="edge7" class="edge">
<title>Node3&#45;&gt;Node8</title>
<path fill="none" stroke="#63b8ff" d="M211.67,-164.75C210.04,-157.8 209.42,-147.85 209.87,-139.13"/>
<polygon fill="#63b8ff" stroke="#63b8ff" points="213.36,-139.42 211.03,-129.09 206.41,-138.62 213.36,-139.42"/>
</g>
<!-- Node5 -->
<g id="node5" class="node">
<title>Node5</title>
<g id="a_node5"><a xlink:title=" ">
<polygon fill="#e0e0e0" stroke="#999999" points="159.5,-19 106.5,-19 106.5,0 159.5,0 159.5,-19"/>
<text text-anchor="middle" x="133" y="-7" font-family="Helvetica,sans-Serif" font-size="10.00">stdint.h</text>
</a>
</g>
</g>
<!-- Node4&#45;&gt;Node5 -->
<g id="edge4" class="edge">
<title>Node4&#45;&gt;Node5</title>
<path fill="none" stroke="#63b8ff" d="M140.51,-54.75C139.33,-47.8 137.64,-37.85 136.16,-29.13"/>
<polygon fill="#63b8ff" stroke="#63b8ff" points="139.58,-28.36 134.46,-19.09 132.68,-29.53 139.58,-28.36"/>
</g>
<!-- Node6 -->
<g id="node6" class="node">
<title>Node6</title>
<g id="a_node6"><a xlink:title=" ">
<polygon fill="#e0e0e0" stroke="#999999" points="79.5,-19 36.5,-19 36.5,0 79.5,0 79.5,-19"/>
<text text-anchor="middle" x="58" y="-7" font-family="Helvetica,sans-Serif" font-size="10.00">can.h</text>
</a>
</g>
</g>
<!-- Node4&#45;&gt;Node6 -->
<g id="edge5" class="edge">
<title>Node4&#45;&gt;Node6</title>
<path fill="none" stroke="#63b8ff" d="M128.5,-54.98C115.6,-46.84 95.9,-34.41 80.6,-24.76"/>
<polygon fill="#63b8ff" stroke="#63b8ff" points="82.07,-21.55 71.74,-19.17 78.33,-27.47 82.07,-21.55"/>
</g>
<!-- Node8&#45;&gt;Node3 -->
<g id="edge10" class="edge">
<title>Node8&#45;&gt;Node3</title>
<path fill="none" stroke="#63b8ff" d="M221.29,-129.09C222.93,-135.99 223.57,-145.93 223.14,-154.66"/>
<polygon fill="#63b8ff" stroke="#63b8ff" points="219.64,-154.42 222,-164.75 226.6,-155.2 219.64,-154.42"/>
</g>
<!-- Node8&#45;&gt;Node4 -->
<g id="edge8" class="edge">
<title>Node8&#45;&gt;Node4</title>
<path fill="none" stroke="#63b8ff" d="M204.11,-109.98C192.85,-101.92 175.71,-89.65 162.29,-80.03"/>
<polygon fill="#63b8ff" stroke="#63b8ff" points="164.27,-77.15 154.11,-74.17 160.2,-82.84 164.27,-77.15"/>
</g>
<!-- Node8&#45;&gt;Node7 -->
<g id="edge9" class="edge">
<title>Node8&#45;&gt;Node7</title>
<path fill="none" stroke="#63b8ff" d="M233.35,-109.98C250.57,-101.54 277.2,-88.47 297.15,-78.68"/>
<polygon fill="#63b8ff" stroke="#63b8ff" points="298.9,-81.72 306.33,-74.17 295.81,-75.43 298.9,-81.72"/>
</g>
<!-- Node9&#45;&gt;Node4 -->
<g id="edge12" class="edge">
<title>Node9&#45;&gt;Node4</title>
<path fill="none" stroke="#63b8ff" d="M56.39,-109.98C72.57,-101.57 97.57,-88.59 116.38,-78.81"/>
<polygon fill="#63b8ff" stroke="#63b8ff" points="118.05,-81.89 125.31,-74.17 114.83,-75.68 118.05,-81.89"/>
</g>
<!-- Node9&#45;&gt;Node5 -->
<g id="edge14" class="edge">
<title>Node9&#45;&gt;Node5</title>
<path fill="none" stroke="#63b8ff" d="M47.61,-109.66C63.22,-91.54 99.06,-49.91 118.99,-26.77"/>
<polygon fill="#63b8ff" stroke="#63b8ff" points="121.67,-29.02 125.54,-19.16 116.37,-24.45 121.67,-29.02"/>
</g>
<!-- Node9&#45;&gt;Node6 -->
<g id="edge13" class="edge">
<title>Node9&#45;&gt;Node6</title>
<path fill="none" stroke="#63b8ff" d="M41.47,-109.66C44.39,-92.17 50.95,-52.8 54.87,-29.27"/>
<polygon fill="#63b8ff" stroke="#63b8ff" points="58.37,-29.6 56.56,-19.16 51.46,-28.45 58.37,-29.6"/>
</g>
<!-- Node10&#45;&gt;Node4 -->
<g id="edge17" class="edge">
<title>Node10&#45;&gt;Node4</title>
<path fill="none" stroke="#63b8ff" d="M352.42,-111.02C309.28,-101.69 235.42,-85.71 187.67,-75.38"/>
<polygon fill="#63b8ff" stroke="#63b8ff" points="188.11,-71.89 177.6,-73.2 186.63,-78.74 188.11,-71.89"/>
</g>
<!-- Node10&#45;&gt;Node7 -->
<g id="edge18" class="edge">
<title>Node10&#45;&gt;Node7</title>
<path fill="none" stroke="#63b8ff" d="M376.88,-109.98C367.56,-102.15 353.53,-90.34 342.26,-80.86"/>
<polygon fill="#63b8ff" stroke="#63b8ff" points="344.21,-77.93 334.31,-74.17 339.71,-83.29 344.21,-77.93"/>
</g>
</g>
</svg>
