<?xml version="1.0" encoding="UTF-8" standalone="no"?>
<!DOCTYPE svg PUBLIC "-//W3C//DTD SVG 1.1//EN"
 "http://www.w3.org/Graphics/SVG/1.1/DTD/svg11.dtd">
<!-- Generated by graphviz version 2.43.0 (0)
 -->
<!-- Title: vehicle_control_unit/lib/BMS/BMS.hpp Pages: 1 -->
<svg width="270pt" height="258pt"
 viewBox="0.00 0.00 270.00 258.00" xmlns="http://www.w3.org/2000/svg" xmlns:xlink="http://www.w3.org/1999/xlink">
<g id="graph0" class="graph" transform="scale(1 1) rotate(0) translate(4 254)">
<title>vehicle_control_unit/lib/BMS/BMS.hpp</title>
<!-- Node1 -->
<g id="node1" class="node">
<title>Node1</title>
<g id="a_node1"><a xlink:title="Declaration of the BMS class for managing the Accumulator (Kclear BMS) via CAN bus.">
<polygon fill="#999999" stroke="#666666" points="220,-250 105,-250 105,-220 220,-220 220,-250"/>
<text text-anchor="start" x="113" y="-238" font-family="Helvetica,sans-Serif" font-size="10.00">vehicle_control_unit</text>
<text text-anchor="middle" x="162.5" y="-227" font-family="Helvetica,sans-Serif" font-size="10.00">/lib/BMS/BMS.hpp</text>
</a>
</g>
</g>
<!-- Node2 -->
<g id="node2" class="node">
<title>Node2</title>
<g id="a_node2"><a xlink:href="Scheduler_8hpp.html" target="_top" xlink:title="Declaration of the Scheduler class template, for scheduling tasks on multiple MCP2515 instances.">
<polygon fill="white" stroke="#666666" points="117,-184 32,-184 32,-165 117,-165 117,-184"/>
<text text-anchor="middle" x="74.5" y="-172" font-family="Helvetica,sans-Serif" font-size="10.00">Scheduler.hpp</text>
</a>
</g>
</g>
<!-- Node1&#45;&gt;Node2 -->
<g id="edge1" class="edge">
<title>Node1&#45;&gt;Node2</title>
<path fill="none" stroke="#63b8ff" d="M141.2,-219.84C127.43,-210.68 109.57,-198.82 95.8,-189.66"/>
<polygon fill="#63b8ff" stroke="#63b8ff" points="97.69,-186.72 87.43,-184.09 93.82,-192.55 97.69,-186.72"/>
</g>
<!-- Node7 -->
<g id="node7" class="node">
<title>Node7</title>
<g id="a_node7"><a xlink:href="CarState_8hpp.html" target="_top" xlink:title="Definition of the CarState structure representing the state of the car.">
<polygon fill="white" stroke="#666666" points="219.5,-129 139.5,-129 139.5,-110 219.5,-110 219.5,-129"/>
<text text-anchor="middle" x="179.5" y="-117" font-family="Helvetica,sans-Serif" font-size="10.00">CarState.hpp</text>
</a>
</g>
</g>
<!-- Node1&#45;&gt;Node7 -->
<g id="edge8" class="edge">
<title>Node1&#45;&gt;Node7</title>
<path fill="none" stroke="#63b8ff" d="M164.65,-219.63C167.71,-199.21 173.31,-161.81 176.69,-139.24"/>
<polygon fill="#63b8ff" stroke="#63b8ff" points="180.17,-139.64 178.19,-129.23 173.25,-138.6 180.17,-139.64"/>
</g>
<!-- Node8 -->
<g id="node8" class="node">
<title>Node8</title>
<g id="a_node8"><a xlink:title=" ">
<polygon fill="#e0e0e0" stroke="#999999" points="262,-184 191,-184 191,-165 262,-165 262,-184"/>
<text text-anchor="middle" x="226.5" y="-172" font-family="Helvetica,sans-Serif" font-size="10.00">mcp2515.h</text>
</a>
</g>
</g>
<!-- Node1&#45;&gt;Node8 -->
<g id="edge12" class="edge">
<title>Node1&#45;&gt;Node8</title>
<path fill="none" stroke="#63b8ff" d="M177.99,-219.84C187.47,-211.17 199.61,-200.08 209.38,-191.15"/>
<polygon fill="#63b8ff" stroke="#63b8ff" points="211.89,-193.6 216.91,-184.27 207.17,-188.43 211.89,-193.6"/>
</g>
<!-- Node3 -->
<g id="node3" class="node">
<title>Node3</title>
<g id="a_node3"><a xlink:href="Enums_8hpp.html" target="_top" xlink:title="Enumeration definitions for the VCU.">
<polygon fill="white" stroke="#666666" points="147,-74 76,-74 76,-55 147,-55 147,-74"/>
<text text-anchor="middle" x="111.5" y="-62" font-family="Helvetica,sans-Serif" font-size="10.00">Enums.hpp</text>
</a>
</g>
</g>
<!-- Node2&#45;&gt;Node3 -->
<g id="edge2" class="edge">
<title>Node2&#45;&gt;Node3</title>
<path fill="none" stroke="#63b8ff" d="M78.04,-164.69C81.6,-155.76 87.15,-141.5 91.5,-129 96.73,-113.97 102.12,-96.74 105.98,-84.03"/>
<polygon fill="#63b8ff" stroke="#63b8ff" points="109.42,-84.77 108.95,-74.18 102.71,-82.75 109.42,-84.77"/>
</g>
<!-- Node6 -->
<g id="node6" class="node">
<title>Node6</title>
<g id="a_node6"><a xlink:href="Scheduler_8tpp.html" target="_top" xlink:title="Implementation of the Scheduler class template.">
<polygon fill="white" stroke="#666666" points="83,-129 0,-129 0,-110 83,-110 83,-129"/>
<text text-anchor="middle" x="41.5" y="-117" font-family="Helvetica,sans-Serif" font-size="10.00">Scheduler.tpp</text>
</a>
</g>
</g>
<!-- Node2&#45;&gt;Node6 -->
<g id="edge5" class="edge">
<title>Node2&#45;&gt;Node6</title>
<path fill="none" stroke="#63b8ff" d="M63.88,-164.75C57.87,-157.57 50.99,-147.18 46.15,-138.27"/>
<polygon fill="#63b8ff" stroke="#63b8ff" points="49.22,-136.57 41.72,-129.09 42.91,-139.62 49.22,-136.57"/>
</g>
<!-- Node4 -->
<g id="node4" class="node">
<title>Node4</title>
<g id="a_node4"><a xlink:title=" ">
<polygon fill="#e0e0e0" stroke="#999999" points="231,-19 178,-19 178,0 231,0 231,-19"/>
<text text-anchor="middle" x="204.5" y="-7" font-family="Helvetica,sans-Serif" font-size="10.00">stdint.h</text>
</a>
</g>
</g>
<!-- Node3&#45;&gt;Node4 -->
<g id="edge3" class="edge">
<title>Node3&#45;&gt;Node4</title>
<path fill="none" stroke="#63b8ff" d="M126.44,-54.98C141,-46.69 163.37,-33.94 180.43,-24.22"/>
<polygon fill="#63b8ff" stroke="#63b8ff" points="182.33,-27.16 189.29,-19.17 178.86,-21.08 182.33,-27.16"/>
</g>
<!-- Node5 -->
<g id="node5" class="node">
<title>Node5</title>
<g id="a_node5"><a xlink:title=" ">
<polygon fill="#e0e0e0" stroke="#999999" points="151,-19 108,-19 108,0 151,0 151,-19"/>
<text text-anchor="middle" x="129.5" y="-7" font-family="Helvetica,sans-Serif" font-size="10.00">can.h</text>
</a>
</g>
</g>
<!-- Node3&#45;&gt;Node5 -->
<g id="edge4" class="edge">
<title>Node3&#45;&gt;Node5</title>
<path fill="none" stroke="#63b8ff" d="M114.47,-54.75C116.86,-47.72 120.29,-37.62 123.27,-28.84"/>
<polygon fill="#63b8ff" stroke="#63b8ff" points="126.68,-29.68 126.58,-19.09 120.05,-27.43 126.68,-29.68"/>
</g>
<!-- Node6&#45;&gt;Node2 -->
<g id="edge7" class="edge">
<title>Node6&#45;&gt;Node2</title>
<path fill="none" stroke="#63b8ff" d="M51.98,-129.09C57.98,-136.22 64.87,-146.6 69.74,-155.53"/>
<polygon fill="#63b8ff" stroke="#63b8ff" points="66.7,-157.28 74.22,-164.75 73,-154.22 66.7,-157.28"/>
</g>
<!-- Node6&#45;&gt;Node3 -->
<g id="edge6" class="edge">
<title>Node6&#45;&gt;Node3</title>
<path fill="none" stroke="#63b8ff" d="M52.75,-109.98C63.3,-102 79.3,-89.88 91.94,-80.31"/>
<polygon fill="#63b8ff" stroke="#63b8ff" points="94.19,-83 100.05,-74.17 89.96,-77.42 94.19,-83"/>
</g>
<!-- Node7&#45;&gt;Node3 -->
<g id="edge9" class="edge">
<title>Node7&#45;&gt;Node3</title>
<path fill="none" stroke="#63b8ff" d="M168.57,-109.98C158.42,-102.07 143.08,-90.11 130.85,-80.58"/>
<polygon fill="#63b8ff" stroke="#63b8ff" points="132.66,-77.56 122.62,-74.17 128.36,-83.08 132.66,-77.56"/>
</g>
<!-- Node7&#45;&gt;Node4 -->
<g id="edge11" class="edge">
<title>Node7&#45;&gt;Node4</title>
<path fill="none" stroke="#63b8ff" d="M181.55,-109.66C185.61,-92.09 194.79,-52.45 200.23,-28.95"/>
<polygon fill="#63b8ff" stroke="#63b8ff" points="203.65,-29.69 202.5,-19.16 196.83,-28.11 203.65,-29.69"/>
</g>
<!-- Node7&#45;&gt;Node5 -->
<g id="edge10" class="edge">
<title>Node7&#45;&gt;Node5</title>
<path fill="none" stroke="#63b8ff" d="M176.91,-109.65C173.11,-97.17 165.51,-73.83 156.5,-55 152.01,-45.63 146.11,-35.69 140.97,-27.6"/>
<polygon fill="#63b8ff" stroke="#63b8ff" points="143.8,-25.54 135.41,-19.08 137.94,-29.37 143.8,-25.54"/>
</g>
</g>
</svg>
