<?xml version="1.0" encoding="UTF-8" standalone="no"?>
<!DOCTYPE svg PUBLIC "-//W3C//DTD SVG 1.1//EN"
 "http://www.w3.org/Graphics/SVG/1.1/DTD/svg11.dtd">
<!-- Generated by graphviz version 2.43.0 (0)
 -->
<!-- Title: vehicle_control_unit/lib/BMS/BMS.cpp Pages: 1 -->
<svg width="362pt" height="313pt"
 viewBox="0.00 0.00 361.75 313.00" xmlns="http://www.w3.org/2000/svg" xmlns:xlink="http://www.w3.org/1999/xlink">
<g id="graph0" class="graph" transform="scale(1 1) rotate(0) translate(4 309)">
<title>vehicle_control_unit/lib/BMS/BMS.cpp</title>
<!-- Node1 -->
<g id="node1" class="node">
<title>Node1</title>
<g id="a_node1"><a xlink:title="Implementation of the BMS class for managing the Accumulator (Kclear BMS) via CAN bus.">
<polygon fill="#999999" stroke="#666666" points="253.5,-305 138.5,-305 138.5,-275 253.5,-275 253.5,-305"/>
<text text-anchor="start" x="146.5" y="-293" font-family="Helvetica,sans-Serif" font-size="10.00">vehicle_control_unit</text>
<text text-anchor="middle" x="196" y="-282" font-family="Helvetica,sans-Serif" font-size="10.00">/lib/BMS/BMS.cpp</text>
</a>
</g>
</g>
<!-- Node2 -->
<g id="node2" class="node">
<title>Node2</title>
<g id="a_node2"><a xlink:href="BMS_8hpp.html" target="_top" xlink:title="Declaration of the BMS class for managing the Accumulator (Kclear BMS) via CAN bus.">
<polygon fill="white" stroke="#666666" points="225.5,-239 166.5,-239 166.5,-220 225.5,-220 225.5,-239"/>
<text text-anchor="middle" x="196" y="-227" font-family="Helvetica,sans-Serif" font-size="10.00">BMS.hpp</text>
</a>
</g>
</g>
<!-- Node1&#45;&gt;Node2 -->
<g id="edge1" class="edge">
<title>Node1&#45;&gt;Node2</title>
<path fill="none" stroke="#63b8ff" d="M196,-274.84C196,-267.21 196,-257.7 196,-249.45"/>
<polygon fill="#63b8ff" stroke="#63b8ff" points="199.5,-249.27 196,-239.27 192.5,-249.27 199.5,-249.27"/>
</g>
<!-- Node4 -->
<g id="node4" class="node">
<title>Node4</title>
<g id="a_node4"><a xlink:href="Enums_8hpp.html" target="_top" xlink:title="Enumeration definitions for the VCU.">
<polygon fill="white" stroke="#666666" points="177.5,-74 106.5,-74 106.5,-55 177.5,-55 177.5,-74"/>
<text text-anchor="middle" x="142" y="-62" font-family="Helvetica,sans-Serif" font-size="10.00">Enums.hpp</text>
</a>
</g>
</g>
<!-- Node1&#45;&gt;Node4 -->
<g id="edge17" class="edge">
<title>Node1&#45;&gt;Node4</title>
<path fill="none" stroke="#63b8ff" d="M182.37,-274.74C173.98,-265.27 163.61,-252.19 157,-239 134.31,-193.69 133.73,-179.23 127,-129 125.88,-120.63 125.63,-118.33 127,-110 128.47,-101.05 131.49,-91.47 134.44,-83.51"/>
<polygon fill="#63b8ff" stroke="#63b8ff" points="137.72,-84.74 138.14,-74.15 131.21,-82.16 137.72,-84.74"/>
</g>
<!-- Node8 -->
<g id="node8" class="node">
<title>Node8</title>
<g id="a_node8"><a xlink:href="CarState_8hpp.html" target="_top" xlink:title="Definition of the CarState structure representing the state of the car.">
<polygon fill="white" stroke="#666666" points="80,-129 0,-129 0,-110 80,-110 80,-129"/>
<text text-anchor="middle" x="40" y="-117" font-family="Helvetica,sans-Serif" font-size="10.00">CarState.hpp</text>
</a>
</g>
</g>
<!-- Node1&#45;&gt;Node8 -->
<g id="edge18" class="edge">
<title>Node1&#45;&gt;Node8</title>
<path fill="none" stroke="#63b8ff" d="M144.38,-274.91C123.98,-267.15 101.71,-255.62 86,-239 59.18,-210.63 47.46,-164.88 42.78,-139.32"/>
<polygon fill="#63b8ff" stroke="#63b8ff" points="46.18,-138.43 41.09,-129.13 39.27,-139.57 46.18,-138.43"/>
</g>
<!-- Node9 -->
<g id="node9" class="node">
<title>Node9</title>
<g id="a_node9"><a xlink:title=" ">
<polygon fill="#e0e0e0" stroke="#999999" points="340.5,-184 269.5,-184 269.5,-165 340.5,-165 340.5,-184"/>
<text text-anchor="middle" x="305" y="-172" font-family="Helvetica,sans-Serif" font-size="10.00">mcp2515.h</text>
</a>
</g>
</g>
<!-- Node1&#45;&gt;Node9 -->
<g id="edge19" class="edge">
<title>Node1&#45;&gt;Node9</title>
<path fill="none" stroke="#63b8ff" d="M209.8,-274.63C230.21,-253.37 268.31,-213.71 289.6,-191.54"/>
<polygon fill="#63b8ff" stroke="#63b8ff" points="292.21,-193.87 296.62,-184.23 287.17,-189.02 292.21,-193.87"/>
</g>
<!-- Node10 -->
<g id="node10" class="node">
<title>Node10</title>
<g id="a_node10"><a xlink:href="Debug_8hpp.html" target="_top" xlink:title="Debugging macros and functions for serial and CAN output.">
<polygon fill="white" stroke="#666666" points="351.5,-239 282.5,-239 282.5,-220 351.5,-220 351.5,-239"/>
<text text-anchor="middle" x="317" y="-227" font-family="Helvetica,sans-Serif" font-size="10.00">Debug.hpp</text>
</a>
</g>
</g>
<!-- Node1&#45;&gt;Node10 -->
<g id="edge14" class="edge">
<title>Node1&#45;&gt;Node10</title>
<path fill="none" stroke="#63b8ff" d="M224.98,-274.99C244.72,-265.45 270.67,-252.9 289.97,-243.57"/>
<polygon fill="#63b8ff" stroke="#63b8ff" points="291.65,-246.64 299.13,-239.14 288.6,-240.34 291.65,-246.64"/>
</g>
<!-- Node3 -->
<g id="node3" class="node">
<title>Node3</title>
<g id="a_node3"><a xlink:href="Scheduler_8hpp.html" target="_top" xlink:title="Declaration of the Scheduler class template, for scheduling tasks on multiple MCP2515 instances.">
<polygon fill="white" stroke="#666666" points="251.5,-184 166.5,-184 166.5,-165 251.5,-165 251.5,-184"/>
<text text-anchor="middle" x="209" y="-172" font-family="Helvetica,sans-Serif" font-size="10.00">Scheduler.hpp</text>
</a>
</g>
</g>
<!-- Node2&#45;&gt;Node3 -->
<g id="edge2" class="edge">
<title>Node2&#45;&gt;Node3</title>
<path fill="none" stroke="#63b8ff" d="M198.15,-219.75C199.87,-212.72 202.35,-202.62 204.5,-193.84"/>
<polygon fill="#63b8ff" stroke="#63b8ff" points="207.91,-194.63 206.89,-184.09 201.11,-192.97 207.91,-194.63"/>
</g>
<!-- Node2&#45;&gt;Node8 -->
<g id="edge9" class="edge">
<title>Node2&#45;&gt;Node8</title>
<path fill="none" stroke="#63b8ff" d="M183.5,-219.84C156.8,-201.36 93.96,-157.86 61.01,-135.05"/>
<polygon fill="#63b8ff" stroke="#63b8ff" points="62.78,-132.01 52.56,-129.2 58.79,-137.77 62.78,-132.01"/>
</g>
<!-- Node2&#45;&gt;Node9 -->
<g id="edge13" class="edge">
<title>Node2&#45;&gt;Node9</title>
<path fill="none" stroke="#63b8ff" d="M213.51,-219.98C230.97,-211.5 258.01,-198.35 278.17,-188.54"/>
<polygon fill="#63b8ff" stroke="#63b8ff" points="279.71,-191.69 287.17,-184.17 276.64,-185.4 279.71,-191.69"/>
</g>
<!-- Node3&#45;&gt;Node4 -->
<g id="edge3" class="edge">
<title>Node3&#45;&gt;Node4</title>
<path fill="none" stroke="#63b8ff" d="M215.88,-164.71C225,-151.9 238.77,-127.69 228,-110 218.81,-94.9 202.66,-84.69 186.81,-77.91"/>
<polygon fill="#63b8ff" stroke="#63b8ff" points="187.64,-74.48 177.05,-74.12 185.1,-81 187.64,-74.48"/>
</g>
<!-- Node7 -->
<g id="node7" class="node">
<title>Node7</title>
<g id="a_node7"><a xlink:href="Scheduler_8tpp.html" target="_top" xlink:title="Implementation of the Scheduler class template.">
<polygon fill="white" stroke="#666666" points="219.5,-129 136.5,-129 136.5,-110 219.5,-110 219.5,-129"/>
<text text-anchor="middle" x="178" y="-117" font-family="Helvetica,sans-Serif" font-size="10.00">Scheduler.tpp</text>
</a>
</g>
</g>
<!-- Node3&#45;&gt;Node7 -->
<g id="edge6" class="edge">
<title>Node3&#45;&gt;Node7</title>
<path fill="none" stroke="#63b8ff" d="M198.71,-164.75C192.97,-157.57 186.48,-147.18 181.98,-138.27"/>
<polygon fill="#63b8ff" stroke="#63b8ff" points="185.16,-136.8 177.89,-129.09 178.76,-139.65 185.16,-136.8"/>
</g>
<!-- Node5 -->
<g id="node5" class="node">
<title>Node5</title>
<g id="a_node5"><a xlink:title=" ">
<polygon fill="#e0e0e0" stroke="#999999" points="159.5,-19 106.5,-19 106.5,0 159.5,0 159.5,-19"/>
<text text-anchor="middle" x="133" y="-7" font-family="Helvetica,sans-Serif" font-size="10.00">stdint.h</text>
</a>
</g>
</g>
<!-- Node4&#45;&gt;Node5 -->
<g id="edge4" class="edge">
<title>Node4&#45;&gt;Node5</title>
<path fill="none" stroke="#63b8ff" d="M140.51,-54.75C139.33,-47.8 137.64,-37.85 136.16,-29.13"/>
<polygon fill="#63b8ff" stroke="#63b8ff" points="139.58,-28.36 134.46,-19.09 132.68,-29.53 139.58,-28.36"/>
</g>
<!-- Node6 -->
<g id="node6" class="node">
<title>Node6</title>
<g id="a_node6"><a xlink:title=" ">
<polygon fill="#e0e0e0" stroke="#999999" points="79.5,-19 36.5,-19 36.5,0 79.5,0 79.5,-19"/>
<text text-anchor="middle" x="58" y="-7" font-family="Helvetica,sans-Serif" font-size="10.00">can.h</text>
</a>
</g>
</g>
<!-- Node4&#45;&gt;Node6 -->
<g id="edge5" class="edge">
<title>Node4&#45;&gt;Node6</title>
<path fill="none" stroke="#63b8ff" d="M128.5,-54.98C115.6,-46.84 95.9,-34.41 80.6,-24.76"/>
<polygon fill="#63b8ff" stroke="#63b8ff" points="82.07,-21.55 71.74,-19.17 78.33,-27.47 82.07,-21.55"/>
</g>
<!-- Node7&#45;&gt;Node3 -->
<g id="edge8" class="edge">
<title>Node7&#45;&gt;Node3</title>
<path fill="none" stroke="#63b8ff" d="M188.15,-129.09C193.88,-136.22 200.39,-146.6 204.92,-155.53"/>
<polygon fill="#63b8ff" stroke="#63b8ff" points="201.77,-157.05 209.05,-164.75 208.15,-154.19 201.77,-157.05"/>
</g>
<!-- Node7&#45;&gt;Node4 -->
<g id="edge7" class="edge">
<title>Node7&#45;&gt;Node4</title>
<path fill="none" stroke="#63b8ff" d="M172.06,-109.75C167.02,-102.34 159.66,-91.5 153.49,-82.41"/>
<polygon fill="#63b8ff" stroke="#63b8ff" points="156.35,-80.39 147.83,-74.09 150.56,-84.33 156.35,-80.39"/>
</g>
<!-- Node8&#45;&gt;Node4 -->
<g id="edge10" class="edge">
<title>Node8&#45;&gt;Node4</title>
<path fill="none" stroke="#63b8ff" d="M56.39,-109.98C72.57,-101.57 97.57,-88.59 116.38,-78.81"/>
<polygon fill="#63b8ff" stroke="#63b8ff" points="118.05,-81.89 125.31,-74.17 114.83,-75.68 118.05,-81.89"/>
</g>
<!-- Node8&#45;&gt;Node5 -->
<g id="edge12" class="edge">
<title>Node8&#45;&gt;Node5</title>
<path fill="none" stroke="#63b8ff" d="M47.61,-109.66C63.22,-91.54 99.06,-49.91 118.99,-26.77"/>
<polygon fill="#63b8ff" stroke="#63b8ff" points="121.67,-29.02 125.54,-19.16 116.37,-24.45 121.67,-29.02"/>
</g>
<!-- Node8&#45;&gt;Node6 -->
<g id="edge11" class="edge">
<title>Node8&#45;&gt;Node6</title>
<path fill="none" stroke="#63b8ff" d="M41.47,-109.66C44.39,-92.17 50.95,-52.8 54.87,-29.27"/>
<polygon fill="#63b8ff" stroke="#63b8ff" points="58.37,-29.6 56.56,-19.16 51.46,-28.45 58.37,-29.6"/>
</g>
<!-- Node10&#45;&gt;Node4 -->
<g id="edge15" class="edge">
<title>Node10&#45;&gt;Node4</title>
<path fill="none" stroke="#63b8ff" d="M327.52,-219.67C341.04,-207.22 361.49,-183.9 350,-165 315.38,-108.03 237.79,-83.08 187.78,-72.59"/>
<polygon fill="#63b8ff" stroke="#63b8ff" points="188.35,-69.14 177.86,-70.62 186.98,-76 188.35,-69.14"/>
</g>
<!-- Node10&#45;&gt;Node9 -->
<g id="edge16" class="edge">
<title>Node10&#45;&gt;Node9</title>
<path fill="none" stroke="#63b8ff" d="M315.02,-219.75C313.43,-212.72 311.14,-202.62 309.15,-193.84"/>
<polygon fill="#63b8ff" stroke="#63b8ff" points="312.57,-193.07 306.94,-184.09 305.74,-194.62 312.57,-193.07"/>
</g>
</g>
</svg>
