<?xml version="1.0" encoding="UTF-8" standalone="no"?>
<!DOCTYPE svg PUBLIC "-//W3C//DTD SVG 1.1//EN"
 "http://www.w3.org/Graphics/SVG/1.1/DTD/svg11.dtd">
<!-- Generated by graphviz version 2.43.0 (0)
 -->
<!-- Title: vehicle_control_unit/lib/BMS/BMS.cpp Pages: 1 -->
<svg width="605pt" height="313pt"
 viewBox="0.00 0.00 605.37 313.00" xmlns="http://www.w3.org/2000/svg" xmlns:xlink="http://www.w3.org/1999/xlink">
<g id="graph0" class="graph" transform="scale(1 1) rotate(0) translate(4 309)">
<title>vehicle_control_unit/lib/BMS/BMS.cpp</title>
<!-- Node1 -->
<g id="node1" class="node">
<title>Node1</title>
<g id="a_node1"><a xlink:title="Implementation of the BMS class for managing the Accumulator (Kclear BMS) via CAN bus.">
<polygon fill="#999999" stroke="#666666" points="288.87,-305 173.87,-305 173.87,-275 288.87,-275 288.87,-305"/>
<text text-anchor="start" x="181.87" y="-293" font-family="Helvetica,sans-Serif" font-size="10.00">vehicle_control_unit</text>
<text text-anchor="middle" x="231.37" y="-282" font-family="Helvetica,sans-Serif" font-size="10.00">/lib/BMS/BMS.cpp</text>
</a>
</g>
</g>
<!-- Node2 -->
<g id="node2" class="node">
<title>Node2</title>
<g id="a_node2"><a xlink:href="BMS_8hpp.html" target="_top" xlink:title="Declaration of the BMS class for managing the Accumulator (Kclear BMS) via CAN bus.">
<polygon fill="white" stroke="#666666" points="147.87,-239 88.87,-239 88.87,-220 147.87,-220 147.87,-239"/>
<text text-anchor="middle" x="118.37" y="-227" font-family="Helvetica,sans-Serif" font-size="10.00">BMS.hpp</text>
</a>
</g>
</g>
<!-- Node1&#45;&gt;Node2 -->
<g id="edge1" class="edge">
<title>Node1&#45;&gt;Node2</title>
<path fill="none" stroke="#63b8ff" d="M204.3,-274.99C186.12,-265.58 162.3,-253.24 144.35,-243.95"/>
<polygon fill="#63b8ff" stroke="#63b8ff" points="145.55,-240.63 135.06,-239.14 142.33,-246.84 145.55,-240.63"/>
</g>
<!-- Node4 -->
<g id="node4" class="node">
<title>Node4</title>
<g id="a_node4"><a xlink:href="Enums_8hpp.html" target="_top" xlink:title="Enumeration definitions for the VCU.">
<polygon fill="white" stroke="#666666" points="399.87,-74 328.87,-74 328.87,-55 399.87,-55 399.87,-74"/>
<text text-anchor="middle" x="364.37" y="-62" font-family="Helvetica,sans-Serif" font-size="10.00">Enums.hpp</text>
</a>
</g>
</g>
<!-- Node1&#45;&gt;Node4 -->
<g id="edge25" class="edge">
<title>Node1&#45;&gt;Node4</title>
<path fill="none" stroke="#63b8ff" d="M240.69,-274.62C258.61,-246.82 298.89,-183.62 330.37,-129 339.14,-113.78 348.52,-96.15 355.2,-83.33"/>
<polygon fill="#63b8ff" stroke="#63b8ff" points="358.43,-84.71 359.92,-74.22 352.21,-81.49 358.43,-84.71"/>
</g>
<!-- Node7 -->
<g id="node7" class="node">
<title>Node7</title>
<g id="a_node7"><a xlink:title=" ">
<polygon fill="#e0e0e0" stroke="#999999" points="75.87,-74 4.87,-74 4.87,-55 75.87,-55 75.87,-74"/>
<text text-anchor="middle" x="40.37" y="-62" font-family="Helvetica,sans-Serif" font-size="10.00">mcp2515.h</text>
</a>
</g>
</g>
<!-- Node1&#45;&gt;Node7 -->
<g id="edge27" class="edge">
<title>Node1&#45;&gt;Node7</title>
<path fill="none" stroke="#63b8ff" d="M173.71,-281.66C118.45,-271.03 39.19,-245.35 9.37,-184 -5.01,-154.42 -0.48,-141.38 9.37,-110 12.6,-99.71 19.15,-89.72 25.4,-81.82"/>
<polygon fill="#63b8ff" stroke="#63b8ff" points="28.1,-84.04 31.89,-74.15 22.75,-79.52 28.1,-84.04"/>
</g>
<!-- Node9 -->
<g id="node9" class="node">
<title>Node9</title>
<g id="a_node9"><a xlink:href="CarState_8hpp.html" target="_top" xlink:title="Definition of the CarState structure representing the state of the car.">
<polygon fill="white" stroke="#666666" points="597.37,-129 517.37,-129 517.37,-110 597.37,-110 597.37,-129"/>
<text text-anchor="middle" x="557.37" y="-117" font-family="Helvetica,sans-Serif" font-size="10.00">CarState.hpp</text>
</a>
</g>
</g>
<!-- Node1&#45;&gt;Node9 -->
<g id="edge26" class="edge">
<title>Node1&#45;&gt;Node9</title>
<path fill="none" stroke="#63b8ff" d="M286.28,-274.97C315.84,-266.43 352.47,-254.23 383.37,-239 444.24,-209 508.34,-160.18 538.97,-135.62"/>
<polygon fill="#63b8ff" stroke="#63b8ff" points="541.46,-138.12 547.03,-129.1 537.05,-132.67 541.46,-138.12"/>
</g>
<!-- Node10 -->
<g id="node10" class="node">
<title>Node10</title>
<g id="a_node10"><a xlink:href="Debug_8hpp.html" target="_top" xlink:title="Debugging macros and functions for serial and CAN output.">
<polygon fill="white" stroke="#666666" points="265.87,-184 196.87,-184 196.87,-165 265.87,-165 265.87,-184"/>
<text text-anchor="middle" x="231.37" y="-172" font-family="Helvetica,sans-Serif" font-size="10.00">Debug.hpp</text>
</a>
</g>
</g>
<!-- Node1&#45;&gt;Node10 -->
<g id="edge16" class="edge">
<title>Node1&#45;&gt;Node10</title>
<path fill="none" stroke="#63b8ff" d="M231.37,-274.63C231.37,-254.21 231.37,-216.81 231.37,-194.24"/>
<polygon fill="#63b8ff" stroke="#63b8ff" points="234.87,-194.23 231.37,-184.23 227.87,-194.23 234.87,-194.23"/>
</g>
<!-- Node3 -->
<g id="node3" class="node">
<title>Node3</title>
<g id="a_node3"><a xlink:href="Scheduler_8hpp.html" target="_top" xlink:title="Declaration of the Scheduler class template, for scheduling tasks on multiple MCP2515 instances.">
<polygon fill="white" stroke="#666666" points="117.87,-184 32.87,-184 32.87,-165 117.87,-165 117.87,-184"/>
<text text-anchor="middle" x="75.37" y="-172" font-family="Helvetica,sans-Serif" font-size="10.00">Scheduler.hpp</text>
</a>
</g>
</g>
<!-- Node2&#45;&gt;Node3 -->
<g id="edge2" class="edge">
<title>Node2&#45;&gt;Node3</title>
<path fill="none" stroke="#63b8ff" d="M111.27,-219.75C105.19,-212.26 96.28,-201.28 88.86,-192.13"/>
<polygon fill="#63b8ff" stroke="#63b8ff" points="91.36,-189.65 82.34,-184.09 85.92,-194.06 91.36,-189.65"/>
</g>
<!-- Node2&#45;&gt;Node7 -->
<g id="edge15" class="edge">
<title>Node2&#45;&gt;Node7</title>
<path fill="none" stroke="#63b8ff" d="M88.49,-222.65C66.77,-216.75 38.62,-205.33 23.37,-184 4.18,-157.16 9.57,-142.06 17.37,-110 19.68,-100.51 24.39,-90.78 28.95,-82.85"/>
<polygon fill="#63b8ff" stroke="#63b8ff" points="32.01,-84.55 34.26,-74.2 26.05,-80.89 32.01,-84.55"/>
</g>
<!-- Node2&#45;&gt;Node9 -->
<g id="edge11" class="edge">
<title>Node2&#45;&gt;Node9</title>
<path fill="none" stroke="#63b8ff" d="M148.2,-221.16C223.83,-202.56 423.4,-153.46 512.87,-131.45"/>
<polygon fill="#63b8ff" stroke="#63b8ff" points="513.84,-134.81 522.71,-129.03 512.16,-128.02 513.84,-134.81"/>
</g>
<!-- Node3&#45;&gt;Node4 -->
<g id="edge3" class="edge">
<title>Node3&#45;&gt;Node4</title>
<path fill="none" stroke="#63b8ff" d="M118.05,-168.89C159.41,-163.3 223.23,-151.67 274.37,-129 289.12,-122.46 323.53,-96.95 345.27,-80.32"/>
<polygon fill="#63b8ff" stroke="#63b8ff" points="347.66,-82.9 353.45,-74.03 343.39,-77.35 347.66,-82.9"/>
</g>
<!-- Node3&#45;&gt;Node7 -->
<g id="edge6" class="edge">
<title>Node3&#45;&gt;Node7</title>
<path fill="none" stroke="#63b8ff" d="M59.64,-164.88C47.49,-157.23 31.57,-144.83 24.37,-129 17.62,-114.15 23.46,-96.01 29.89,-82.92"/>
<polygon fill="#63b8ff" stroke="#63b8ff" points="33.02,-84.5 34.74,-74.04 26.88,-81.15 33.02,-84.5"/>
</g>
<!-- Node8 -->
<g id="node8" class="node">
<title>Node8</title>
<g id="a_node8"><a xlink:href="Scheduler_8tpp.html" target="_top" xlink:title="Implementation of the Scheduler class template.">
<polygon fill="white" stroke="#666666" points="116.87,-129 33.87,-129 33.87,-110 116.87,-110 116.87,-129"/>
<text text-anchor="middle" x="75.37" y="-117" font-family="Helvetica,sans-Serif" font-size="10.00">Scheduler.tpp</text>
</a>
</g>
</g>
<!-- Node3&#45;&gt;Node8 -->
<g id="edge7" class="edge">
<title>Node3&#45;&gt;Node8</title>
<path fill="none" stroke="#63b8ff" d="M70.2,-164.75C68.71,-157.8 68.27,-147.85 68.89,-139.13"/>
<polygon fill="#63b8ff" stroke="#63b8ff" points="72.38,-139.47 70.24,-129.09 65.44,-138.53 72.38,-139.47"/>
</g>
<!-- Node5 -->
<g id="node5" class="node">
<title>Node5</title>
<g id="a_node5"><a xlink:title=" ">
<polygon fill="#e0e0e0" stroke="#999999" points="549.87,-19 496.87,-19 496.87,0 549.87,0 549.87,-19"/>
<text text-anchor="middle" x="523.37" y="-7" font-family="Helvetica,sans-Serif" font-size="10.00">stdint.h</text>
</a>
</g>
</g>
<!-- Node4&#45;&gt;Node5 -->
<g id="edge4" class="edge">
<title>Node4&#45;&gt;Node5</title>
<path fill="none" stroke="#63b8ff" d="M389.91,-54.98C416.49,-46.13 458.31,-32.19 488.04,-22.28"/>
<polygon fill="#63b8ff" stroke="#63b8ff" points="489.24,-25.56 497.62,-19.08 487.03,-18.92 489.24,-25.56"/>
</g>
<!-- Node6 -->
<g id="node6" class="node">
<title>Node6</title>
<g id="a_node6"><a xlink:title=" ">
<polygon fill="#e0e0e0" stroke="#999999" points="447.87,-19 404.87,-19 404.87,0 447.87,0 447.87,-19"/>
<text text-anchor="middle" x="426.37" y="-7" font-family="Helvetica,sans-Serif" font-size="10.00">can.h</text>
</a>
</g>
</g>
<!-- Node4&#45;&gt;Node6 -->
<g id="edge5" class="edge">
<title>Node4&#45;&gt;Node6</title>
<path fill="none" stroke="#63b8ff" d="M374.33,-54.98C383.5,-47.15 397.31,-35.34 408.4,-25.86"/>
<polygon fill="#63b8ff" stroke="#63b8ff" points="410.9,-28.33 416.23,-19.17 406.35,-23.01 410.9,-28.33"/>
</g>
<!-- Node8&#45;&gt;Node3 -->
<g id="edge10" class="edge">
<title>Node8&#45;&gt;Node3</title>
<path fill="none" stroke="#63b8ff" d="M80.5,-129.09C82.01,-135.99 82.46,-145.93 81.86,-154.66"/>
<polygon fill="#63b8ff" stroke="#63b8ff" points="78.37,-154.38 80.54,-164.75 85.31,-155.29 78.37,-154.38"/>
</g>
<!-- Node8&#45;&gt;Node4 -->
<g id="edge8" class="edge">
<title>Node8&#45;&gt;Node4</title>
<path fill="none" stroke="#63b8ff" d="M117.08,-110.85C170.65,-101.03 263.28,-84.04 318.69,-73.88"/>
<polygon fill="#63b8ff" stroke="#63b8ff" points="319.39,-77.31 328.59,-72.06 318.12,-70.42 319.39,-77.31"/>
</g>
<!-- Node8&#45;&gt;Node7 -->
<g id="edge9" class="edge">
<title>Node8&#45;&gt;Node7</title>
<path fill="none" stroke="#63b8ff" d="M69.59,-109.75C64.75,-102.42 57.69,-91.73 51.72,-82.7"/>
<polygon fill="#63b8ff" stroke="#63b8ff" points="54.47,-80.5 46.04,-74.09 48.63,-84.36 54.47,-80.5"/>
</g>
<!-- Node9&#45;&gt;Node4 -->
<g id="edge12" class="edge">
<title>Node9&#45;&gt;Node4</title>
<path fill="none" stroke="#63b8ff" d="M526.36,-109.98C493.54,-100.97 441.57,-86.7 405.38,-76.76"/>
<polygon fill="#63b8ff" stroke="#63b8ff" points="406.19,-73.36 395.62,-74.08 404.34,-80.11 406.19,-73.36"/>
</g>
<!-- Node9&#45;&gt;Node5 -->
<g id="edge14" class="edge">
<title>Node9&#45;&gt;Node5</title>
<path fill="none" stroke="#63b8ff" d="M554.59,-109.66C549.06,-92.09 536.57,-52.45 529.18,-28.95"/>
<polygon fill="#63b8ff" stroke="#63b8ff" points="532.44,-27.65 526.09,-19.16 525.76,-29.75 532.44,-27.65"/>
</g>
<!-- Node9&#45;&gt;Node6 -->
<g id="edge13" class="edge">
<title>Node9&#45;&gt;Node6</title>
<path fill="none" stroke="#63b8ff" d="M549.08,-109.85C536.78,-97.2 512.74,-73.21 490.37,-55 477.02,-44.14 461.15,-33.09 448.55,-24.72"/>
<polygon fill="#63b8ff" stroke="#63b8ff" points="450.32,-21.69 440.03,-19.14 446.48,-27.55 450.32,-21.69"/>
</g>
<!-- Node10&#45;&gt;Node4 -->
<g id="edge17" class="edge">
<title>Node10&#45;&gt;Node4</title>
<path fill="none" stroke="#63b8ff" d="M249.58,-164.87C265.64,-156.8 289.24,-143.79 307.37,-129 324.5,-115.02 341.04,-95.75 351.85,-82.11"/>
<polygon fill="#63b8ff" stroke="#63b8ff" points="354.71,-84.13 358.07,-74.08 349.18,-79.84 354.71,-84.13"/>
</g>
<!-- Node10&#45;&gt;Node7 -->
<g id="edge18" class="edge">
<title>Node10&#45;&gt;Node7</title>
<path fill="none" stroke="#63b8ff" d="M217.95,-164.99C198.14,-152.52 159.82,-128.74 126.37,-110 106.75,-99.01 84.16,-87.36 67.05,-78.73"/>
<polygon fill="#63b8ff" stroke="#63b8ff" points="68.19,-75.39 57.68,-74.03 65.05,-81.64 68.19,-75.39"/>
</g>
<!-- Node11 -->
<g id="node11" class="node">
<title>Node11</title>
<g id="a_node11"><a xlink:href="Debug__serial_8hpp.html" target="_top" xlink:title="Declaration of the Debug_Serial namespace for serial debugging functions.">
<polygon fill="white" stroke="#666666" points="498.87,-129 397.87,-129 397.87,-110 498.87,-110 498.87,-129"/>
<text text-anchor="middle" x="448.37" y="-117" font-family="Helvetica,sans-Serif" font-size="10.00">Debug_serial.hpp</text>
</a>
</g>
</g>
<!-- Node10&#45;&gt;Node11 -->
<g id="edge19" class="edge">
<title>Node10&#45;&gt;Node11</title>
<path fill="none" stroke="#63b8ff" d="M266.23,-164.98C303.45,-155.89 362.56,-141.46 403.3,-131.51"/>
<polygon fill="#63b8ff" stroke="#63b8ff" points="404.35,-134.85 413.23,-129.08 402.69,-128.05 404.35,-134.85"/>
</g>
<!-- Node13 -->
<g id="node13" class="node">
<title>Node13</title>
<g id="a_node13"><a xlink:href="Debug__can_8hpp.html" target="_top" xlink:title="Declaration of the Debug_CAN namespace for CAN debugging functions.">
<polygon fill="white" stroke="#666666" points="265.37,-129 173.37,-129 173.37,-110 265.37,-110 265.37,-129"/>
<text text-anchor="middle" x="219.37" y="-117" font-family="Helvetica,sans-Serif" font-size="10.00">Debug_can.hpp</text>
</a>
</g>
</g>
<!-- Node10&#45;&gt;Node13 -->
<g id="edge22" class="edge">
<title>Node10&#45;&gt;Node13</title>
<path fill="none" stroke="#63b8ff" d="M229.39,-164.75C227.8,-157.72 225.51,-147.62 223.52,-138.84"/>
<polygon fill="#63b8ff" stroke="#63b8ff" points="226.94,-138.07 221.31,-129.09 220.11,-139.62 226.94,-138.07"/>
</g>
<!-- Node11&#45;&gt;Node4 -->
<g id="edge21" class="edge">
<title>Node11&#45;&gt;Node4</title>
<path fill="none" stroke="#63b8ff" d="M434.87,-109.98C421.97,-101.84 402.27,-89.41 386.97,-79.76"/>
<polygon fill="#63b8ff" stroke="#63b8ff" points="388.44,-76.55 378.11,-74.17 384.7,-82.47 388.44,-76.55"/>
</g>
<!-- Node12 -->
<g id="node12" class="node">
<title>Node12</title>
<g id="a_node12"><a xlink:title=" ">
<polygon fill="#e0e0e0" stroke="#999999" points="480.87,-74 417.87,-74 417.87,-55 480.87,-55 480.87,-74"/>
<text text-anchor="middle" x="449.37" y="-62" font-family="Helvetica,sans-Serif" font-size="10.00">Arduino.h</text>
</a>
</g>
</g>
<!-- Node11&#45;&gt;Node12 -->
<g id="edge20" class="edge">
<title>Node11&#45;&gt;Node12</title>
<path fill="none" stroke="#63b8ff" d="M448.53,-109.75C448.66,-102.8 448.85,-92.85 449.02,-84.13"/>
<polygon fill="#63b8ff" stroke="#63b8ff" points="452.52,-84.15 449.21,-74.09 445.52,-84.02 452.52,-84.15"/>
</g>
<!-- Node13&#45;&gt;Node4 -->
<g id="edge24" class="edge">
<title>Node13&#45;&gt;Node4</title>
<path fill="none" stroke="#63b8ff" d="M242.67,-109.98C266.62,-101.23 304.15,-87.51 331.2,-77.62"/>
<polygon fill="#63b8ff" stroke="#63b8ff" points="332.46,-80.89 340.65,-74.17 330.05,-74.32 332.46,-80.89"/>
</g>
<!-- Node13&#45;&gt;Node7 -->
<g id="edge23" class="edge">
<title>Node13&#45;&gt;Node7</title>
<path fill="none" stroke="#63b8ff" d="M190.61,-109.98C160.43,-101.05 112.8,-86.94 79.27,-77.02"/>
<polygon fill="#63b8ff" stroke="#63b8ff" points="79.94,-73.57 69.35,-74.08 77.95,-80.28 79.94,-73.57"/>
</g>
</g>
</svg>
