<?xml version="1.0" encoding="UTF-8" standalone="no"?>
<!DOCTYPE svg PUBLIC "-//W3C//DTD SVG 1.1//EN"
 "http://www.w3.org/Graphics/SVG/1.1/DTD/svg11.dtd">
<!-- Generated by graphviz version 2.43.0 (0)
 -->
<!-- Title: ExponentialFilter::getFiltered Pages: 1 -->
<svg width="484pt" height="38pt"
 viewBox="0.00 0.00 484.00 38.00" xmlns="http://www.w3.org/2000/svg" xmlns:xlink="http://www.w3.org/1999/xlink">
<g id="graph0" class="graph" transform="scale(1 1) rotate(0) translate(4 34)">
<title>ExponentialFilter::getFiltered</title>
<!-- Node1 -->
<g id="node1" class="node">
<title>Node1</title>
<g id="a_node1"><a xlink:title="Retrieves the filtered value from the ExponentialFilter.">
<polygon fill="#999999" stroke="#666666" points="476,-30 371,-30 371,0 476,0 476,-30"/>
<text text-anchor="start" x="379" y="-18" font-family="Helvetica,sans-Serif" font-size="10.00">ExponentialFilter::</text>
<text text-anchor="middle" x="423.5" y="-7" font-family="Helvetica,sans-Serif" font-size="10.00">getFiltered</text>
</a>
</g>
</g>
<!-- Node2 -->
<g id="node2" class="node">
<title>Node2</title>
<g id="a_node2"><a xlink:href="classPedal.html#a1027941444ce0b3f32ab8991e05c2015" target="_top" xlink:title="Sends the appropriate CAN frame to the motor based on pedal and car state.">
<polygon fill="white" stroke="#666666" points="335,-24.5 231,-24.5 231,-5.5 335,-5.5 335,-24.5"/>
<text text-anchor="middle" x="283" y="-12.5" font-family="Helvetica,sans-Serif" font-size="10.00">Pedal::sendFrame</text>
</a>
</g>
</g>
<!-- Node1&#45;&gt;Node2 -->
<g id="edge1" class="edge">
<title>Node1&#45;&gt;Node2</title>
<path fill="none" stroke="#63b8ff" d="M360.93,-15C352.31,-15 343.54,-15 335.15,-15"/>
<polygon fill="#63b8ff" stroke="#63b8ff" points="360.93,-18.5 370.93,-15 360.93,-11.5 360.93,-18.5"/>
</g>
<!-- Node3 -->
<g id="node3" class="node">
<title>Node3</title>
<g id="a_node3"><a xlink:href="main_8cpp.html#a35850a25a9bfe403bb5f5d4c4796ad41" target="_top" xlink:title=" ">
<polygon fill="white" stroke="#666666" points="195,-24.5 80,-24.5 80,-5.5 195,-5.5 195,-24.5"/>
<text text-anchor="middle" x="137.5" y="-12.5" font-family="Helvetica,sans-Serif" font-size="10.00">schedulerPedalSend</text>
</a>
</g>
</g>
<!-- Node2&#45;&gt;Node3 -->
<g id="edge2" class="edge">
<title>Node2&#45;&gt;Node3</title>
<path fill="none" stroke="#63b8ff" d="M220.54,-15C212.19,-15 203.65,-15 195.38,-15"/>
<polygon fill="#63b8ff" stroke="#63b8ff" points="220.6,-18.5 230.6,-15 220.6,-11.5 220.6,-18.5"/>
</g>
<!-- Node4 -->
<g id="node4" class="node">
<title>Node4</title>
<g id="a_node4"><a xlink:href="main_8cpp.html#a4fc01d736fe50cf5b977f755b675f11d" target="_top" xlink:title="Setup function for initializing the VCU system. Initializes MCP2515s, IO pins, as well as own modules...">
<polygon fill="white" stroke="#666666" points="44,-24.5 0,-24.5 0,-5.5 44,-5.5 44,-24.5"/>
<text text-anchor="middle" x="22" y="-12.5" font-family="Helvetica,sans-Serif" font-size="10.00">setup</text>
</a>
</g>
</g>
<!-- Node3&#45;&gt;Node4 -->
<g id="edge3" class="edge">
<title>Node3&#45;&gt;Node4</title>
<path fill="none" stroke="#63b8ff" d="M69.64,-15C60.41,-15 51.55,-15 44.08,-15"/>
<polygon fill="#63b8ff" stroke="#63b8ff" points="69.75,-18.5 79.75,-15 69.75,-11.5 69.75,-18.5"/>
</g>
</g>
</svg>
