<?xml version="1.0" encoding="UTF-8" standalone="no"?>
<!DOCTYPE svg PUBLIC "-//W3C//DTD SVG 1.1//EN"
 "http://www.w3.org/Graphics/SVG/1.1/DTD/svg11.dtd">
<!-- Generated by graphviz version 2.43.0 (0)
 -->
<!-- Title: Pedal::update Pages: 1 -->
<svg width="401pt" height="94pt"
 viewBox="0.00 0.00 401.00 93.50" xmlns="http://www.w3.org/2000/svg" xmlns:xlink="http://www.w3.org/1999/xlink">
<g id="graph0" class="graph" transform="scale(1 1) rotate(0) translate(4 89.5)">
<title>Pedal::update</title>
<!-- Node1 -->
<g id="node1" class="node">
<title>Node1</title>
<g id="a_node1"><a xlink:title="Updates pedal sensor readings, applies filtering, and checks for faults.">
<polygon fill="#999999" stroke="#666666" points="83,-58 0,-58 0,-39 83,-39 83,-58"/>
<text text-anchor="middle" x="41.5" y="-46" font-family="Helvetica,sans-Serif" font-size="10.00">Pedal::update</text>
</a>
</g>
</g>
<!-- Node2 -->
<g id="node2" class="node">
<title>Node2</title>
<g id="a_node2"><a xlink:href="classExponentialFilter.html#a4128176cf6dbe847a521df4dba8d962d" target="_top" xlink:title="Adds a new sample to the ExponentialFilter. Updates the filtered value using the exponential moving a...">
<polygon fill="white" stroke="#666666" points="235.5,-85.5 130.5,-85.5 130.5,-55.5 235.5,-55.5 235.5,-85.5"/>
<text text-anchor="start" x="138.5" y="-73.5" font-family="Helvetica,sans-Serif" font-size="10.00">ExponentialFilter::</text>
<text text-anchor="middle" x="183" y="-62.5" font-family="Helvetica,sans-Serif" font-size="10.00">addSample</text>
</a>
</g>
</g>
<!-- Node1&#45;&gt;Node2 -->
<g id="edge1" class="edge">
<title>Node1&#45;&gt;Node2</title>
<path fill="none" stroke="#63b8ff" d="M83.22,-54.92C94.84,-56.75 107.76,-58.79 120.32,-60.77"/>
<polygon fill="#63b8ff" stroke="#63b8ff" points="119.87,-64.24 130.29,-62.35 120.96,-57.33 119.87,-64.24"/>
</g>
<!-- Node3 -->
<g id="node3" class="node">
<title>Node3</title>
<g id="a_node3"><a xlink:href="classPedal.html#a4025bb96ea422dbba6d3b604a1066bc7" target="_top" xlink:title="Checks for a fault between two pedal sensor readings.">
<polygon fill="white" stroke="#666666" points="247,-37 119,-37 119,-18 247,-18 247,-37"/>
<text text-anchor="middle" x="183" y="-25" font-family="Helvetica,sans-Serif" font-size="10.00">Pedal::checkPedalFault</text>
</a>
</g>
</g>
<!-- Node1&#45;&gt;Node3 -->
<g id="edge2" class="edge">
<title>Node1&#45;&gt;Node3</title>
<path fill="none" stroke="#63b8ff" d="M83.22,-42.37C91.35,-41.15 100.11,-39.83 108.94,-38.5"/>
<polygon fill="#63b8ff" stroke="#63b8ff" points="109.54,-41.95 118.91,-37 108.5,-35.03 109.54,-41.95"/>
</g>
<!-- Node4 -->
<g id="node4" class="node">
<title>Node4</title>
<g id="a_node4"><a xlink:href="classLinearInterp.html#a3c1654f4a47bb4db5386e38a8bdd6bc1" target="_top" xlink:title="Performs linear interpolation for the given input value, using the table.">
<polygon fill="white" stroke="#666666" points="393,-56 283,-56 283,-37 393,-37 393,-56"/>
<text text-anchor="middle" x="338" y="-44" font-family="Helvetica,sans-Serif" font-size="10.00">LinearInterp::interp</text>
</a>
</g>
</g>
<!-- Node3&#45;&gt;Node4 -->
<g id="edge3" class="edge">
<title>Node3&#45;&gt;Node4</title>
<path fill="none" stroke="#63b8ff" d="M247.11,-35.34C255.54,-36.38 264.19,-37.46 272.64,-38.51"/>
<polygon fill="#63b8ff" stroke="#63b8ff" points="272.46,-42.01 282.82,-39.77 273.32,-35.07 272.46,-42.01"/>
</g>
<!-- Node5 -->
<g id="node5" class="node">
<title>Node5</title>
<g id="a_node5"><a xlink:href="classLinearInterp.html#a9928dbf5a866f066fa19a3c4794bf71a" target="_top" xlink:title="Returns the input range of the interpolation table (last input &#45; first input)">
<polygon fill="white" stroke="#666666" points="392.5,-19 283.5,-19 283.5,0 392.5,0 392.5,-19"/>
<text text-anchor="middle" x="338" y="-7" font-family="Helvetica,sans-Serif" font-size="10.00">LinearInterp::range</text>
</a>
</g>
</g>
<!-- Node3&#45;&gt;Node5 -->
<g id="edge4" class="edge">
<title>Node3&#45;&gt;Node5</title>
<path fill="none" stroke="#63b8ff" d="M247.11,-20.07C255.75,-19.06 264.63,-18.01 273.27,-17"/>
<polygon fill="#63b8ff" stroke="#63b8ff" points="273.77,-20.46 283.3,-15.82 272.96,-13.51 273.77,-20.46"/>
</g>
</g>
</svg>
