<?xml version="1.0" encoding="UTF-8" standalone="no"?>
<!DOCTYPE svg PUBLIC "-//W3C//DTD SVG 1.1//EN"
 "http://www.w3.org/Graphics/SVG/1.1/DTD/svg11.dtd">
<!-- Generated by graphviz version 2.43.0 (0)
 -->
<!-- Title: Pedal Pages: 1 -->
<svg width="865pt" height="970pt"
 viewBox="0.00 0.00 865.00 970.00" xmlns="http://www.w3.org/2000/svg" xmlns:xlink="http://www.w3.org/1999/xlink">
<g id="graph0" class="graph" transform="scale(1 1) rotate(0) translate(4 966)">
<title>Pedal</title>
<!-- Node1 -->
<g id="node1" class="node">
<title>Node1</title>
<g id="a_node1"><a xlink:title="Pedal class for managing throttle and brake pedal inputs. Handles filtering, fault detection,...">
<polygon fill="#999999" stroke="#666666" points="534.5,-0.5 534.5,-310.5 669.5,-310.5 669.5,-0.5 534.5,-0.5"/>
<text text-anchor="middle" x="602" y="-298.5" font-family="Helvetica,sans-Serif" font-size="10.00">Pedal</text>
<polyline fill="none" stroke="#666666" points="534.5,-291.5 669.5,-291.5 "/>
<text text-anchor="start" x="542.5" y="-279.5" font-family="Helvetica,sans-Serif" font-size="10.00">+ pedal_final</text>
<text text-anchor="start" x="542.5" y="-268.5" font-family="Helvetica,sans-Serif" font-size="10.00">&#45; motor_can</text>
<text text-anchor="start" x="542.5" y="-257.5" font-family="Helvetica,sans-Serif" font-size="10.00">&#45; fault_start_millis</text>
<text text-anchor="start" x="542.5" y="-246.5" font-family="Helvetica,sans-Serif" font-size="10.00">&#45; last_motor_read_millis</text>
<text text-anchor="start" x="542.5" y="-235.5" font-family="Helvetica,sans-Serif" font-size="10.00">&#45; got_speed</text>
<text text-anchor="start" x="542.5" y="-224.5" font-family="Helvetica,sans-Serif" font-size="10.00">&#45; got_error</text>
<text text-anchor="start" x="542.5" y="-213.5" font-family="Helvetica,sans-Serif" font-size="10.00">&#45; stop_frame</text>
<text text-anchor="start" x="542.5" y="-202.5" font-family="Helvetica,sans-Serif" font-size="10.00">&#45; torque_msg</text>
<text text-anchor="start" x="542.5" y="-191.5" font-family="Helvetica,sans-Serif" font-size="10.00">&#45; MOTOR_SEND</text>
<text text-anchor="start" x="542.5" y="-180.5" font-family="Helvetica,sans-Serif" font-size="10.00">&#45; MOTOR_READ</text>
<text text-anchor="start" x="542.5" y="-169.5" font-family="Helvetica,sans-Serif" font-size="10.00">&#45; REGID_READ</text>
<text text-anchor="start" x="542.5" y="-158.5" font-family="Helvetica,sans-Serif" font-size="10.00">&#45; SPEED_IST</text>
<text text-anchor="start" x="542.5" y="-147.5" font-family="Helvetica,sans-Serif" font-size="10.00">&#45; WARN_ERR</text>
<text text-anchor="start" x="542.5" y="-136.5" font-family="Helvetica,sans-Serif" font-size="10.00">&#45; RPM_PERIOD</text>
<text text-anchor="start" x="542.5" y="-125.5" font-family="Helvetica,sans-Serif" font-size="10.00">&#45; ERR_PERIOD</text>
<polyline fill="none" stroke="#666666" points="534.5,-118.5 669.5,-118.5 "/>
<text text-anchor="start" x="542.5" y="-106.5" font-family="Helvetica,sans-Serif" font-size="10.00">+ Pedal()</text>
<text text-anchor="start" x="542.5" y="-95.5" font-family="Helvetica,sans-Serif" font-size="10.00">+ update()</text>
<text text-anchor="start" x="542.5" y="-84.5" font-family="Helvetica,sans-Serif" font-size="10.00">+ sendFrame()</text>
<text text-anchor="start" x="542.5" y="-73.5" font-family="Helvetica,sans-Serif" font-size="10.00">+ initFilter()</text>
<text text-anchor="start" x="542.5" y="-62.5" font-family="Helvetica,sans-Serif" font-size="10.00">+ initMotor()</text>
<text text-anchor="start" x="542.5" y="-51.5" font-family="Helvetica,sans-Serif" font-size="10.00">+ readMotor()</text>
<text text-anchor="start" x="542.5" y="-40.5" font-family="Helvetica,sans-Serif" font-size="10.00">&#45; checkPedalFault()</text>
<text text-anchor="start" x="542.5" y="-29.5" font-family="Helvetica,sans-Serif" font-size="10.00">&#45; pedalTorqueMapping()</text>
<text text-anchor="start" x="542.5" y="-18.5" font-family="Helvetica,sans-Serif" font-size="10.00">&#45; sendCyclicRead()</text>
<text text-anchor="start" x="542.5" y="-7.5" font-family="Helvetica,sans-Serif" font-size="10.00">&#45; checkCyclicRead()</text>
</a>
</g>
</g>
<!-- Node2 -->
<g id="node2" class="node">
<title>Node2</title>
<g id="a_node2"><a xlink:href="structCarState.html" target="_top" xlink:title="Represents the state of the car. Holds telemetry data and status, used as central data sharing struct...">
<polygon fill="white" stroke="#666666" points="301,-413.5 301,-481.5 391,-481.5 391,-413.5 301,-413.5"/>
<text text-anchor="middle" x="346" y="-469.5" font-family="Helvetica,sans-Serif" font-size="10.00">CarState</text>
<polyline fill="none" stroke="#666666" points="301,-462.5 391,-462.5 "/>
<text text-anchor="start" x="309" y="-450.5" font-family="Helvetica,sans-Serif" font-size="10.00">+ status_millis</text>
<text text-anchor="start" x="309" y="-439.5" font-family="Helvetica,sans-Serif" font-size="10.00">+ millis</text>
<polyline fill="none" stroke="#666666" points="301,-432.5 391,-432.5 "/>
<text text-anchor="middle" x="346" y="-420.5" font-family="Helvetica,sans-Serif" font-size="10.00"> </text>
</a>
</g>
</g>
<!-- Node2&#45;&gt;Node1 -->
<g id="edge1" class="edge">
<title>Node2&#45;&gt;Node1</title>
<path fill="none" stroke="#404040" d="M375.37,-413.23C411.96,-371.78 475.83,-299.43 526.46,-242.07"/>
<polygon fill="none" stroke="#404040" points="526.52,-242 527.49,-234.86 534.46,-233.01 533.49,-240.15 526.52,-242"/>
<text text-anchor="middle" x="455" y="-343" font-family="Helvetica,sans-Serif" font-size="10.00"> &#45;car</text>
</g>
<!-- Node3 -->
<g id="node3" class="node">
<title>Node3</title>
<g id="a_node3"><a xlink:href="structTelemetryFramePedal.html" target="_top" xlink:title="Telemetry frame structure for the Pedals.">
<polygon fill="white" stroke="#666666" points="72.5,-562.5 72.5,-652.5 195.5,-652.5 195.5,-562.5 72.5,-562.5"/>
<text text-anchor="middle" x="134" y="-640.5" font-family="Helvetica,sans-Serif" font-size="10.00">TelemetryFramePedal</text>
<polyline fill="none" stroke="#666666" points="72.5,-633.5 195.5,-633.5 "/>
<text text-anchor="start" x="80.5" y="-621.5" font-family="Helvetica,sans-Serif" font-size="10.00">+ apps_5v</text>
<text text-anchor="start" x="80.5" y="-610.5" font-family="Helvetica,sans-Serif" font-size="10.00">+ apps_3v3</text>
<text text-anchor="start" x="80.5" y="-599.5" font-family="Helvetica,sans-Serif" font-size="10.00">+ brake</text>
<text text-anchor="start" x="80.5" y="-588.5" font-family="Helvetica,sans-Serif" font-size="10.00">+ hall_sensor</text>
<polyline fill="none" stroke="#666666" points="72.5,-581.5 195.5,-581.5 "/>
<text text-anchor="start" x="80.5" y="-569.5" font-family="Helvetica,sans-Serif" font-size="10.00">+ toCanFrame()</text>
</a>
</g>
</g>
<!-- Node3&#45;&gt;Node2 -->
<g id="edge2" class="edge">
<title>Node3&#45;&gt;Node2</title>
<path fill="none" stroke="#404040" d="M193.05,-562.49C223.98,-539.44 261.6,-511.4 291.79,-488.91"/>
<polygon fill="none" stroke="#404040" points="292.1,-488.67 294.52,-481.88 301.72,-481.5 299.3,-488.3 292.1,-488.67"/>
<text text-anchor="middle" x="247.5" y="-536" font-family="Helvetica,sans-Serif" font-size="10.00"> +pedal</text>
</g>
<!-- Node4 -->
<g id="node4" class="node">
<title>Node4</title>
<g id="a_node4"><a xlink:href="unionTelemetryFramePedal_1_1StateByteStatus.html" target="_top" xlink:title="Union of bits for car status besides Pedal.">
<polygon fill="white" stroke="#666666" points="2.5,-700.5 2.5,-768.5 125.5,-768.5 125.5,-700.5 2.5,-700.5"/>
<text text-anchor="start" x="10.5" y="-756.5" font-family="Helvetica,sans-Serif" font-size="10.00">TelemetryFramePedal</text>
<text text-anchor="middle" x="64" y="-745.5" font-family="Helvetica,sans-Serif" font-size="10.00">::StateByteStatus</text>
<polyline fill="none" stroke="#666666" points="2.5,-738.5 125.5,-738.5 "/>
<text text-anchor="start" x="10.5" y="-726.5" font-family="Helvetica,sans-Serif" font-size="10.00">+ byte</text>
<polyline fill="none" stroke="#666666" points="2.5,-719.5 125.5,-719.5 "/>
<text text-anchor="middle" x="64" y="-707.5" font-family="Helvetica,sans-Serif" font-size="10.00"> </text>
</a>
</g>
</g>
<!-- Node4&#45;&gt;Node3 -->
<g id="edge3" class="edge">
<title>Node4&#45;&gt;Node3</title>
<path fill="none" stroke="#404040" d="M82.57,-700.33C88.97,-688.92 96.3,-675.81 103.4,-663.15"/>
<polygon fill="none" stroke="#404040" points="103.41,-663.13 102.85,-655.94 109.27,-652.66 109.83,-659.85 103.41,-663.13"/>
<text text-anchor="middle" x="120" y="-674" font-family="Helvetica,sans-Serif" font-size="10.00"> +status</text>
</g>
<!-- Node5 -->
<g id="node5" class="node">
<title>Node5</title>
<g id="a_node5"><a xlink:href="structTelemetryFramePedal_1_1StateByteStatus_1_1Bits.html" target="_top" xlink:title="Bitfield representation of the status bits.">
<polygon fill="white" stroke="#666666" points="0,-822 0,-956 126,-956 126,-822 0,-822"/>
<text text-anchor="start" x="8" y="-944" font-family="Helvetica,sans-Serif" font-size="10.00">TelemetryFramePedal</text>
<text text-anchor="middle" x="63" y="-933" font-family="Helvetica,sans-Serif" font-size="10.00">::StateByteStatus::Bits</text>
<polyline fill="none" stroke="#666666" points="0,-926 126,-926 "/>
<text text-anchor="start" x="8" y="-914" font-family="Helvetica,sans-Serif" font-size="10.00">+ car_status</text>
<text text-anchor="start" x="8" y="-903" font-family="Helvetica,sans-Serif" font-size="10.00">+ state_unknown</text>
<text text-anchor="start" x="8" y="-892" font-family="Helvetica,sans-Serif" font-size="10.00">+ hv_ready</text>
<text text-anchor="start" x="8" y="-881" font-family="Helvetica,sans-Serif" font-size="10.00">+ bms_no_msg</text>
<text text-anchor="start" x="8" y="-870" font-family="Helvetica,sans-Serif" font-size="10.00">+ motor_no_read</text>
<text text-anchor="start" x="8" y="-859" font-family="Helvetica,sans-Serif" font-size="10.00">+ screenshot</text>
<text text-anchor="start" x="8" y="-848" font-family="Helvetica,sans-Serif" font-size="10.00">+ force_stop</text>
<polyline fill="none" stroke="#666666" points="0,-841 126,-841 "/>
<text text-anchor="middle" x="63" y="-829" font-family="Helvetica,sans-Serif" font-size="10.00"> </text>
</a>
</g>
</g>
<!-- Node5&#45;&gt;Node4 -->
<g id="edge4" class="edge">
<title>Node5&#45;&gt;Node4</title>
<path fill="none" stroke="#404040" d="M63.43,-822C63.52,-808.23 63.62,-794.01 63.7,-781.18"/>
<polygon fill="none" stroke="#404040" points="63.7,-780.88 59.74,-774.85 63.78,-768.88 67.74,-774.9 63.7,-780.88"/>
<text text-anchor="middle" x="79" y="-790" font-family="Helvetica,sans-Serif" font-size="10.00"> +bits</text>
</g>
<!-- Node6 -->
<g id="node6" class="node">
<title>Node6</title>
<g id="a_node6"><a xlink:href="unionTelemetryFramePedal_1_1StateByteFaults.html" target="_top" xlink:title="Union of bits for pedal faults.">
<polygon fill="white" stroke="#666666" points="144.5,-700.5 144.5,-768.5 267.5,-768.5 267.5,-700.5 144.5,-700.5"/>
<text text-anchor="start" x="152.5" y="-756.5" font-family="Helvetica,sans-Serif" font-size="10.00">TelemetryFramePedal</text>
<text text-anchor="middle" x="206" y="-745.5" font-family="Helvetica,sans-Serif" font-size="10.00">::StateByteFaults</text>
<polyline fill="none" stroke="#666666" points="144.5,-738.5 267.5,-738.5 "/>
<text text-anchor="start" x="152.5" y="-726.5" font-family="Helvetica,sans-Serif" font-size="10.00">+ byte</text>
<polyline fill="none" stroke="#666666" points="144.5,-719.5 267.5,-719.5 "/>
<text text-anchor="middle" x="206" y="-707.5" font-family="Helvetica,sans-Serif" font-size="10.00"> </text>
</a>
</g>
</g>
<!-- Node6&#45;&gt;Node3 -->
<g id="edge5" class="edge">
<title>Node6&#45;&gt;Node3</title>
<path fill="none" stroke="#404040" d="M186.89,-700.33C180.32,-688.92 172.77,-675.81 165.48,-663.15"/>
<polygon fill="none" stroke="#404040" points="165.43,-663.06 158.96,-659.86 159.44,-652.66 165.9,-655.86 165.43,-663.06"/>
<text text-anchor="middle" x="195" y="-674" font-family="Helvetica,sans-Serif" font-size="10.00"> +faults</text>
</g>
<!-- Node7 -->
<g id="node7" class="node">
<title>Node7</title>
<g id="a_node7"><a xlink:href="structTelemetryFramePedal_1_1StateByteFaults_1_1Bits.html" target="_top" xlink:title="Bitfield representation of the fault bits.">
<polygon fill="white" stroke="#666666" points="144,-816.5 144,-961.5 268,-961.5 268,-816.5 144,-816.5"/>
<text text-anchor="start" x="152" y="-949.5" font-family="Helvetica,sans-Serif" font-size="10.00">TelemetryFramePedal</text>
<text text-anchor="middle" x="206" y="-938.5" font-family="Helvetica,sans-Serif" font-size="10.00">::StateByteFaults::Bits</text>
<polyline fill="none" stroke="#666666" points="144,-931.5 268,-931.5 "/>
<text text-anchor="start" x="152" y="-919.5" font-family="Helvetica,sans-Serif" font-size="10.00">+ fault_active</text>
<text text-anchor="start" x="152" y="-908.5" font-family="Helvetica,sans-Serif" font-size="10.00">+ fault_exceeded</text>
<text text-anchor="start" x="152" y="-897.5" font-family="Helvetica,sans-Serif" font-size="10.00">+ apps_5v_low</text>
<text text-anchor="start" x="152" y="-886.5" font-family="Helvetica,sans-Serif" font-size="10.00">+ apps_5v_high</text>
<text text-anchor="start" x="152" y="-875.5" font-family="Helvetica,sans-Serif" font-size="10.00">+ apps_3v3_low</text>
<text text-anchor="start" x="152" y="-864.5" font-family="Helvetica,sans-Serif" font-size="10.00">+ apps_3v3_high</text>
<text text-anchor="start" x="152" y="-853.5" font-family="Helvetica,sans-Serif" font-size="10.00">+ brake_low</text>
<text text-anchor="start" x="152" y="-842.5" font-family="Helvetica,sans-Serif" font-size="10.00">+ brake_high</text>
<polyline fill="none" stroke="#666666" points="144,-835.5 268,-835.5 "/>
<text text-anchor="middle" x="206" y="-823.5" font-family="Helvetica,sans-Serif" font-size="10.00"> </text>
</a>
</g>
</g>
<!-- Node7&#45;&gt;Node6 -->
<g id="edge6" class="edge">
<title>Node7&#45;&gt;Node6</title>
<path fill="none" stroke="#404040" d="M206,-816.22C206,-804.09 206,-791.82 206,-780.62"/>
<polygon fill="none" stroke="#404040" points="206,-780.51 202,-774.51 206,-768.51 210,-774.51 206,-780.51"/>
<text text-anchor="middle" x="221" y="-790" font-family="Helvetica,sans-Serif" font-size="10.00"> +bits</text>
</g>
<!-- Node8 -->
<g id="node8" class="node">
<title>Node8</title>
<g id="a_node8"><a xlink:href="structTelemetryFrameMotor.html" target="_top" xlink:title="Telemetry frame structure for motor signals.">
<polygon fill="white" stroke="#666666" points="213.5,-562.5 213.5,-652.5 338.5,-652.5 338.5,-562.5 213.5,-562.5"/>
<text text-anchor="middle" x="276" y="-640.5" font-family="Helvetica,sans-Serif" font-size="10.00">TelemetryFrameMotor</text>
<polyline fill="none" stroke="#666666" points="213.5,-633.5 338.5,-633.5 "/>
<text text-anchor="start" x="221.5" y="-621.5" font-family="Helvetica,sans-Serif" font-size="10.00">+ torque_val</text>
<text text-anchor="start" x="221.5" y="-610.5" font-family="Helvetica,sans-Serif" font-size="10.00">+ motor_rpm</text>
<text text-anchor="start" x="221.5" y="-599.5" font-family="Helvetica,sans-Serif" font-size="10.00">+ motor_error</text>
<text text-anchor="start" x="221.5" y="-588.5" font-family="Helvetica,sans-Serif" font-size="10.00">+ motor_warn</text>
<polyline fill="none" stroke="#666666" points="213.5,-581.5 338.5,-581.5 "/>
<text text-anchor="start" x="221.5" y="-569.5" font-family="Helvetica,sans-Serif" font-size="10.00">+ toCanFrame()</text>
</a>
</g>
</g>
<!-- Node8&#45;&gt;Node2 -->
<g id="edge7" class="edge">
<title>Node8&#45;&gt;Node2</title>
<path fill="none" stroke="#404040" d="M295.5,-562.49C305.1,-540.82 316.65,-514.74 326.28,-493"/>
<polygon fill="none" stroke="#404040" points="326.41,-492.73 325.18,-485.62 331.27,-481.75 332.49,-488.86 326.41,-492.73"/>
<text text-anchor="middle" x="327.5" y="-536" font-family="Helvetica,sans-Serif" font-size="10.00"> +motor</text>
</g>
<!-- Node9 -->
<g id="node9" class="node">
<title>Node9</title>
<g id="a_node9"><a xlink:href="structTelemetryFrameBms.html" target="_top" xlink:title="Telemetry frame structure for the BMS data.">
<polygon fill="white" stroke="#666666" points="357,-579 357,-636 475,-636 475,-579 357,-579"/>
<text text-anchor="middle" x="416" y="-624" font-family="Helvetica,sans-Serif" font-size="10.00">TelemetryFrameBms</text>
<polyline fill="none" stroke="#666666" points="357,-617 475,-617 "/>
<text text-anchor="start" x="365" y="-605" font-family="Helvetica,sans-Serif" font-size="10.00">+ bms_data</text>
<polyline fill="none" stroke="#666666" points="357,-598 475,-598 "/>
<text text-anchor="start" x="365" y="-586" font-family="Helvetica,sans-Serif" font-size="10.00">+ toCanFrame()</text>
</a>
</g>
</g>
<!-- Node9&#45;&gt;Node2 -->
<g id="edge8" class="edge">
<title>Node9&#45;&gt;Node2</title>
<path fill="none" stroke="#404040" d="M403.81,-578.98C393.27,-555.2 377.85,-520.4 365.59,-492.72"/>
<polygon fill="none" stroke="#404040" points="365.58,-492.7 359.5,-488.84 360.72,-481.73 366.81,-485.6 365.58,-492.7"/>
<text text-anchor="middle" x="404.5" y="-536" font-family="Helvetica,sans-Serif" font-size="10.00"> +bms</text>
</g>
<!-- Node10 -->
<g id="node10" class="node">
<title>Node10</title>
<g id="a_node10"><a xlink:href="classExponentialFilter.html" target="_top" xlink:title=" ">
<polygon fill="white" stroke="#666666" points="447,-402.5 447,-492.5 565,-492.5 565,-402.5 447,-402.5"/>
<text text-anchor="start" x="455" y="-480.5" font-family="Helvetica,sans-Serif" font-size="10.00">ExponentialFilter&lt;</text>
<text text-anchor="middle" x="506" y="-469.5" font-family="Helvetica,sans-Serif" font-size="10.00"> uint16_t, uint16_t &gt;</text>
<polyline fill="none" stroke="#666666" points="447,-462.5 565,-462.5 "/>
<text text-anchor="start" x="455" y="-450.5" font-family="Helvetica,sans-Serif" font-size="10.00">&#45; last_out</text>
<polyline fill="none" stroke="#666666" points="447,-443.5 565,-443.5 "/>
<text text-anchor="start" x="455" y="-431.5" font-family="Helvetica,sans-Serif" font-size="10.00">+ ExponentialFilter()</text>
<text text-anchor="start" x="455" y="-420.5" font-family="Helvetica,sans-Serif" font-size="10.00">+ addSample()</text>
<text text-anchor="start" x="455" y="-409.5" font-family="Helvetica,sans-Serif" font-size="10.00">+ getFiltered()</text>
</a>
</g>
</g>
<!-- Node10&#45;&gt;Node1 -->
<g id="edge9" class="edge">
<title>Node10&#45;&gt;Node1</title>
<path fill="none" stroke="#404040" d="M520.58,-402.46C527.93,-380.26 537.35,-351.79 547.16,-322.15"/>
<polygon fill="none" stroke="#404040" points="547.17,-322.13 545.26,-315.18 550.94,-310.74 552.85,-317.69 547.17,-322.13"/>
<text text-anchor="middle" x="575.5" y="-354" font-family="Helvetica,sans-Serif" font-size="10.00"> &#45;brake_filter</text>
<text text-anchor="middle" x="575.5" y="-343" font-family="Helvetica,sans-Serif" font-size="10.00">&#45;pedal1_filter</text>
<text text-anchor="middle" x="575.5" y="-332" font-family="Helvetica,sans-Serif" font-size="10.00">&#45;pedal2_filter</text>
</g>
<!-- Node11 -->
<g id="node11" class="node">
<title>Node11</title>
<g id="a_node11"><a xlink:href="classFilter.html" target="_top" xlink:title="Abstract Base Class for signal filters. Defines the interface for adding samples and retrieving filte...">
<polygon fill="white" stroke="#666666" points="493.5,-568 493.5,-647 596.5,-647 596.5,-568 493.5,-568"/>
<text text-anchor="start" x="501.5" y="-635" font-family="Helvetica,sans-Serif" font-size="10.00">Filter&lt; TypeInput,</text>
<text text-anchor="middle" x="545" y="-624" font-family="Helvetica,sans-Serif" font-size="10.00"> TypeMid &gt;</text>
<polyline fill="none" stroke="#666666" points="493.5,-617 596.5,-617 "/>
<text text-anchor="middle" x="545" y="-605" font-family="Helvetica,sans-Serif" font-size="10.00"> </text>
<polyline fill="none" stroke="#666666" points="493.5,-598 596.5,-598 "/>
<text text-anchor="start" x="501.5" y="-586" font-family="Helvetica,sans-Serif" font-size="10.00">+ addSample()</text>
<text text-anchor="start" x="501.5" y="-575" font-family="Helvetica,sans-Serif" font-size="10.00">+ getFiltered()</text>
</a>
</g>
</g>
<!-- Node11&#45;&gt;Node10 -->
<g id="edge10" class="edge">
<title>Node11&#45;&gt;Node10</title>
<path fill="none" stroke="#63b8ff" d="M533.01,-557.92C527.87,-537.09 521.9,-512.93 516.89,-492.61"/>
<polygon fill="none" stroke="#63b8ff" points="529.67,-558.98 535.46,-567.85 536.46,-557.3 529.67,-558.98"/>
</g>
<!-- Node12 -->
<g id="node12" class="node">
<title>Node12</title>
<g id="a_node12"><a xlink:href="classLinearInterp.html" target="_top" xlink:title=" ">
<polygon fill="white" stroke="#666666" points="583,-386 583,-509 711,-509 711,-386 583,-386"/>
<text text-anchor="start" x="591" y="-497" font-family="Helvetica,sans-Serif" font-size="10.00">LinearInterp&lt; uint16</text>
<text text-anchor="middle" x="647" y="-486" font-family="Helvetica,sans-Serif" font-size="10.00">_t, int16_t, int32_t, 5 &gt;</text>
<polyline fill="none" stroke="#666666" points="583,-479 711,-479 "/>
<text text-anchor="middle" x="647" y="-467" font-family="Helvetica,sans-Serif" font-size="10.00"> </text>
<polyline fill="none" stroke="#666666" points="583,-460 711,-460 "/>
<text text-anchor="start" x="591" y="-448" font-family="Helvetica,sans-Serif" font-size="10.00">+ LinearInterp()</text>
<text text-anchor="start" x="591" y="-437" font-family="Helvetica,sans-Serif" font-size="10.00">+ LinearInterp()</text>
<text text-anchor="start" x="591" y="-426" font-family="Helvetica,sans-Serif" font-size="10.00">+ interp()</text>
<text text-anchor="start" x="591" y="-415" font-family="Helvetica,sans-Serif" font-size="10.00">+ start()</text>
<text text-anchor="start" x="591" y="-404" font-family="Helvetica,sans-Serif" font-size="10.00">+ range()</text>
<text text-anchor="start" x="591" y="-393" font-family="Helvetica,sans-Serif" font-size="10.00">&#45; TablePoint()</text>
</a>
</g>
</g>
<!-- Node12&#45;&gt;Node1 -->
<g id="edge11" class="edge">
<title>Node12&#45;&gt;Node1</title>
<path fill="none" stroke="#404040" d="M637.57,-385.71C634.65,-366.91 631.29,-345.23 627.81,-322.85"/>
<polygon fill="none" stroke="#404040" points="627.77,-322.59 622.9,-317.27 625.93,-310.73 630.81,-316.05 627.77,-322.59"/>
<text text-anchor="middle" x="674" y="-348.5" font-family="Helvetica,sans-Serif" font-size="10.00"> &#45;BRAKE_MAP</text>
<text text-anchor="middle" x="674" y="-337.5" font-family="Helvetica,sans-Serif" font-size="10.00">&#45;THROTTLE_MAP</text>
</g>
<!-- Node13 -->
<g id="node13" class="node">
<title>Node13</title>
<g id="a_node13"><a xlink:href="classLinearInterp.html" target="_top" xlink:title=" ">
<polygon fill="white" stroke="#666666" points="729.5,-380.5 729.5,-514.5 846.5,-514.5 846.5,-380.5 729.5,-380.5"/>
<text text-anchor="start" x="737.5" y="-502.5" font-family="Helvetica,sans-Serif" font-size="10.00">LinearInterp&lt; uint16</text>
<text text-anchor="start" x="737.5" y="-491.5" font-family="Helvetica,sans-Serif" font-size="10.00">_t, uint16_t, uint32</text>
<text text-anchor="middle" x="788" y="-480.5" font-family="Helvetica,sans-Serif" font-size="10.00">_t, 3 &gt;</text>
<polyline fill="none" stroke="#666666" points="729.5,-473.5 846.5,-473.5 "/>
<text text-anchor="middle" x="788" y="-461.5" font-family="Helvetica,sans-Serif" font-size="10.00"> </text>
<polyline fill="none" stroke="#666666" points="729.5,-454.5 846.5,-454.5 "/>
<text text-anchor="start" x="737.5" y="-442.5" font-family="Helvetica,sans-Serif" font-size="10.00">+ LinearInterp()</text>
<text text-anchor="start" x="737.5" y="-431.5" font-family="Helvetica,sans-Serif" font-size="10.00">+ LinearInterp()</text>
<text text-anchor="start" x="737.5" y="-420.5" font-family="Helvetica,sans-Serif" font-size="10.00">+ interp()</text>
<text text-anchor="start" x="737.5" y="-409.5" font-family="Helvetica,sans-Serif" font-size="10.00">+ start()</text>
<text text-anchor="start" x="737.5" y="-398.5" font-family="Helvetica,sans-Serif" font-size="10.00">+ range()</text>
<text text-anchor="start" x="737.5" y="-387.5" font-family="Helvetica,sans-Serif" font-size="10.00">&#45; TablePoint()</text>
</a>
</g>
</g>
<!-- Node13&#45;&gt;Node1 -->
<g id="edge12" class="edge">
<title>Node13&#45;&gt;Node1</title>
<path fill="none" stroke="#404040" d="M750.24,-380.48C740.3,-363.57 729.42,-345.5 719,-329 705.57,-307.74 690.81,-285.31 676.43,-263.91"/>
<polygon fill="none" stroke="#404040" points="676.34,-263.78 669.67,-261.05 669.63,-253.83 676.3,-256.57 676.34,-263.78"/>
<text text-anchor="middle" x="797.5" y="-343" font-family="Helvetica,sans-Serif" font-size="10.00"> &#45;APPS_3V3_SCALE_MAP</text>
</g>
</g>
</svg>
