<?xml version="1.0" encoding="UTF-8" standalone="no"?>
<!DOCTYPE svg PUBLIC "-//W3C//DTD SVG 1.1//EN"
 "http://www.w3.org/Graphics/SVG/1.1/DTD/svg11.dtd">
<!-- Generated by graphviz version 2.43.0 (0)
 -->
<!-- Title: Pedal::initMotor Pages: 1 -->
<svg width="270pt" height="64pt"
 viewBox="0.00 0.00 270.00 64.00" xmlns="http://www.w3.org/2000/svg" xmlns:xlink="http://www.w3.org/1999/xlink">
<g id="graph0" class="graph" transform="scale(1 1) rotate(0) translate(4 60)">
<title>Pedal::initMotor</title>
<!-- Node1 -->
<g id="node1" class="node">
<title>Node1</title>
<g id="a_node1"><a xlink:title="Initializes the motor CAN communication by setting up cyclic reads for motor data and configuring CAN...">
<polygon fill="#999999" stroke="#666666" points="94,-37 0,-37 0,-18 94,-18 94,-37"/>
<text text-anchor="middle" x="47" y="-25" font-family="Helvetica,sans-Serif" font-size="10.00">Pedal::initMotor</text>
</a>
</g>
</g>
<!-- Node2 -->
<g id="node2" class="node">
<title>Node2</title>
<g id="a_node2"><a xlink:href="classPedal.html#a2ef64ef89c257cc2840425c662f7ad14" target="_top" xlink:title=" ">
<polygon fill="white" stroke="#666666" points="262,-56 130,-56 130,-37 262,-37 262,-56"/>
<text text-anchor="middle" x="196" y="-44" font-family="Helvetica,sans-Serif" font-size="10.00">Pedal::checkCyclicRead</text>
</a>
</g>
</g>
<!-- Node1&#45;&gt;Node2 -->
<g id="edge1" class="edge">
<title>Node1&#45;&gt;Node2</title>
<path fill="none" stroke="#63b8ff" d="M94.11,-33.46C102.37,-34.53 111.16,-35.66 119.99,-36.8"/>
<polygon fill="#63b8ff" stroke="#63b8ff" points="119.57,-40.28 129.94,-38.09 120.47,-33.34 119.57,-40.28"/>
</g>
<!-- Node3 -->
<g id="node3" class="node">
<title>Node3</title>
<g id="a_node3"><a xlink:href="classPedal.html#aec7ba639c6b2e3596d3ae1d14d3572ea" target="_top" xlink:title="Sends a cyclic read request to the motor controller for speed (rpm).">
<polygon fill="white" stroke="#666666" points="259.5,-19 132.5,-19 132.5,0 259.5,0 259.5,-19"/>
<text text-anchor="middle" x="196" y="-7" font-family="Helvetica,sans-Serif" font-size="10.00">Pedal::sendCyclicRead</text>
</a>
</g>
</g>
<!-- Node1&#45;&gt;Node3 -->
<g id="edge2" class="edge">
<title>Node1&#45;&gt;Node3</title>
<path fill="none" stroke="#63b8ff" d="M94.11,-21.85C103.11,-20.75 112.75,-19.57 122.36,-18.39"/>
<polygon fill="#63b8ff" stroke="#63b8ff" points="122.85,-21.86 132.35,-17.17 122,-14.91 122.85,-21.86"/>
</g>
</g>
</svg>
