<?xml version="1.0" encoding="UTF-8" standalone="no"?>
<!DOCTYPE svg PUBLIC "-//W3C//DTD SVG 1.1//EN"
 "http://www.w3.org/Graphics/SVG/1.1/DTD/svg11.dtd">
<!-- Generated by graphviz version 2.43.0 (0)
 -->
<!-- Title: Pedal::checkCyclicRead Pages: 1 -->
<svg width="350pt" height="27pt"
 viewBox="0.00 0.00 350.00 27.00" xmlns="http://www.w3.org/2000/svg" xmlns:xlink="http://www.w3.org/1999/xlink">
<g id="graph0" class="graph" transform="scale(1 1) rotate(0) translate(4 23)">
<title>Pedal::checkCyclicRead</title>
<!-- Node1 -->
<g id="node1" class="node">
<title>Node1</title>
<g id="a_node1"><a xlink:title=" ">
<polygon fill="#999999" stroke="#666666" points="342,-19 210,-19 210,0 342,0 342,-19"/>
<text text-anchor="middle" x="276" y="-7" font-family="Helvetica,sans-Serif" font-size="10.00">Pedal::checkCyclicRead</text>
</a>
</g>
</g>
<!-- Node2 -->
<g id="node2" class="node">
<title>Node2</title>
<g id="a_node2"><a xlink:href="classPedal.html#a2b2dd6f7471c0d84b312fab22ad2d0a6" target="_top" xlink:title="Initializes the motor CAN communication by setting up cyclic reads for motor data and configuring CAN...">
<polygon fill="white" stroke="#666666" points="174,-19 80,-19 80,0 174,0 174,-19"/>
<text text-anchor="middle" x="127" y="-7" font-family="Helvetica,sans-Serif" font-size="10.00">Pedal::initMotor</text>
</a>
</g>
</g>
<!-- Node1&#45;&gt;Node2 -->
<g id="edge1" class="edge">
<title>Node1&#45;&gt;Node2</title>
<path fill="none" stroke="#63b8ff" d="M199.53,-9.5C190.89,-9.5 182.29,-9.5 174.19,-9.5"/>
<polygon fill="#63b8ff" stroke="#63b8ff" points="199.67,-13 209.67,-9.5 199.67,-6 199.67,-13"/>
</g>
<!-- Node3 -->
<g id="node3" class="node">
<title>Node3</title>
<g id="a_node3"><a xlink:href="main_8cpp.html#a4fc01d736fe50cf5b977f755b675f11d" target="_top" xlink:title="Setup function for initializing the VCU system. Initializes MCP2515s, IO pins, as well as own modules...">
<polygon fill="white" stroke="#666666" points="44,-19 0,-19 0,0 44,0 44,-19"/>
<text text-anchor="middle" x="22" y="-7" font-family="Helvetica,sans-Serif" font-size="10.00">setup</text>
</a>
</g>
</g>
<!-- Node2&#45;&gt;Node3 -->
<g id="edge2" class="edge">
<title>Node2&#45;&gt;Node3</title>
<path fill="none" stroke="#63b8ff" d="M69.9,-9.5C60.68,-9.5 51.66,-9.5 44.04,-9.5"/>
<polygon fill="#63b8ff" stroke="#63b8ff" points="69.92,-13 79.92,-9.5 69.92,-6 69.92,-13"/>
</g>
</g>
</svg>
