<?xml version="1.0" encoding="UTF-8" standalone="no"?>
<!DOCTYPE svg PUBLIC "-//W3C//DTD SVG 1.1//EN"
 "http://www.w3.org/Graphics/SVG/1.1/DTD/svg11.dtd">
<!-- Generated by graphviz version 2.43.0 (0)
 -->
<!-- Title: Pedal::readMotor Pages: 1 -->
<svg width="341pt" height="27pt"
 viewBox="0.00 0.00 341.00 27.00" xmlns="http://www.w3.org/2000/svg" xmlns:xlink="http://www.w3.org/1999/xlink">
<g id="graph0" class="graph" transform="scale(1 1) rotate(0) translate(4 23)">
<title>Pedal::readMotor</title>
<!-- Node1 -->
<g id="node1" class="node">
<title>Node1</title>
<g id="a_node1"><a xlink:title="Reads motor data from the CAN bus and updates the CarState.">
<polygon fill="#999999" stroke="#666666" points="333,-19 233,-19 233,0 333,0 333,-19"/>
<text text-anchor="middle" x="283" y="-7" font-family="Helvetica,sans-Serif" font-size="10.00">Pedal::readMotor</text>
</a>
</g>
</g>
<!-- Node2 -->
<g id="node2" class="node">
<title>Node2</title>
<g id="a_node2"><a xlink:href="main_8cpp.html#a4849579a51ba5515a1140dda7c80ed61" target="_top" xlink:title=" ">
<polygon fill="white" stroke="#666666" points="197,-19 80,-19 80,0 197,0 197,-19"/>
<text text-anchor="middle" x="138.5" y="-7" font-family="Helvetica,sans-Serif" font-size="10.00">schedulerMotorRead</text>
</a>
</g>
</g>
<!-- Node1&#45;&gt;Node2 -->
<g id="edge1" class="edge">
<title>Node1&#45;&gt;Node2</title>
<path fill="none" stroke="#63b8ff" d="M222.87,-9.5C214.47,-9.5 205.84,-9.5 197.47,-9.5"/>
<polygon fill="#63b8ff" stroke="#63b8ff" points="222.96,-13 232.96,-9.5 222.96,-6 222.96,-13"/>
</g>
<!-- Node3 -->
<g id="node3" class="node">
<title>Node3</title>
<g id="a_node3"><a xlink:href="main_8cpp.html#a4fc01d736fe50cf5b977f755b675f11d" target="_top" xlink:title="Setup function for initializing the VCU system. Initializes MCP2515s, IO pins, as well as own modules...">
<polygon fill="white" stroke="#666666" points="44,-19 0,-19 0,0 44,0 44,-19"/>
<text text-anchor="middle" x="22" y="-7" font-family="Helvetica,sans-Serif" font-size="10.00">setup</text>
</a>
</g>
</g>
<!-- Node2&#45;&gt;Node3 -->
<g id="edge2" class="edge">
<title>Node2&#45;&gt;Node3</title>
<path fill="none" stroke="#63b8ff" d="M69.76,-9.5C60.5,-9.5 51.61,-9.5 44.12,-9.5"/>
<polygon fill="#63b8ff" stroke="#63b8ff" points="69.91,-13 79.91,-9.5 69.91,-6 69.91,-13"/>
</g>
</g>
</svg>
