<?xml version="1.0" encoding="UTF-8" standalone="no"?>
<!DOCTYPE svg PUBLIC "-//W3C//DTD SVG 1.1//EN"
 "http://www.w3.org/Graphics/SVG/1.1/DTD/svg11.dtd">
<!-- Generated by graphviz version 2.43.0 (0)
 -->
<!-- Title: vehicle_control_unit/lib/Debug/Debug.hpp Pages: 1 -->
<svg width="291pt" height="203pt"
 viewBox="0.00 0.00 291.00 203.00" xmlns="http://www.w3.org/2000/svg" xmlns:xlink="http://www.w3.org/1999/xlink">
<g id="graph0" class="graph" transform="scale(1 1) rotate(0) translate(4 199)">
<title>vehicle_control_unit/lib/Debug/Debug.hpp</title>
<!-- Node1 -->
<g id="node1" class="node">
<title>Node1</title>
<g id="a_node1"><a xlink:title="Debugging macros and functions for serial and CAN output.">
<polygon fill="#999999" stroke="#666666" points="177.5,-195 55.5,-195 55.5,-165 177.5,-165 177.5,-195"/>
<text text-anchor="start" x="63.5" y="-183" font-family="Helvetica,sans-Serif" font-size="10.00">vehicle_control_unit</text>
<text text-anchor="middle" x="116.5" y="-172" font-family="Helvetica,sans-Serif" font-size="10.00">/lib/Debug/Debug.hpp</text>
</a>
</g>
</g>
<!-- Node2 -->
<g id="node2" class="node">
<title>Node2</title>
<g id="a_node2"><a xlink:href="Enums_8hpp.html" target="_top" xlink:title="Enumeration definitions for the VCU.">
<polygon fill="white" stroke="#666666" points="186,-74 115,-74 115,-55 186,-55 186,-74"/>
<text text-anchor="middle" x="150.5" y="-62" font-family="Helvetica,sans-Serif" font-size="10.00">Enums.hpp</text>
</a>
</g>
</g>
<!-- Node1&#45;&gt;Node2 -->
<g id="edge1" class="edge">
<title>Node1&#45;&gt;Node2</title>
<path fill="none" stroke="#63b8ff" d="M122.08,-164.69C125.84,-154.76 130.78,-141.18 134.5,-129 139.07,-114.03 143.35,-96.8 146.33,-84.06"/>
<polygon fill="#63b8ff" stroke="#63b8ff" points="149.77,-84.73 148.59,-74.2 142.95,-83.17 149.77,-84.73"/>
</g>
<!-- Node5 -->
<g id="node5" class="node">
<title>Node5</title>
<g id="a_node5"><a xlink:title=" ">
<polygon fill="#e0e0e0" stroke="#999999" points="71,-74 0,-74 0,-55 71,-55 71,-74"/>
<text text-anchor="middle" x="35.5" y="-62" font-family="Helvetica,sans-Serif" font-size="10.00">mcp2515.h</text>
</a>
</g>
</g>
<!-- Node1&#45;&gt;Node5 -->
<g id="edge4" class="edge">
<title>Node1&#45;&gt;Node5</title>
<path fill="none" stroke="#63b8ff" d="M69.38,-164.89C52.15,-157.2 34.44,-145.72 24.5,-129 16.3,-115.21 20.74,-96.93 26.23,-83.53"/>
<polygon fill="#63b8ff" stroke="#63b8ff" points="29.44,-84.94 30.45,-74.39 23.08,-82.01 29.44,-84.94"/>
</g>
<!-- Node6 -->
<g id="node6" class="node">
<title>Node6</title>
<g id="a_node6"><a xlink:href="Debug__serial_8hpp.html" target="_top" xlink:title="Declaration of the Debug_Serial namespace for serial debugging functions.">
<polygon fill="white" stroke="#666666" points="283,-129 182,-129 182,-110 283,-110 283,-129"/>
<text text-anchor="middle" x="232.5" y="-117" font-family="Helvetica,sans-Serif" font-size="10.00">Debug_serial.hpp</text>
</a>
</g>
</g>
<!-- Node1&#45;&gt;Node6 -->
<g id="edge5" class="edge">
<title>Node1&#45;&gt;Node6</title>
<path fill="none" stroke="#63b8ff" d="M144.28,-164.99C163.12,-155.49 187.85,-143.02 206.34,-133.69"/>
<polygon fill="#63b8ff" stroke="#63b8ff" points="208.02,-136.77 215.37,-129.14 204.86,-130.52 208.02,-136.77"/>
</g>
<!-- Node8 -->
<g id="node8" class="node">
<title>Node8</title>
<g id="a_node8"><a xlink:href="Debug__can_8hpp.html" target="_top" xlink:title="Declaration of the Debug_CAN namespace for CAN debugging functions.">
<polygon fill="white" stroke="#666666" points="125.5,-129 33.5,-129 33.5,-110 125.5,-110 125.5,-129"/>
<text text-anchor="middle" x="79.5" y="-117" font-family="Helvetica,sans-Serif" font-size="10.00">Debug_can.hpp</text>
</a>
</g>
</g>
<!-- Node1&#45;&gt;Node8 -->
<g id="edge8" class="edge">
<title>Node1&#45;&gt;Node8</title>
<path fill="none" stroke="#63b8ff" d="M107.54,-164.84C102.39,-156.69 95.88,-146.4 90.43,-137.78"/>
<polygon fill="#63b8ff" stroke="#63b8ff" points="93.35,-135.85 85.04,-129.27 87.43,-139.59 93.35,-135.85"/>
</g>
<!-- Node3 -->
<g id="node3" class="node">
<title>Node3</title>
<g id="a_node3"><a xlink:title=" ">
<polygon fill="#e0e0e0" stroke="#999999" points="144,-19 91,-19 91,0 144,0 144,-19"/>
<text text-anchor="middle" x="117.5" y="-7" font-family="Helvetica,sans-Serif" font-size="10.00">stdint.h</text>
</a>
</g>
</g>
<!-- Node2&#45;&gt;Node3 -->
<g id="edge2" class="edge">
<title>Node2&#45;&gt;Node3</title>
<path fill="none" stroke="#63b8ff" d="M145.05,-54.75C140.49,-47.42 133.83,-36.73 128.21,-27.7"/>
<polygon fill="#63b8ff" stroke="#63b8ff" points="131.1,-25.73 122.85,-19.09 125.16,-29.43 131.1,-25.73"/>
</g>
<!-- Node4 -->
<g id="node4" class="node">
<title>Node4</title>
<g id="a_node4"><a xlink:title=" ">
<polygon fill="#e0e0e0" stroke="#999999" points="205,-19 162,-19 162,0 205,0 205,-19"/>
<text text-anchor="middle" x="183.5" y="-7" font-family="Helvetica,sans-Serif" font-size="10.00">can.h</text>
</a>
</g>
</g>
<!-- Node2&#45;&gt;Node4 -->
<g id="edge3" class="edge">
<title>Node2&#45;&gt;Node4</title>
<path fill="none" stroke="#63b8ff" d="M155.95,-54.75C160.51,-47.42 167.17,-36.73 172.79,-27.7"/>
<polygon fill="#63b8ff" stroke="#63b8ff" points="175.84,-29.43 178.15,-19.09 169.9,-25.73 175.84,-29.43"/>
</g>
<!-- Node6&#45;&gt;Node2 -->
<g id="edge7" class="edge">
<title>Node6&#45;&gt;Node2</title>
<path fill="none" stroke="#63b8ff" d="M219.33,-109.98C206.73,-101.84 187.5,-89.41 172.56,-79.76"/>
<polygon fill="#63b8ff" stroke="#63b8ff" points="174.21,-76.66 163.91,-74.17 170.41,-82.54 174.21,-76.66"/>
</g>
<!-- Node7 -->
<g id="node7" class="node">
<title>Node7</title>
<g id="a_node7"><a xlink:title=" ">
<polygon fill="#e0e0e0" stroke="#999999" points="267,-74 204,-74 204,-55 267,-55 267,-74"/>
<text text-anchor="middle" x="235.5" y="-62" font-family="Helvetica,sans-Serif" font-size="10.00">Arduino.h</text>
</a>
</g>
</g>
<!-- Node6&#45;&gt;Node7 -->
<g id="edge6" class="edge">
<title>Node6&#45;&gt;Node7</title>
<path fill="none" stroke="#63b8ff" d="M233,-109.75C233.39,-102.8 233.95,-92.85 234.45,-84.13"/>
<polygon fill="#63b8ff" stroke="#63b8ff" points="237.94,-84.27 235.01,-74.09 230.95,-83.88 237.94,-84.27"/>
</g>
<!-- Node8&#45;&gt;Node2 -->
<g id="edge10" class="edge">
<title>Node8&#45;&gt;Node2</title>
<path fill="none" stroke="#63b8ff" d="M90.91,-109.98C101.61,-102 117.84,-89.88 130.66,-80.31"/>
<polygon fill="#63b8ff" stroke="#63b8ff" points="132.97,-82.96 138.89,-74.17 128.78,-77.35 132.97,-82.96"/>
</g>
<!-- Node8&#45;&gt;Node5 -->
<g id="edge9" class="edge">
<title>Node8&#45;&gt;Node5</title>
<path fill="none" stroke="#63b8ff" d="M72.23,-109.75C65.96,-102.18 56.71,-91.05 49.07,-81.84"/>
<polygon fill="#63b8ff" stroke="#63b8ff" points="51.71,-79.55 42.63,-74.09 46.33,-84.02 51.71,-79.55"/>
</g>
</g>
</svg>
