<?xml version="1.0" encoding="UTF-8" standalone="no"?>
<!DOCTYPE svg PUBLIC "-//W3C//DTD SVG 1.1//EN"
 "http://www.w3.org/Graphics/SVG/1.1/DTD/svg11.dtd">
<!-- Generated by graphviz version 2.43.0 (0)
 -->
<!-- Title: vehicle_control_unit/include/Enums.hpp Pages: 1 -->
<svg width="1309pt" height="236pt"
 viewBox="0.00 0.00 1309.00 236.00" xmlns="http://www.w3.org/2000/svg" xmlns:xlink="http://www.w3.org/1999/xlink">
<g id="graph0" class="graph" transform="scale(1 1) rotate(0) translate(4 232)">
<title>vehicle_control_unit/include/Enums.hpp</title>
<!-- Node1 -->
<g id="node1" class="node">
<title>Node1</title>
<g id="a_node1"><a xlink:title="Enumeration definitions for the VCU.">
<polygon fill="#999999" stroke="#666666" points="815,-228 700,-228 700,-198 815,-198 815,-228"/>
<text text-anchor="start" x="708" y="-216" font-family="Helvetica,sans-Serif" font-size="10.00">vehicle_control_unit</text>
<text text-anchor="middle" x="757.5" y="-205" font-family="Helvetica,sans-Serif" font-size="10.00">/include/Enums.hpp</text>
</a>
</g>
</g>
<!-- Node2 -->
<g id="node2" class="node">
<title>Node2</title>
<g id="a_node2"><a xlink:href="CarState_8hpp.html" target="_top" xlink:title="Definition of the CarState structure representing the state of the car.">
<polygon fill="white" stroke="#666666" points="445,-162 324,-162 324,-132 445,-132 445,-162"/>
<text text-anchor="start" x="332" y="-150" font-family="Helvetica,sans-Serif" font-size="10.00">vehicle_control_unit</text>
<text text-anchor="middle" x="384.5" y="-139" font-family="Helvetica,sans-Serif" font-size="10.00">/include/CarState.hpp</text>
</a>
</g>
</g>
<!-- Node1&#45;&gt;Node2 -->
<g id="edge1" class="edge">
<title>Node1&#45;&gt;Node2</title>
<path fill="none" stroke="#63b8ff" d="M689.62,-200.35C619.89,-188.39 512.33,-169.93 445.3,-158.43"/>
<polygon fill="#63b8ff" stroke="#63b8ff" points="689.18,-203.83 699.63,-202.07 690.36,-196.93 689.18,-203.83"/>
</g>
<!-- Node3 -->
<g id="node3" class="node">
<title>Node3</title>
<g id="a_node3"><a xlink:href="BMS_8cpp.html" target="_top" xlink:title="Implementation of the BMS class for managing the Accumulator (Kclear BMS) via CAN bus.">
<polygon fill="white" stroke="#666666" points="115,-30 0,-30 0,0 115,0 115,-30"/>
<text text-anchor="start" x="8" y="-18" font-family="Helvetica,sans-Serif" font-size="10.00">vehicle_control_unit</text>
<text text-anchor="middle" x="57.5" y="-7" font-family="Helvetica,sans-Serif" font-size="10.00">/lib/BMS/BMS.cpp</text>
</a>
</g>
</g>
<!-- Node1&#45;&gt;Node3 -->
<g id="edge14" class="edge">
<title>Node1&#45;&gt;Node3</title>
<path fill="none" stroke="#63b8ff" d="M689.53,-211C587.57,-208.3 389.46,-198.35 225.5,-162 140.27,-143.1 90.8,-167.35 40.5,-96 26.51,-76.16 38.79,-47.13 48.5,-30.04"/>
<polygon fill="#63b8ff" stroke="#63b8ff" points="689.61,-214.5 699.7,-211.25 689.79,-207.51 689.61,-214.5"/>
</g>
<!-- Node5 -->
<g id="node5" class="node">
<title>Node5</title>
<g id="a_node5"><a xlink:href="main_8cpp.html" target="_top" xlink:title="Main VCU program entry point.">
<polygon fill="white" stroke="#666666" points="528,-30 413,-30 413,0 528,0 528,-30"/>
<text text-anchor="start" x="421" y="-18" font-family="Helvetica,sans-Serif" font-size="10.00">vehicle_control_unit</text>
<text text-anchor="middle" x="470.5" y="-7" font-family="Helvetica,sans-Serif" font-size="10.00">/src/main.cpp</text>
</a>
</g>
</g>
<!-- Node1&#45;&gt;Node5 -->
<g id="edge30" class="edge">
<title>Node1&#45;&gt;Node5</title>
<path fill="none" stroke="#63b8ff" d="M723.05,-192.76C707.18,-183.7 688.21,-172.58 671.5,-162 627.75,-134.3 617.37,-126.46 575.5,-96 557.82,-83.13 553.88,-79.27 536.5,-66 520.62,-53.88 502.52,-40.18 489.3,-30.19"/>
<polygon fill="#63b8ff" stroke="#63b8ff" points="721.56,-195.94 731.99,-197.84 725.02,-189.86 721.56,-195.94"/>
</g>
<!-- Node10 -->
<g id="node10" class="node">
<title>Node10</title>
<g id="a_node10"><a xlink:href="Debug_8hpp.html" target="_top" xlink:title="Debugging macros and functions for serial and CAN output.">
<polygon fill="white" stroke="#666666" points="184.5,-96 62.5,-96 62.5,-66 184.5,-66 184.5,-96"/>
<text text-anchor="start" x="70.5" y="-84" font-family="Helvetica,sans-Serif" font-size="10.00">vehicle_control_unit</text>
<text text-anchor="middle" x="123.5" y="-73" font-family="Helvetica,sans-Serif" font-size="10.00">/lib/Debug/Debug.hpp</text>
</a>
</g>
</g>
<!-- Node1&#45;&gt;Node10 -->
<g id="edge15" class="edge">
<title>Node1&#45;&gt;Node10</title>
<path fill="none" stroke="#63b8ff" d="M689.81,-210.31C601.97,-206.77 444.55,-195.83 314.5,-162 253.44,-146.11 186.33,-114.41 150.17,-96.04"/>
<polygon fill="#63b8ff" stroke="#63b8ff" points="689.79,-213.81 699.91,-210.7 690.05,-206.82 689.79,-213.81"/>
</g>
<!-- Node11 -->
<g id="node11" class="node">
<title>Node11</title>
<g id="a_node11"><a xlink:href="Debug__can_8hpp.html" target="_top" xlink:title="Declaration of the Debug_CAN namespace for CAN debugging functions.">
<polygon fill="white" stroke="#666666" points="1034.5,-162 890.5,-162 890.5,-132 1034.5,-132 1034.5,-162"/>
<text text-anchor="start" x="898.5" y="-150" font-family="Helvetica,sans-Serif" font-size="10.00">vehicle_control_unit</text>
<text text-anchor="middle" x="962.5" y="-139" font-family="Helvetica,sans-Serif" font-size="10.00">/lib/Debug/Debug_can.hpp</text>
</a>
</g>
</g>
<!-- Node1&#45;&gt;Node11 -->
<g id="edge19" class="edge">
<title>Node1&#45;&gt;Node11</title>
<path fill="none" stroke="#63b8ff" d="M812.41,-194.86C845.33,-184.58 886.66,-171.68 917.62,-162.01"/>
<polygon fill="#63b8ff" stroke="#63b8ff" points="810.99,-191.63 802.49,-197.95 813.08,-198.32 810.99,-191.63"/>
</g>
<!-- Node13 -->
<g id="node13" class="node">
<title>Node13</title>
<g id="a_node13"><a xlink:href="Debug__serial_8cpp.html" target="_top" xlink:title="Implementation of the Debug_Serial namespace for serial debugging functions.">
<polygon fill="white" stroke="#666666" points="1301,-96 1148,-96 1148,-66 1301,-66 1301,-96"/>
<text text-anchor="start" x="1156" y="-84" font-family="Helvetica,sans-Serif" font-size="10.00">vehicle_control_unit</text>
<text text-anchor="middle" x="1224.5" y="-73" font-family="Helvetica,sans-Serif" font-size="10.00">/lib/Debug/Debug_serial.cpp</text>
</a>
</g>
</g>
<!-- Node1&#45;&gt;Node13 -->
<g id="edge21" class="edge">
<title>Node1&#45;&gt;Node13</title>
<path fill="none" stroke="#63b8ff" d="M825.52,-209.2C946.36,-203.55 1188.42,-188.99 1215.5,-162 1232.72,-144.83 1230.69,-114.04 1227.62,-96.08"/>
<polygon fill="#63b8ff" stroke="#63b8ff" points="825.1,-205.71 815.27,-209.67 825.42,-212.71 825.1,-205.71"/>
</g>
<!-- Node14 -->
<g id="node14" class="node">
<title>Node14</title>
<g id="a_node14"><a xlink:href="Debug__serial_8hpp.html" target="_top" xlink:title="Declaration of the Debug_Serial namespace for serial debugging functions.">
<polygon fill="white" stroke="#666666" points="1206.5,-162 1052.5,-162 1052.5,-132 1206.5,-132 1206.5,-162"/>
<text text-anchor="start" x="1060.5" y="-150" font-family="Helvetica,sans-Serif" font-size="10.00">vehicle_control_unit</text>
<text text-anchor="middle" x="1129.5" y="-139" font-family="Helvetica,sans-Serif" font-size="10.00">/lib/Debug/Debug_serial.hpp</text>
</a>
</g>
</g>
<!-- Node1&#45;&gt;Node14 -->
<g id="edge22" class="edge">
<title>Node1&#45;&gt;Node14</title>
<path fill="none" stroke="#63b8ff" d="M825.21,-200.35C889.24,-189.33 985.25,-172.82 1052.24,-161.29"/>
<polygon fill="#63b8ff" stroke="#63b8ff" points="824.48,-196.93 815.22,-202.07 825.67,-203.82 824.48,-196.93"/>
</g>
<!-- Node15 -->
<g id="node15" class="node">
<title>Node15</title>
<g id="a_node15"><a xlink:href="Scheduler_8hpp.html" target="_top" xlink:title="Declaration of the Scheduler class template, for scheduling tasks on multiple MCP2515 instances.">
<polygon fill="white" stroke="#666666" points="834.5,-162 680.5,-162 680.5,-132 834.5,-132 834.5,-162"/>
<text text-anchor="start" x="688.5" y="-150" font-family="Helvetica,sans-Serif" font-size="10.00">vehicle_control_unit</text>
<text text-anchor="middle" x="757.5" y="-139" font-family="Helvetica,sans-Serif" font-size="10.00">/lib/Scheduler/Scheduler.hpp</text>
</a>
</g>
</g>
<!-- Node1&#45;&gt;Node15 -->
<g id="edge24" class="edge">
<title>Node1&#45;&gt;Node15</title>
<path fill="none" stroke="#63b8ff" d="M757.5,-187.54C757.5,-178.96 757.5,-169.61 757.5,-162.16"/>
<polygon fill="#63b8ff" stroke="#63b8ff" points="754,-187.8 757.5,-197.8 761,-187.8 754,-187.8"/>
</g>
<!-- Node16 -->
<g id="node16" class="node">
<title>Node16</title>
<g id="a_node16"><a xlink:href="Scheduler_8tpp.html" target="_top" xlink:title="Implementation of the Scheduler class template.">
<polygon fill="white" stroke="#666666" points="948.5,-96 796.5,-96 796.5,-66 948.5,-66 948.5,-96"/>
<text text-anchor="start" x="804.5" y="-84" font-family="Helvetica,sans-Serif" font-size="10.00">vehicle_control_unit</text>
<text text-anchor="middle" x="872.5" y="-73" font-family="Helvetica,sans-Serif" font-size="10.00">/lib/Scheduler/Scheduler.tpp</text>
</a>
</g>
</g>
<!-- Node1&#45;&gt;Node16 -->
<g id="edge29" class="edge">
<title>Node1&#45;&gt;Node16</title>
<path fill="none" stroke="#63b8ff" d="M802.7,-193.35C817.33,-185.48 832.59,-175.06 843.5,-162 859.7,-142.61 867.19,-113.43 870.39,-96.19"/>
<polygon fill="#63b8ff" stroke="#63b8ff" points="801.03,-190.27 793.71,-197.92 804.21,-196.5 801.03,-190.27"/>
</g>
<!-- Node2&#45;&gt;Node3 -->
<g id="edge2" class="edge">
<title>Node2&#45;&gt;Node3</title>
<path fill="none" stroke="#63b8ff" d="M313.6,-145.67C226.54,-143.59 86.36,-134.19 53.5,-96 37.81,-77.76 45.15,-47.64 51.56,-30.02"/>
<polygon fill="#63b8ff" stroke="#63b8ff" points="313.61,-149.17 323.68,-145.89 313.76,-142.17 313.61,-149.17"/>
</g>
<!-- Node4 -->
<g id="node4" class="node">
<title>Node4</title>
<g id="a_node4"><a xlink:href="BMS_8hpp.html" target="_top" xlink:title="Declaration of the BMS class for managing the Accumulator (Kclear BMS) via CAN bus.">
<polygon fill="white" stroke="#666666" points="528,-96 413,-96 413,-66 528,-66 528,-96"/>
<text text-anchor="start" x="421" y="-84" font-family="Helvetica,sans-Serif" font-size="10.00">vehicle_control_unit</text>
<text text-anchor="middle" x="470.5" y="-73" font-family="Helvetica,sans-Serif" font-size="10.00">/lib/BMS/BMS.hpp</text>
</a>
</g>
</g>
<!-- Node2&#45;&gt;Node4 -->
<g id="edge3" class="edge">
<title>Node2&#45;&gt;Node4</title>
<path fill="none" stroke="#63b8ff" d="M411.71,-125.75C424.64,-116.13 439.79,-104.86 451.47,-96.16"/>
<polygon fill="#63b8ff" stroke="#63b8ff" points="409.52,-123.02 403.59,-131.8 413.7,-128.63 409.52,-123.02"/>
</g>
<!-- Node2&#45;&gt;Node5 -->
<g id="edge13" class="edge">
<title>Node2&#45;&gt;Node5</title>
<path fill="none" stroke="#63b8ff" d="M385.93,-121.7C387.91,-104.89 392.57,-82.64 403.5,-66 413.38,-50.96 429.41,-38.76 443.31,-30.18"/>
<polygon fill="#63b8ff" stroke="#63b8ff" points="382.43,-121.56 384.98,-131.85 389.4,-122.22 382.43,-121.56"/>
</g>
<!-- Node6 -->
<g id="node6" class="node">
<title>Node6</title>
<g id="a_node6"><a xlink:href="Pedal_8cpp.html" target="_top" xlink:title="Implementation of the Pedal class for handling throttle pedal inputs.">
<polygon fill="white" stroke="#666666" points="270,-30 155,-30 155,0 270,0 270,-30"/>
<text text-anchor="start" x="163" y="-18" font-family="Helvetica,sans-Serif" font-size="10.00">vehicle_control_unit</text>
<text text-anchor="middle" x="212.5" y="-7" font-family="Helvetica,sans-Serif" font-size="10.00">/lib/Pedal/Pedal.cpp</text>
</a>
</g>
</g>
<!-- Node2&#45;&gt;Node6 -->
<g id="edge6" class="edge">
<title>Node2&#45;&gt;Node6</title>
<path fill="none" stroke="#63b8ff" d="M314.09,-138.25C284.81,-131.54 252.76,-119.09 231.5,-96 214.77,-77.83 211.98,-47.68 211.92,-30.05"/>
<polygon fill="#63b8ff" stroke="#63b8ff" points="313.39,-141.68 323.9,-140.31 314.83,-134.83 313.39,-141.68"/>
</g>
<!-- Node7 -->
<g id="node7" class="node">
<title>Node7</title>
<g id="a_node7"><a xlink:href="Pedal_8hpp.html" target="_top" xlink:title="Declaration of the Pedal class for handling throttle and brake pedal inputs.">
<polygon fill="white" stroke="#666666" points="356,-96 241,-96 241,-66 356,-66 356,-96"/>
<text text-anchor="start" x="249" y="-84" font-family="Helvetica,sans-Serif" font-size="10.00">vehicle_control_unit</text>
<text text-anchor="middle" x="298.5" y="-73" font-family="Helvetica,sans-Serif" font-size="10.00">/lib/Pedal/Pedal.hpp</text>
</a>
</g>
</g>
<!-- Node2&#45;&gt;Node7 -->
<g id="edge7" class="edge">
<title>Node2&#45;&gt;Node7</title>
<path fill="none" stroke="#63b8ff" d="M357.29,-125.75C344.36,-116.13 329.21,-104.86 317.53,-96.16"/>
<polygon fill="#63b8ff" stroke="#63b8ff" points="355.3,-128.63 365.41,-131.8 359.48,-123.02 355.3,-128.63"/>
</g>
<!-- Node8 -->
<g id="node8" class="node">
<title>Node8</title>
<g id="a_node8"><a xlink:href="Telemetry_8hpp.html" target="_top" xlink:title="Declaration of the Telemetry class for sending telemetry data over CAN bus.">
<polygon fill="white" stroke="#666666" points="740,-96 585,-96 585,-66 740,-66 740,-96"/>
<text text-anchor="start" x="593" y="-84" font-family="Helvetica,sans-Serif" font-size="10.00">vehicle_control_unit</text>
<text text-anchor="middle" x="662.5" y="-73" font-family="Helvetica,sans-Serif" font-size="10.00">/lib/Telemetry/Telemetry.hpp</text>
</a>
</g>
</g>
<!-- Node2&#45;&gt;Node8 -->
<g id="edge10" class="edge">
<title>Node2&#45;&gt;Node8</title>
<path fill="none" stroke="#63b8ff" d="M455.18,-129.73C500.35,-119.33 558.33,-105.98 601.49,-96.05"/>
<polygon fill="#63b8ff" stroke="#63b8ff" points="454.12,-126.38 445.16,-132.03 455.7,-133.2 454.12,-126.38"/>
</g>
<!-- Node4&#45;&gt;Node3 -->
<g id="edge4" class="edge">
<title>Node4&#45;&gt;Node3</title>
<path fill="none" stroke="#63b8ff" d="M402.72,-69.68C336.97,-59.64 234.37,-43.91 145.5,-30 135.72,-28.47 125.33,-26.83 115.24,-25.23"/>
<polygon fill="#63b8ff" stroke="#63b8ff" points="402.54,-73.19 412.95,-71.24 403.6,-66.27 402.54,-73.19"/>
</g>
<!-- Node4&#45;&gt;Node5 -->
<g id="edge5" class="edge">
<title>Node4&#45;&gt;Node5</title>
<path fill="none" stroke="#63b8ff" d="M470.5,-55.54C470.5,-46.96 470.5,-37.61 470.5,-30.16"/>
<polygon fill="#63b8ff" stroke="#63b8ff" points="467,-55.8 470.5,-65.8 474,-55.8 467,-55.8"/>
</g>
<!-- Node7&#45;&gt;Node5 -->
<g id="edge9" class="edge">
<title>Node7&#45;&gt;Node5</title>
<path fill="none" stroke="#63b8ff" d="M345.65,-62.46C373.09,-52.25 407.21,-39.55 432.84,-30.01"/>
<polygon fill="#63b8ff" stroke="#63b8ff" points="344.4,-59.19 336.25,-65.95 346.84,-65.75 344.4,-59.19"/>
</g>
<!-- Node7&#45;&gt;Node6 -->
<g id="edge8" class="edge">
<title>Node7&#45;&gt;Node6</title>
<path fill="none" stroke="#63b8ff" d="M271.29,-59.75C258.36,-50.13 243.21,-38.86 231.53,-30.16"/>
<polygon fill="#63b8ff" stroke="#63b8ff" points="269.3,-62.63 279.41,-65.8 273.48,-57.02 269.3,-62.63"/>
</g>
<!-- Node8&#45;&gt;Node5 -->
<g id="edge12" class="edge">
<title>Node8&#45;&gt;Node5</title>
<path fill="none" stroke="#63b8ff" d="M610.67,-62.72C579.91,-52.47 541.4,-39.63 512.54,-30.01"/>
<polygon fill="#63b8ff" stroke="#63b8ff" points="609.77,-66.11 620.36,-65.95 611.98,-59.47 609.77,-66.11"/>
</g>
<!-- Node9 -->
<g id="node9" class="node">
<title>Node9</title>
<g id="a_node9"><a xlink:href="Telemetry_8cpp.html" target="_top" xlink:title="Implementation of the Telemetry class for sending telemetry data over CAN bus.">
<polygon fill="white" stroke="#666666" points="739.5,-30 585.5,-30 585.5,0 739.5,0 739.5,-30"/>
<text text-anchor="start" x="593.5" y="-18" font-family="Helvetica,sans-Serif" font-size="10.00">vehicle_control_unit</text>
<text text-anchor="middle" x="662.5" y="-7" font-family="Helvetica,sans-Serif" font-size="10.00">/lib/Telemetry/Telemetry.cpp</text>
</a>
</g>
</g>
<!-- Node8&#45;&gt;Node9 -->
<g id="edge11" class="edge">
<title>Node8&#45;&gt;Node9</title>
<path fill="none" stroke="#63b8ff" d="M662.5,-55.54C662.5,-46.96 662.5,-37.61 662.5,-30.16"/>
<polygon fill="#63b8ff" stroke="#63b8ff" points="659,-55.8 662.5,-65.8 666,-55.8 659,-55.8"/>
</g>
<!-- Node10&#45;&gt;Node3 -->
<g id="edge16" class="edge">
<title>Node10&#45;&gt;Node3</title>
<path fill="none" stroke="#63b8ff" d="M101.48,-58.65C91.81,-49.27 80.73,-38.53 72.11,-30.16"/>
<polygon fill="#63b8ff" stroke="#63b8ff" points="99.24,-61.35 108.85,-65.8 104.11,-56.32 99.24,-61.35"/>
</g>
<!-- Node10&#45;&gt;Node5 -->
<g id="edge18" class="edge">
<title>Node10&#45;&gt;Node5</title>
<path fill="none" stroke="#63b8ff" d="M194.82,-66.85C259.26,-54.96 352.91,-37.69 412.76,-26.65"/>
<polygon fill="#63b8ff" stroke="#63b8ff" points="193.94,-63.45 184.74,-68.71 195.21,-70.33 193.94,-63.45"/>
</g>
<!-- Node10&#45;&gt;Node6 -->
<g id="edge17" class="edge">
<title>Node10&#45;&gt;Node6</title>
<path fill="none" stroke="#63b8ff" d="M151.66,-59.75C165.04,-50.13 180.72,-38.86 192.8,-30.16"/>
<polygon fill="#63b8ff" stroke="#63b8ff" points="149.33,-57.12 143.25,-65.8 153.41,-62.8 149.33,-57.12"/>
</g>
<!-- Node12 -->
<g id="node12" class="node">
<title>Node12</title>
<g id="a_node12"><a xlink:href="Debug__can_8cpp.html" target="_top" xlink:title="Implementation of the Debug_CAN namespace for CAN debugging functions.">
<polygon fill="white" stroke="#666666" points="1110,-96 967,-96 967,-66 1110,-66 1110,-96"/>
<text text-anchor="start" x="975" y="-84" font-family="Helvetica,sans-Serif" font-size="10.00">vehicle_control_unit</text>
<text text-anchor="middle" x="1038.5" y="-73" font-family="Helvetica,sans-Serif" font-size="10.00">/lib/Debug/Debug_can.cpp</text>
</a>
</g>
</g>
<!-- Node11&#45;&gt;Node12 -->
<g id="edge20" class="edge">
<title>Node11&#45;&gt;Node12</title>
<path fill="none" stroke="#63b8ff" d="M987.2,-125.2C998.48,-115.7 1011.55,-104.69 1021.68,-96.16"/>
<polygon fill="#63b8ff" stroke="#63b8ff" points="984.76,-122.68 979.37,-131.8 989.27,-128.03 984.76,-122.68"/>
</g>
<!-- Node14&#45;&gt;Node13 -->
<g id="edge23" class="edge">
<title>Node14&#45;&gt;Node13</title>
<path fill="none" stroke="#63b8ff" d="M1159.15,-126.03C1173.52,-116.34 1190.45,-104.94 1203.48,-96.16"/>
<polygon fill="#63b8ff" stroke="#63b8ff" points="1156.92,-123.31 1150.58,-131.8 1160.83,-129.11 1156.92,-123.31"/>
</g>
<!-- Node15&#45;&gt;Node4 -->
<g id="edge25" class="edge">
<title>Node15&#45;&gt;Node4</title>
<path fill="none" stroke="#63b8ff" d="M684.72,-129.77C636.28,-118.97 573.51,-104.97 528.45,-94.92"/>
<polygon fill="#63b8ff" stroke="#63b8ff" points="683.99,-133.19 694.52,-131.95 685.52,-126.36 683.99,-133.19"/>
</g>
<!-- Node15&#45;&gt;Node5 -->
<g id="edge28" class="edge">
<title>Node15&#45;&gt;Node5</title>
<path fill="none" stroke="#63b8ff" d="M761.76,-121.63C763.37,-103.93 762.18,-80.62 748.5,-66 740.98,-57.97 607.33,-36.62 528.12,-24.57"/>
<polygon fill="#63b8ff" stroke="#63b8ff" points="758.26,-121.43 760.49,-131.79 765.2,-122.31 758.26,-121.43"/>
</g>
<!-- Node15&#45;&gt;Node16 -->
<g id="edge26" class="edge">
<title>Node15&#45;&gt;Node16</title>
<path fill="none" stroke="#63b8ff" d="M785.94,-126.69C802.87,-116.82 824.28,-105.01 841.63,-96.01"/>
<polygon fill="#63b8ff" stroke="#63b8ff" points="783.86,-123.85 777.04,-131.95 787.43,-129.88 783.86,-123.85"/>
</g>
<!-- Node16&#45;&gt;Node15 -->
<g id="edge27" class="edge">
<title>Node16&#45;&gt;Node15</title>
<path fill="none" stroke="#63b8ff" d="M844.13,-101.27C827.2,-111.14 805.8,-122.95 788.44,-131.95"/>
<polygon fill="#63b8ff" stroke="#63b8ff" points="846.19,-104.11 853.02,-96.01 842.63,-98.09 846.19,-104.11"/>
</g>
</g>
</svg>
