<?xml version="1.0" encoding="UTF-8" standalone="no"?>
<!DOCTYPE svg PUBLIC "-//W3C//DTD SVG 1.1//EN"
 "http://www.w3.org/Graphics/SVG/1.1/DTD/svg11.dtd">
<!-- Generated by graphviz version 2.43.0 (0)
 -->
<!-- Title: setup Pages: 1 -->
<!--zoomable 584 -->
<svg id="main" version="1.1" xmlns="http://www.w3.org/2000/svg" xmlns:xlink="http://www.w3.org/1999/xlink" xml:space="preserve" onload="init(evt)">
<style type="text/css"><![CDATA[
.edge:hover path { stroke: red; }
.edge:hover polygon { stroke: red; fill: red; }
]]></style>
<script type="text/javascript"><![CDATA[
var edges = document.getElementsByTagName('g');
if (edges && edges.length) {
  for (var i=0;i<edges.length;i++) {
    if (edges[i].id.substr(0,4)=='edge') {
      edges[i].setAttribute('class','edge');
    }
  }
}
]]></script>
        <defs>
                <circle id="rim" cx="0" cy="0" r="7"/>
                <circle id="rim2" cx="0" cy="0" r="3.5"/>
                <g id="zoomPlus">
                        <use xlink:href="#rim" fill="#404040">
                                <set attributeName="fill" to="#808080" begin="zoomplus.mouseover" end="zoomplus.mouseout"/>
                        </use>
                        <path d="M-4,0h8M0,-4v8" fill="none" stroke="white" stroke-width="1.5" pointer-events="none"/>
                </g>
                <g id="zoomMin">
                        <use xlink:href="#rim" fill="#404040">
                                <set attributeName="fill" to="#808080" begin="zoomminus.mouseover" end="zoomminus.mouseout"/>
                        </use>
                        <path d="M-4,0h8" fill="none" stroke="white" stroke-width="1.5" pointer-events="none"/>
                </g>
                <g id="dirArrow">
                        <path fill="none" stroke="white" stroke-width="1.5" d="M0,-3.0v7 M-2.5,-0.5L0,-3.0L2.5,-0.5"/>
                </g>
               <g id="resetDef">
                       <use xlink:href="#rim2" fill="#404040">
                               <set attributeName="fill" to="#808080" begin="reset.mouseover" end="reset.mouseout"/>
                       </use>
               </g>
        </defs>

<script type="text/javascript">
var viewWidth = 730;
var viewHeight = 584;
var sectionId = 'dynsection-16';
</script>
<script xlink:href="svgpan.js"/>
<svg id="graph" class="graph">
<g id="viewport">
<title>setup</title>
<!-- Node1 -->
<g id="node1" class="node">
<title>Node1</title>
<g id="a_node1"><a xlink:title="Setup function for initializing the VCU system. Initializes MCP2515s, IO pins, as well as own modules...">
<polygon fill="#999999" stroke="#666666" points="44,-353.5 0,-353.5 0,-334.5 44,-334.5 44,-353.5"/>
<text text-anchor="middle" x="22" y="-341.5" font-family="Helvetica,sans-Serif" font-size="10.00">setup</text>
</a>
</g>
</g>
<!-- Node2 -->
<g id="node2" class="node">
<title>Node2</title>
<g id="a_node2"><a xlink:href="Debug_8hpp.html#a8e8d6e3de15309922f25c12f4d7cf727" target="_top" xlink:title="Prints a line to the serial console for general debug.">
<polygon fill="white" stroke="#666666" points="201.5,-575.5 99.5,-575.5 99.5,-556.5 201.5,-556.5 201.5,-575.5"/>
<text text-anchor="middle" x="150.5" y="-563.5" font-family="Helvetica,sans-Serif" font-size="10.00">DBGLN_GENERAL</text>
</a>
</g>
</g>
<!-- Node1&#45;&gt;Node2 -->
<g id="edge1" class="edge">
<title>Node1&#45;&gt;Node2</title>
<path fill="none" stroke="#63b8ff" d="M22.58,-353.76C21.72,-386.38 23.56,-492.63 80,-548 83.05,-551 86.54,-553.51 90.28,-555.62"/>
<polygon fill="#63b8ff" stroke="#63b8ff" points="88.86,-558.82 99.4,-559.85 91.8,-552.47 88.86,-558.82"/>
</g>
<!-- Node4 -->
<g id="node4" class="node">
<title>Node4</title>
<g id="a_node4"><a xlink:href="classBMS.html#a7f3900dba6bfdb1c57ea40fa3abec998" target="_top" xlink:title="Initializes the CAN filters for reading BMS data. Call after constructing the BMS object and the MCP2...">
<polygon fill="white" stroke="#666666" points="193,-538.5 108,-538.5 108,-519.5 193,-519.5 193,-538.5"/>
<text text-anchor="middle" x="150.5" y="-526.5" font-family="Helvetica,sans-Serif" font-size="10.00">BMS::initFilter</text>
</a>
</g>
</g>
<!-- Node1&#45;&gt;Node4 -->
<g id="edge3" class="edge">
<title>Node1&#45;&gt;Node4</title>
<path fill="none" stroke="#63b8ff" d="M23.27,-353.59C24.61,-382.1 32.6,-467.05 80,-511 85.16,-515.78 91.42,-519.33 98.05,-521.96"/>
<polygon fill="#63b8ff" stroke="#63b8ff" points="97.34,-525.41 107.93,-525.18 99.51,-518.75 97.34,-525.41"/>
</g>
<!-- Node5 -->
<g id="node5" class="node">
<title>Node5</title>
<g id="a_node5"><a xlink:href="classPedal.html#a581705d03a96b7d66407e0b23f941775" target="_top" xlink:title="Initializes the CAN filters for reading motor data. Call after constructing the Pedal object and the ...">
<polygon fill="white" stroke="#666666" points="195.5,-501.5 105.5,-501.5 105.5,-482.5 195.5,-482.5 195.5,-501.5"/>
<text text-anchor="middle" x="150.5" y="-489.5" font-family="Helvetica,sans-Serif" font-size="10.00">Pedal::initFilter</text>
</a>
</g>
</g>
<!-- Node1&#45;&gt;Node5 -->
<g id="edge4" class="edge">
<title>Node1&#45;&gt;Node5</title>
<path fill="none" stroke="#63b8ff" d="M24.31,-353.52C28.12,-377.59 41.54,-441.24 80,-474 84.62,-477.93 90,-481.02 95.67,-483.45"/>
<polygon fill="#63b8ff" stroke="#63b8ff" points="94.84,-486.87 105.43,-486.93 97.19,-480.27 94.84,-486.87"/>
</g>
<!-- Node6 -->
<g id="node6" class="node">
<title>Node6</title>
<g id="a_node6"><a xlink:href="namespaceDebug__Serial.html#ad136936636c7b7140cb1e14c55eb5f31" target="_top" xlink:title="Initializes the Debug_Serial interface. It should be called before using any other Debug_Serial funct...">
<polygon fill="white" stroke="#666666" points="215,-464.5 86,-464.5 86,-445.5 215,-445.5 215,-464.5"/>
<text text-anchor="middle" x="150.5" y="-452.5" font-family="Helvetica,sans-Serif" font-size="10.00">Debug_Serial::initialize</text>
</a>
</g>
</g>
<!-- Node1&#45;&gt;Node6 -->
<g id="edge5" class="edge">
<title>Node1&#45;&gt;Node6</title>
<path fill="none" stroke="#63b8ff" d="M26.11,-353.58C32.78,-372.57 50.32,-415.03 80,-437 81.87,-438.39 83.84,-439.67 85.88,-440.85"/>
<polygon fill="#63b8ff" stroke="#63b8ff" points="84.71,-444.17 95.23,-445.42 87.79,-437.88 84.71,-444.17"/>
</g>
<!-- Node7 -->
<g id="node7" class="node">
<title>Node7</title>
<g id="a_node7"><a xlink:href="namespaceDebug__CAN.html#a5c8b33000e36a19ccb285e45f666e64e" target="_top" xlink:title="Initializes the Debug_CAN interface. It should be called before using any other Debug_CAN functions.">
<polygon fill="white" stroke="#666666" points="211.5,-427.5 89.5,-427.5 89.5,-408.5 211.5,-408.5 211.5,-427.5"/>
<text text-anchor="middle" x="150.5" y="-415.5" font-family="Helvetica,sans-Serif" font-size="10.00">Debug_CAN::initialize</text>
</a>
</g>
</g>
<!-- Node1&#45;&gt;Node7 -->
<g id="edge6" class="edge">
<title>Node1&#45;&gt;Node7</title>
<path fill="none" stroke="#63b8ff" d="M30.33,-353.9C40.21,-366.51 58.99,-388.11 80,-400 83.08,-401.74 86.32,-403.32 89.67,-404.74"/>
<polygon fill="#63b8ff" stroke="#63b8ff" points="88.69,-408.12 99.28,-408.38 91.16,-401.57 88.69,-408.12"/>
</g>
<!-- Node8 -->
<g id="node8" class="node">
<title>Node8</title>
<g id="a_node8"><a xlink:href="classPedal.html#a2b2dd6f7471c0d84b312fab22ad2d0a6" target="_top" xlink:title="Initializes the motor CAN communication by setting up cyclic reads for motor data and configuring CAN...">
<polygon fill="white" stroke="#666666" points="197.5,-390.5 103.5,-390.5 103.5,-371.5 197.5,-371.5 197.5,-390.5"/>
<text text-anchor="middle" x="150.5" y="-378.5" font-family="Helvetica,sans-Serif" font-size="10.00">Pedal::initMotor</text>
</a>
</g>
</g>
<!-- Node1&#45;&gt;Node8 -->
<g id="edge7" class="edge">
<title>Node1&#45;&gt;Node8</title>
<path fill="none" stroke="#63b8ff" d="M44.01,-351.38C54.72,-355.05 68,-359.45 80,-363 86.67,-364.97 93.72,-366.94 100.69,-368.81"/>
<polygon fill="#63b8ff" stroke="#63b8ff" points="100.21,-372.3 110.77,-371.47 102,-365.53 100.21,-372.3"/>
</g>
<!-- Node11 -->
<g id="node11" class="node">
<title>Node11</title>
<g id="a_node11"><a xlink:href="main_8cpp.html#a95581c94a7dc4a68f61fa24f06cc90d1" target="_top" xlink:title=" ">
<polygon fill="white" stroke="#666666" points="190.5,-353.5 110.5,-353.5 110.5,-334.5 190.5,-334.5 190.5,-353.5"/>
<text text-anchor="middle" x="150.5" y="-341.5" font-family="Helvetica,sans-Serif" font-size="10.00">mcp2515_DL</text>
</a>
</g>
</g>
<!-- Node1&#45;&gt;Node11 -->
<g id="edge10" class="edge">
<title>Node1&#45;&gt;Node11</title>
<path fill="none" stroke="#63b8ff" d="M44.17,-344C59.44,-344 80.68,-344 100.1,-344"/>
<polygon fill="#63b8ff" stroke="#63b8ff" points="100.34,-347.5 110.34,-344 100.34,-340.5 100.34,-347.5"/>
</g>
<!-- Node12 -->
<g id="node12" class="node">
<title>Node12</title>
<g id="a_node12"><a xlink:href="main_8cpp.html#a22decc8e5af13f6021fb6ad2aaa765be" target="_top" xlink:title=" ">
<polygon fill="white" stroke="#666666" points="689,-268.5 645,-268.5 645,-249.5 689,-249.5 689,-268.5"/>
<text text-anchor="middle" x="667" y="-256.5" font-family="Helvetica,sans-Serif" font-size="10.00">pedal</text>
</a>
</g>
</g>
<!-- Node1&#45;&gt;Node12 -->
<g id="edge11" class="edge">
<title>Node1&#45;&gt;Node12</title>
<path fill="none" stroke="#63b8ff" d="M44.11,-336.2C54.74,-332.57 67.91,-328.5 80,-326 297,-281.07 356.54,-305.75 576,-275 595.65,-272.25 617.58,-268.37 634.87,-265.12"/>
<polygon fill="#63b8ff" stroke="#63b8ff" points="635.81,-268.5 644.98,-263.19 634.5,-261.62 635.81,-268.5"/>
</g>
<!-- Node13 -->
<g id="node13" class="node">
<title>Node13</title>
<g id="a_node13"><a xlink:href="main_8cpp.html#a4849579a51ba5515a1140dda7c80ed61" target="_top" xlink:title=" ">
<polygon fill="white" stroke="#666666" points="209,-277.5 92,-277.5 92,-258.5 209,-258.5 209,-277.5"/>
<text text-anchor="middle" x="150.5" y="-265.5" font-family="Helvetica,sans-Serif" font-size="10.00">schedulerMotorRead</text>
</a>
</g>
</g>
<!-- Node1&#45;&gt;Node13 -->
<g id="edge12" class="edge">
<title>Node1&#45;&gt;Node13</title>
<path fill="none" stroke="#63b8ff" d="M31.35,-334.28C41.71,-322.74 60.42,-303.63 80,-292 87.18,-287.74 95.23,-284.08 103.23,-281.01"/>
<polygon fill="#63b8ff" stroke="#63b8ff" points="104.67,-284.21 112.91,-277.54 102.31,-277.62 104.67,-284.21"/>
</g>
<!-- Node15 -->
<g id="node15" class="node">
<title>Node15</title>
<g id="a_node15"><a xlink:href="main_8cpp.html#a35850a25a9bfe403bb5f5d4c4796ad41" target="_top" xlink:title=" ">
<polygon fill="white" stroke="#666666" points="208,-211.5 93,-211.5 93,-192.5 208,-192.5 208,-211.5"/>
<text text-anchor="middle" x="150.5" y="-199.5" font-family="Helvetica,sans-Serif" font-size="10.00">schedulerPedalSend</text>
</a>
</g>
</g>
<!-- Node1&#45;&gt;Node15 -->
<g id="edge15" class="edge">
<title>Node1&#45;&gt;Node15</title>
<path fill="none" stroke="#63b8ff" d="M27.19,-334.31C35.37,-316.21 54.87,-276.67 80,-250 92.37,-236.87 108.91,-225.27 122.75,-216.77"/>
<polygon fill="#63b8ff" stroke="#63b8ff" points="124.57,-219.76 131.38,-211.64 120.99,-213.74 124.57,-219.76"/>
</g>
<!-- Node21 -->
<g id="node21" class="node">
<title>Node21</title>
<g id="a_node21"><a xlink:href="main_8cpp.html#a6ce4f6f8e1e47dc50c24b0240f7390c4" target="_top" xlink:title=" ">
<polygon fill="white" stroke="#666666" points="217.5,-152.5 83.5,-152.5 83.5,-133.5 217.5,-133.5 217.5,-152.5"/>
<text text-anchor="middle" x="150.5" y="-140.5" font-family="Helvetica,sans-Serif" font-size="10.00">schedulerTelemetryBms</text>
</a>
</g>
</g>
<!-- Node1&#45;&gt;Node21 -->
<g id="edge23" class="edge">
<title>Node1&#45;&gt;Node21</title>
<path fill="none" stroke="#63b8ff" d="M24.14,-334.22C27.73,-307.36 40.96,-231.3 80,-184 89.38,-172.64 102.79,-163.69 115.32,-157.09"/>
<polygon fill="#63b8ff" stroke="#63b8ff" points="117.23,-160.05 124.66,-152.5 114.14,-153.77 117.23,-160.05"/>
</g>
<!-- Node24 -->
<g id="node24" class="node">
<title>Node24</title>
<g id="a_node24"><a xlink:href="main_8cpp.html#af749f68ca5ebf490db3de9a27bf7bfc6" target="_top" xlink:title=" ">
<polygon fill="white" stroke="#666666" points="221,-115.5 80,-115.5 80,-96.5 221,-96.5 221,-115.5"/>
<text text-anchor="middle" x="150.5" y="-103.5" font-family="Helvetica,sans-Serif" font-size="10.00">schedulerTelemetryMotor</text>
</a>
</g>
</g>
<!-- Node1&#45;&gt;Node24 -->
<g id="edge26" class="edge">
<title>Node1&#45;&gt;Node24</title>
<path fill="none" stroke="#63b8ff" d="M24.23,-334.31C29.27,-296.02 49.56,-155.81 80,-125 81.42,-123.57 82.93,-122.24 84.53,-121"/>
<polygon fill="#63b8ff" stroke="#63b8ff" points="86.47,-123.91 93.07,-115.62 82.75,-117.99 86.47,-123.91"/>
</g>
<!-- Node27 -->
<g id="node27" class="node">
<title>Node27</title>
<g id="a_node27"><a xlink:href="main_8cpp.html#a2e1609fa80a6555982d945314147b005" target="_top" xlink:title=" ">
<polygon fill="white" stroke="#666666" points="220.5,-78.5 80.5,-78.5 80.5,-59.5 220.5,-59.5 220.5,-78.5"/>
<text text-anchor="middle" x="150.5" y="-66.5" font-family="Helvetica,sans-Serif" font-size="10.00">schedulerTelemetryPedal</text>
</a>
</g>
</g>
<!-- Node1&#45;&gt;Node27 -->
<g id="edge29" class="edge">
<title>Node1&#45;&gt;Node27</title>
<path fill="none" stroke="#63b8ff" d="M23.83,-334.45C27.64,-292.48 44.89,-124.83 80,-88 81.25,-86.69 82.57,-85.47 83.97,-84.33"/>
<polygon fill="#63b8ff" stroke="#63b8ff" points="86.16,-87.08 92.6,-78.66 82.32,-81.23 86.16,-87.08"/>
</g>
<!-- Node3 -->
<g id="node3" class="node">
<title>Node3</title>
<g id="a_node3"><a xlink:href="namespaceDebug__Serial.html#a756fa9286151426012a6f8e178a6c550" target="_top" xlink:title="Prints a string AND a newline to the serial console.">
<polygon fill="white" stroke="#666666" points="382.5,-575.5 263.5,-575.5 263.5,-556.5 382.5,-556.5 382.5,-575.5"/>
<text text-anchor="middle" x="323" y="-563.5" font-family="Helvetica,sans-Serif" font-size="10.00">Debug_Serial::println</text>
</a>
</g>
</g>
<!-- Node2&#45;&gt;Node3 -->
<g id="edge2" class="edge">
<title>Node2&#45;&gt;Node3</title>
<path fill="none" stroke="#63b8ff" d="M201.73,-566C217.91,-566 236.12,-566 253.39,-566"/>
<polygon fill="#63b8ff" stroke="#63b8ff" points="253.42,-569.5 263.42,-566 253.42,-562.5 253.42,-569.5"/>
</g>
<!-- Node9 -->
<g id="node9" class="node">
<title>Node9</title>
<g id="a_node9"><a xlink:href="classPedal.html#a2ef64ef89c257cc2840425c662f7ad14" target="_top" xlink:title=" ">
<polygon fill="white" stroke="#666666" points="389,-418.5 257,-418.5 257,-399.5 389,-399.5 389,-418.5"/>
<text text-anchor="middle" x="323" y="-406.5" font-family="Helvetica,sans-Serif" font-size="10.00">Pedal::checkCyclicRead</text>
</a>
</g>
</g>
<!-- Node8&#45;&gt;Node9 -->
<g id="edge8" class="edge">
<title>Node8&#45;&gt;Node9</title>
<path fill="none" stroke="#63b8ff" d="M197.64,-388.58C214.94,-391.42 234.99,-394.71 253.87,-397.81"/>
<polygon fill="#63b8ff" stroke="#63b8ff" points="253.48,-401.29 263.92,-399.46 254.62,-394.39 253.48,-401.29"/>
</g>
<!-- Node10 -->
<g id="node10" class="node">
<title>Node10</title>
<g id="a_node10"><a xlink:href="classPedal.html#aec7ba639c6b2e3596d3ae1d14d3572ea" target="_top" xlink:title="Sends a cyclic read request to the motor controller for speed (rpm).">
<polygon fill="white" stroke="#666666" points="386.5,-381.5 259.5,-381.5 259.5,-362.5 386.5,-362.5 386.5,-381.5"/>
<text text-anchor="middle" x="323" y="-369.5" font-family="Helvetica,sans-Serif" font-size="10.00">Pedal::sendCyclicRead</text>
</a>
</g>
</g>
<!-- Node8&#45;&gt;Node10 -->
<g id="edge9" class="edge">
<title>Node8&#45;&gt;Node10</title>
<path fill="none" stroke="#63b8ff" d="M197.64,-378.56C213.55,-377.72 231.78,-376.76 249.29,-375.84"/>
<polygon fill="#63b8ff" stroke="#63b8ff" points="249.69,-379.32 259.5,-375.3 249.33,-372.33 249.69,-379.32"/>
</g>
<!-- Node13&#45;&gt;Node12 -->
<g id="edge13" class="edge">
<title>Node13&#45;&gt;Node12</title>
<path fill="none" stroke="#63b8ff" d="M209.02,-266.99C317.8,-265.09 550.28,-261.02 634.61,-259.55"/>
<polygon fill="#63b8ff" stroke="#63b8ff" points="634.89,-263.04 644.83,-259.37 634.77,-256.05 634.89,-263.04"/>
</g>
<!-- Node14 -->
<g id="node14" class="node">
<title>Node14</title>
<g id="a_node14"><a xlink:href="classPedal.html#aa66167fb494c00db7b8a0b8140e85973" target="_top" xlink:title="Reads motor data from the CAN bus and updates the CarState.">
<polygon fill="white" stroke="#666666" points="373,-249.5 273,-249.5 273,-230.5 373,-230.5 373,-249.5"/>
<text text-anchor="middle" x="323" y="-237.5" font-family="Helvetica,sans-Serif" font-size="10.00">Pedal::readMotor</text>
</a>
</g>
</g>
<!-- Node13&#45;&gt;Node14 -->
<g id="edge14" class="edge">
<title>Node13&#45;&gt;Node14</title>
<path fill="none" stroke="#63b8ff" d="M209.22,-258.52C226.51,-255.68 245.48,-252.57 262.85,-249.71"/>
<polygon fill="#63b8ff" stroke="#63b8ff" points="263.57,-253.14 272.87,-248.07 262.44,-246.24 263.57,-253.14"/>
</g>
<!-- Node15&#45;&gt;Node12 -->
<g id="edge16" class="edge">
<title>Node15&#45;&gt;Node12</title>
<path fill="none" stroke="#63b8ff" d="M208.2,-205.99C256.36,-209.57 327.3,-215.29 389,-222 478.38,-231.73 583.51,-246.76 634.75,-254.32"/>
<polygon fill="#63b8ff" stroke="#63b8ff" points="634.44,-257.81 644.84,-255.82 635.47,-250.89 634.44,-257.81"/>
</g>
<!-- Node16 -->
<g id="node16" class="node">
<title>Node16</title>
<g id="a_node16"><a xlink:href="classPedal.html#a1027941444ce0b3f32ab8991e05c2015" target="_top" xlink:title="Sends the appropriate CAN frame to the motor based on pedal and car state.">
<polygon fill="white" stroke="#666666" points="375,-173.5 271,-173.5 271,-154.5 375,-154.5 375,-173.5"/>
<text text-anchor="middle" x="323" y="-161.5" font-family="Helvetica,sans-Serif" font-size="10.00">Pedal::sendFrame</text>
</a>
</g>
</g>
<!-- Node15&#45;&gt;Node16 -->
<g id="edge17" class="edge">
<title>Node15&#45;&gt;Node16</title>
<path fill="none" stroke="#63b8ff" d="M194.52,-192.41C217.23,-187.35 245.27,-181.1 269.27,-175.75"/>
<polygon fill="#63b8ff" stroke="#63b8ff" points="270.29,-179.11 279.29,-173.52 268.76,-172.28 270.29,-179.11"/>
</g>
<!-- Node17 -->
<g id="node17" class="node">
<title>Node17</title>
<g id="a_node17"><a xlink:href="classExponentialFilter.html#a598576f308881ed4adeb618e0bf1f75a" target="_top" xlink:title="Retrieves the filtered value from the ExponentialFilter.">
<polygon fill="white" stroke="#666666" points="553,-212 448,-212 448,-182 553,-182 553,-212"/>
<text text-anchor="start" x="456" y="-200" font-family="Helvetica,sans-Serif" font-size="10.00">ExponentialFilter::</text>
<text text-anchor="middle" x="500.5" y="-189" font-family="Helvetica,sans-Serif" font-size="10.00">getFiltered</text>
</a>
</g>
</g>
<!-- Node16&#45;&gt;Node17 -->
<g id="edge18" class="edge">
<title>Node16&#45;&gt;Node17</title>
<path fill="none" stroke="#63b8ff" d="M374.76,-173.54C394.51,-177.26 417.32,-181.55 437.99,-185.43"/>
<polygon fill="#63b8ff" stroke="#63b8ff" points="437.46,-188.9 447.94,-187.3 438.76,-182.02 437.46,-188.9"/>
</g>
<!-- Node18 -->
<g id="node18" class="node">
<title>Node18</title>
<g id="a_node18"><a xlink:href="classPedal.html#ae82e0ae8a1a0c6918d43fb27bf8d9d0d" target="_top" xlink:title="Maps the pedal ADC to a torque value. If no braking requested, maps throttle normally....">
<polygon fill="white" stroke="#666666" points="576,-163.5 425,-163.5 425,-144.5 576,-144.5 576,-163.5"/>
<text text-anchor="middle" x="500.5" y="-151.5" font-family="Helvetica,sans-Serif" font-size="10.00">Pedal::pedalTorqueMapping</text>
</a>
</g>
</g>
<!-- Node16&#45;&gt;Node18 -->
<g id="edge19" class="edge">
<title>Node16&#45;&gt;Node18</title>
<path fill="none" stroke="#63b8ff" d="M375.23,-161.08C387.57,-160.38 401.08,-159.61 414.5,-158.84"/>
<polygon fill="#63b8ff" stroke="#63b8ff" points="414.94,-162.32 424.72,-158.26 414.54,-155.34 414.94,-162.32"/>
</g>
<!-- Node18&#45;&gt;Node12 -->
<g id="edge21" class="edge">
<title>Node18&#45;&gt;Node12</title>
<path fill="none" stroke="#63b8ff" d="M553.32,-163.53C561.18,-166.01 569,-169.12 576,-173 607.61,-190.53 636.33,-221.86 652.45,-241.48"/>
<polygon fill="#63b8ff" stroke="#63b8ff" points="649.76,-243.72 658.74,-249.33 655.22,-239.34 649.76,-243.72"/>
</g>
<!-- Node19 -->
<g id="node19" class="node">
<title>Node19</title>
<g id="a_node19"><a xlink:href="classLinearInterp.html#a3c1654f4a47bb4db5386e38a8bdd6bc1" target="_top" xlink:title="Performs linear interpolation for the given input value, using the table.">
<polygon fill="white" stroke="#666666" points="722,-181.5 612,-181.5 612,-162.5 722,-162.5 722,-181.5"/>
<text text-anchor="middle" x="667" y="-169.5" font-family="Helvetica,sans-Serif" font-size="10.00">LinearInterp::interp</text>
</a>
</g>
</g>
<!-- Node18&#45;&gt;Node19 -->
<g id="edge20" class="edge">
<title>Node18&#45;&gt;Node19</title>
<path fill="none" stroke="#63b8ff" d="M576.05,-162.16C584.63,-163.1 593.33,-164.05 601.76,-164.97"/>
<polygon fill="#63b8ff" stroke="#63b8ff" points="601.56,-168.47 611.88,-166.08 602.32,-161.51 601.56,-168.47"/>
</g>
<!-- Node20 -->
<g id="node20" class="node">
<title>Node20</title>
<g id="a_node20"><a xlink:href="classLinearInterp.html#ade361a63c34c53564a1bd9e8ae5b6c4b" target="_top" xlink:title="Returns the starting input value of the interpolation table.">
<polygon fill="white" stroke="#666666" points="719,-144.5 615,-144.5 615,-125.5 719,-125.5 719,-144.5"/>
<text text-anchor="middle" x="667" y="-132.5" font-family="Helvetica,sans-Serif" font-size="10.00">LinearInterp::start</text>
</a>
</g>
</g>
<!-- Node18&#45;&gt;Node20 -->
<g id="edge22" class="edge">
<title>Node18&#45;&gt;Node20</title>
<path fill="none" stroke="#63b8ff" d="M576.05,-145.39C585.66,-144.28 595.42,-143.15 604.78,-142.07"/>
<polygon fill="#63b8ff" stroke="#63b8ff" points="605.24,-145.54 614.77,-140.92 604.43,-138.59 605.24,-145.54"/>
</g>
<!-- Node22 -->
<g id="node22" class="node">
<title>Node22</title>
<g id="a_node22"><a xlink:href="classTelemetry.html#a9b8b2cf254f25b0133b5f3bafd1b80e1" target="_top" xlink:title="Internal helper to get and send the BMS telemetry frame.">
<polygon fill="white" stroke="#666666" points="381,-131.5 265,-131.5 265,-112.5 381,-112.5 381,-131.5"/>
<text text-anchor="middle" x="323" y="-119.5" font-family="Helvetica,sans-Serif" font-size="10.00">Telemetry::sendBms</text>
</a>
</g>
</g>
<!-- Node21&#45;&gt;Node22 -->
<g id="edge24" class="edge">
<title>Node21&#45;&gt;Node22</title>
<path fill="none" stroke="#63b8ff" d="M217.91,-134.82C230.03,-133.33 242.7,-131.77 254.84,-130.27"/>
<polygon fill="#63b8ff" stroke="#63b8ff" points="255.41,-133.73 264.9,-129.03 254.55,-126.78 255.41,-133.73"/>
</g>
<!-- Node23 -->
<g id="node23" class="node">
<title>Node23</title>
<g id="a_node23"><a xlink:href="structTelemetryFrameBms.html#a6b03b160b930c3a40a06e99f6e6cb175" target="_top" xlink:title="Converts the TelemetryFrameBms to a CAN frame.">
<polygon fill="white" stroke="#666666" points="562.5,-126 438.5,-126 438.5,-96 562.5,-96 562.5,-126"/>
<text text-anchor="start" x="446.5" y="-114" font-family="Helvetica,sans-Serif" font-size="10.00">TelemetryFrameBms::</text>
<text text-anchor="middle" x="500.5" y="-103" font-family="Helvetica,sans-Serif" font-size="10.00">toCanFrame</text>
</a>
</g>
</g>
<!-- Node22&#45;&gt;Node23 -->
<g id="edge25" class="edge">
<title>Node22&#45;&gt;Node23</title>
<path fill="none" stroke="#63b8ff" d="M381.47,-118.4C396.39,-117.46 412.65,-116.44 428.19,-115.47"/>
<polygon fill="#63b8ff" stroke="#63b8ff" points="428.52,-118.96 438.28,-114.84 428.08,-111.97 428.52,-118.96"/>
</g>
<!-- Node25 -->
<g id="node25" class="node">
<title>Node25</title>
<g id="a_node25"><a xlink:href="classTelemetry.html#a24571b8d560d99079a460857669231a1" target="_top" xlink:title="Internal helper to get and send the motor telemetry frame.">
<polygon fill="white" stroke="#666666" points="384,-85.5 262,-85.5 262,-66.5 384,-66.5 384,-85.5"/>
<text text-anchor="middle" x="323" y="-73.5" font-family="Helvetica,sans-Serif" font-size="10.00">Telemetry::sendMotor</text>
</a>
</g>
</g>
<!-- Node24&#45;&gt;Node25 -->
<g id="edge27" class="edge">
<title>Node24&#45;&gt;Node25</title>
<path fill="none" stroke="#63b8ff" d="M205.92,-96.43C222.45,-93.52 240.78,-90.29 257.9,-87.28"/>
<polygon fill="#63b8ff" stroke="#63b8ff" points="258.57,-90.72 267.81,-85.54 257.35,-83.82 258.57,-90.72"/>
</g>
<!-- Node26 -->
<g id="node26" class="node">
<title>Node26</title>
<g id="a_node26"><a xlink:href="structTelemetryFrameMotor.html#a34bcb5a8f27caa3a1098c35c051236aa" target="_top" xlink:title="Converts the TelemetryFrameMotor to a CAN frame.">
<polygon fill="white" stroke="#666666" points="563,-78 438,-78 438,-48 563,-48 563,-78"/>
<text text-anchor="start" x="446" y="-66" font-family="Helvetica,sans-Serif" font-size="10.00">TelemetryFrameMotor</text>
<text text-anchor="middle" x="500.5" y="-55" font-family="Helvetica,sans-Serif" font-size="10.00">::toCanFrame</text>
</a>
</g>
</g>
<!-- Node25&#45;&gt;Node26 -->
<g id="edge28" class="edge">
<title>Node25&#45;&gt;Node26</title>
<path fill="none" stroke="#63b8ff" d="M384.4,-71.53C398.28,-70.5 413.18,-69.39 427.5,-68.33"/>
<polygon fill="#63b8ff" stroke="#63b8ff" points="428.08,-71.8 437.8,-67.57 427.57,-64.82 428.08,-71.8"/>
</g>
<!-- Node28 -->
<g id="node28" class="node">
<title>Node28</title>
<g id="a_node28"><a xlink:href="classTelemetry.html#a8fea6e56820f19a233237434f32aa511" target="_top" xlink:title="Internal helper to get and send the Pedal telemetry frame.">
<polygon fill="white" stroke="#666666" points="383.5,-29.5 262.5,-29.5 262.5,-10.5 383.5,-10.5 383.5,-29.5"/>
<text text-anchor="middle" x="323" y="-17.5" font-family="Helvetica,sans-Serif" font-size="10.00">Telemetry::sendPedal</text>
</a>
</g>
</g>
<!-- Node27&#45;&gt;Node28 -->
<g id="edge30" class="edge">
<title>Node27&#45;&gt;Node28</title>
<path fill="none" stroke="#63b8ff" d="M184.78,-59.44C211.65,-51.71 249.67,-40.79 278.87,-32.39"/>
<polygon fill="#63b8ff" stroke="#63b8ff" points="280.16,-35.67 288.81,-29.54 278.23,-28.94 280.16,-35.67"/>
</g>
<!-- Node29 -->
<g id="node29" class="node">
<title>Node29</title>
<g id="a_node29"><a xlink:href="structTelemetryFramePedal.html#af36459761c019b01b84e3844f8c38f49" target="_top" xlink:title="Converts the TelemetryFramePedal to a CAN frame.">
<polygon fill="white" stroke="#666666" points="562,-30 439,-30 439,0 562,0 562,-30"/>
<text text-anchor="start" x="447" y="-18" font-family="Helvetica,sans-Serif" font-size="10.00">TelemetryFramePedal</text>
<text text-anchor="middle" x="500.5" y="-7" font-family="Helvetica,sans-Serif" font-size="10.00">::toCanFrame</text>
</a>
</g>
</g>
<!-- Node28&#45;&gt;Node29 -->
<g id="edge31" class="edge">
<title>Node28&#45;&gt;Node29</title>
<path fill="none" stroke="#63b8ff" d="M383.91,-18.29C398.35,-17.88 413.91,-17.44 428.8,-17.01"/>
<polygon fill="#63b8ff" stroke="#63b8ff" points="429.07,-20.51 438.97,-16.72 428.87,-13.51 429.07,-20.51"/>
</g>
</g>
</svg>
        <g id="navigator" transform="translate(0 0)" fill="#404254">
                <rect fill="#f2f5e9" fill-opacity="0.5" stroke="#606060" stroke-width=".5" x="0" y="0" width="60" height="60"/>
                <use id="zoomplus" xlink:href="#zoomPlus" x="17" y="9" onmousedown="handleZoom(evt,'in')"/>
                <use id="zoomminus" xlink:href="#zoomMin" x="42" y="9" onmousedown="handleZoom(evt,'out')"/>
                <use id="reset" xlink:href="#resetDef" x="30" y="36" onmousedown="handleReset()"/>
                <g id="arrowUp" xlink:href="#dirArrow" transform="translate(30 24)" onmousedown="handlePan(0,-1)">
                  <use xlink:href="#rim" fill="#404040">
                        <set attributeName="fill" to="#808080" begin="arrowUp.mouseover" end="arrowUp.mouseout"/>
                  </use>
                  <path fill="none" stroke="white" stroke-width="1.5" d="M0,-3.0v7 M-2.5,-0.5L0,-3.0L2.5,-0.5"/>
                </g>
                <g id="arrowRight" xlink:href="#dirArrow" transform="rotate(90) translate(36 -43)" onmousedown="handlePan(1,0)">
                  <use xlink:href="#rim" fill="#404040">
                        <set attributeName="fill" to="#808080" begin="arrowRight.mouseover" end="arrowRight.mouseout"/>
                  </use>
                  <path fill="none" stroke="white" stroke-width="1.5" d="M0,-3.0v7 M-2.5,-0.5L0,-3.0L2.5,-0.5"/>
                </g>
                <g id="arrowDown" xlink:href="#dirArrow" transform="rotate(180) translate(-30 -48)" onmousedown="handlePan(0,1)">
                  <use xlink:href="#rim" fill="#404040">
                        <set attributeName="fill" to="#808080" begin="arrowDown.mouseover" end="arrowDown.mouseout"/>
                  </use>
                  <path fill="none" stroke="white" stroke-width="1.5" d="M0,-3.0v7 M-2.5,-0.5L0,-3.0L2.5,-0.5"/>
                </g>
                <g id="arrowLeft" xlink:href="#dirArrow" transform="rotate(270) translate(-36 17)" onmousedown="handlePan(-1,0)">
                  <use xlink:href="#rim" fill="#404040">
                        <set attributeName="fill" to="#808080" begin="arrowLeft.mouseover" end="arrowLeft.mouseout"/>
                  </use>
                  <path fill="none" stroke="white" stroke-width="1.5" d="M0,-3.0v7 M-2.5,-0.5L0,-3.0L2.5,-0.5"/>
                </g>
        </g>
        <svg viewBox="0 0 15 15" width="100%" height="30px" preserveAspectRatio="xMaxYMin meet">
         <g id="arrow_out" transform="scale(0.3 0.3)">
          <a xlink:href="main_8cpp_a4fc01d736fe50cf5b977f755b675f11d_cgraph_org.svg" target="_base">
           <rect id="button" ry="5" rx="5" y="6" x="6" height="38" width="38"
                fill="#f2f5e9" fill-opacity="0.5" stroke="#606060" stroke-width="1.0"/>
           <path id="arrow"
             d="M 11.500037,31.436501 C 11.940474,20.09759 22.043105,11.32322 32.158766,21.979434 L 37.068811,17.246167 C 37.068811,17.246167 37.088388,32 37.088388,32 L 22.160133,31.978069 C 22.160133,31.978069 26.997745,27.140456 26.997745,27.140456 C 18.528582,18.264221 13.291696,25.230495 11.500037,31.436501 z"
             style="fill:#404040;"/>
          </a>
         </g>
        </svg>
</svg>
