<?xml version="1.0" encoding="UTF-8" standalone="no"?>
<!DOCTYPE svg PUBLIC "-//W3C//DTD SVG 1.1//EN"
 "http://www.w3.org/Graphics/SVG/1.1/DTD/svg11.dtd">
<!-- Generated by graphviz version 2.43.0 (0)
 -->
<!-- Title: vehicle_control_unit/src/main.cpp Pages: 1 -->
<!--zoomable 313 -->
<svg id="main" version="1.1" xmlns="http://www.w3.org/2000/svg" xmlns:xlink="http://www.w3.org/1999/xlink" xml:space="preserve" onload="init(evt)">
<style type="text/css"><![CDATA[
.edge:hover path { stroke: red; }
.edge:hover polygon { stroke: red; fill: red; }
]]></style>
<script type="text/javascript"><![CDATA[
var edges = document.getElementsByTagName('g');
if (edges && edges.length) {
  for (var i=0;i<edges.length;i++) {
    if (edges[i].id.substr(0,4)=='edge') {
      edges[i].setAttribute('class','edge');
    }
  }
}
]]></script>
        <defs>
                <circle id="rim" cx="0" cy="0" r="7"/>
                <circle id="rim2" cx="0" cy="0" r="3.5"/>
                <g id="zoomPlus">
                        <use xlink:href="#rim" fill="#404040">
                                <set attributeName="fill" to="#808080" begin="zoomplus.mouseover" end="zoomplus.mouseout"/>
                        </use>
                        <path d="M-4,0h8M0,-4v8" fill="none" stroke="white" stroke-width="1.5" pointer-events="none"/>
                </g>
                <g id="zoomMin">
                        <use xlink:href="#rim" fill="#404040">
                                <set attributeName="fill" to="#808080" begin="zoomminus.mouseover" end="zoomminus.mouseout"/>
                        </use>
                        <path d="M-4,0h8" fill="none" stroke="white" stroke-width="1.5" pointer-events="none"/>
                </g>
                <g id="dirArrow">
                        <path fill="none" stroke="white" stroke-width="1.5" d="M0,-3.0v7 M-2.5,-0.5L0,-3.0L2.5,-0.5"/>
                </g>
               <g id="resetDef">
                       <use xlink:href="#rim2" fill="#404040">
                               <set attributeName="fill" to="#808080" begin="reset.mouseover" end="reset.mouseout"/>
                       </use>
               </g>
        </defs>

<script type="text/javascript">
var viewWidth = 723;
var viewHeight = 313;
var sectionId = 'dynsection-0';
</script>
<script xlink:href="svgpan.js"/>
<svg id="graph" class="graph">
<g id="viewport">
<title>vehicle_control_unit/src/main.cpp</title>
<!-- Node1 -->
<g id="node1" class="node">
<title>Node1</title>
<g id="a_node1"><a xlink:title="Main VCU program entry point.">
<polygon fill="#999999" stroke="#666666" points="444,-305 329,-305 329,-275 444,-275 444,-305"/>
<text text-anchor="start" x="337" y="-293" font-family="Helvetica,sans-Serif" font-size="10.00">vehicle_control_unit</text>
<text text-anchor="middle" x="386.5" y="-282" font-family="Helvetica,sans-Serif" font-size="10.00">/src/main.cpp</text>
</a>
</g>
</g>
<!-- Node2 -->
<g id="node2" class="node">
<title>Node2</title>
<g id="a_node2"><a xlink:title=" ">
<polygon fill="#e0e0e0" stroke="#999999" points="63,-239 0,-239 0,-220 63,-220 63,-239"/>
<text text-anchor="middle" x="31.5" y="-227" font-family="Helvetica,sans-Serif" font-size="10.00">Arduino.h</text>
</a>
</g>
</g>
<!-- Node1&#45;&gt;Node2 -->
<g id="edge1" class="edge">
<title>Node1&#45;&gt;Node2</title>
<path fill="none" stroke="#63b8ff" d="M328.87,-280.77C267.75,-271.84 168.16,-256.69 73.39,-239.28"/>
<polygon fill="#63b8ff" stroke="#63b8ff" points="73.82,-235.8 63.35,-237.42 72.54,-242.68 73.82,-235.8"/>
</g>
<!-- Node3 -->
<g id="node3" class="node">
<title>Node3</title>
<g id="a_node3"><a xlink:href="BoardConfig_8h.html" target="_top" xlink:title="Board configuration for the VCU (Vehicle Control Unit)">
<polygon fill="white" stroke="#666666" points="166,-239 81,-239 81,-220 166,-220 166,-239"/>
<text text-anchor="middle" x="123.5" y="-227" font-family="Helvetica,sans-Serif" font-size="10.00">BoardConfig.h</text>
</a>
</g>
</g>
<!-- Node1&#45;&gt;Node3 -->
<g id="edge2" class="edge">
<title>Node1&#45;&gt;Node3</title>
<path fill="none" stroke="#63b8ff" d="M328.78,-276.16C281.79,-265.71 216.21,-251.12 171.92,-241.27"/>
<polygon fill="#63b8ff" stroke="#63b8ff" points="172.5,-237.81 161.98,-239.06 170.98,-244.65 172.5,-237.81"/>
</g>
<!-- Node4 -->
<g id="node4" class="node">
<title>Node4</title>
<g id="a_node4"><a xlink:href="Pedal_8hpp.html" target="_top" xlink:title="Declaration of the Pedal class for handling throttle and brake pedal inputs.">
<polygon fill="white" stroke="#666666" points="249,-239 184,-239 184,-220 249,-220 249,-239"/>
<text text-anchor="middle" x="216.5" y="-227" font-family="Helvetica,sans-Serif" font-size="10.00">Pedal.hpp</text>
</a>
</g>
</g>
<!-- Node1&#45;&gt;Node4 -->
<g id="edge3" class="edge">
<title>Node1&#45;&gt;Node4</title>
<path fill="none" stroke="#63b8ff" d="M345.78,-274.99C316.91,-265.05 278.59,-251.86 251.17,-242.43"/>
<polygon fill="#63b8ff" stroke="#63b8ff" points="252.2,-239.08 241.61,-239.14 249.92,-245.7 252.2,-239.08"/>
</g>
<!-- Node6 -->
<g id="node6" class="node">
<title>Node6</title>
<g id="a_node6"><a xlink:href="CarState_8hpp.html" target="_top" xlink:title="Definition of the CarState structure representing the state of the car.">
<polygon fill="white" stroke="#666666" points="403.5,-184 323.5,-184 323.5,-165 403.5,-165 403.5,-184"/>
<text text-anchor="middle" x="363.5" y="-172" font-family="Helvetica,sans-Serif" font-size="10.00">CarState.hpp</text>
</a>
</g>
</g>
<!-- Node1&#45;&gt;Node6 -->
<g id="edge30" class="edge">
<title>Node1&#45;&gt;Node6</title>
<path fill="none" stroke="#63b8ff" d="M365.61,-274.97C354.4,-266.13 341.65,-253.63 335.5,-239 328.75,-222.93 338.56,-204.75 348.38,-191.98"/>
<polygon fill="#63b8ff" stroke="#63b8ff" points="351.25,-194 354.97,-184.09 345.88,-189.52 351.25,-194"/>
</g>
<!-- Node7 -->
<g id="node7" class="node">
<title>Node7</title>
<g id="a_node7"><a xlink:href="Enums_8hpp.html" target="_top" xlink:title="Enumeration definitions for the VCU.">
<polygon fill="white" stroke="#666666" points="551,-74 480,-74 480,-55 551,-55 551,-74"/>
<text text-anchor="middle" x="515.5" y="-62" font-family="Helvetica,sans-Serif" font-size="10.00">Enums.hpp</text>
</a>
</g>
</g>
<!-- Node1&#45;&gt;Node7 -->
<g id="edge29" class="edge">
<title>Node1&#45;&gt;Node7</title>
<path fill="none" stroke="#63b8ff" d="M444.29,-284.47C483.44,-278.91 534.55,-266.54 571.5,-239 594.54,-221.83 597.65,-211.64 605.5,-184 614.95,-150.74 603.63,-136.57 581.5,-110 570.9,-97.27 555.75,-86.7 542.64,-79.06"/>
<polygon fill="#63b8ff" stroke="#63b8ff" points="543.99,-75.81 533.54,-74.03 540.6,-81.94 543.99,-75.81"/>
</g>
<!-- Node10 -->
<g id="node10" class="node">
<title>Node10</title>
<g id="a_node10"><a xlink:href="Curves_8hpp.html" target="_top" xlink:title="Definition of throttle and brake mapping tables.">
<polygon fill="white" stroke="#666666" points="305,-184 234,-184 234,-165 305,-165 305,-184"/>
<text text-anchor="middle" x="269.5" y="-172" font-family="Helvetica,sans-Serif" font-size="10.00">Curves.hpp</text>
</a>
</g>
</g>
<!-- Node1&#45;&gt;Node10 -->
<g id="edge32" class="edge">
<title>Node1&#45;&gt;Node10</title>
<path fill="none" stroke="#63b8ff" d="M369.06,-274.82C357.3,-265.07 341.62,-251.64 328.5,-239 312.68,-223.75 295.71,-205.24 284.05,-192.15"/>
<polygon fill="#63b8ff" stroke="#63b8ff" points="286.46,-189.6 277.22,-184.42 281.22,-194.23 286.46,-189.6"/>
</g>
<!-- Node13 -->
<g id="node13" class="node">
<title>Node13</title>
<g id="a_node13"><a xlink:title=" ">
<polygon fill="#e0e0e0" stroke="#999999" points="493,-184 422,-184 422,-165 493,-165 493,-184"/>
<text text-anchor="middle" x="457.5" y="-172" font-family="Helvetica,sans-Serif" font-size="10.00">mcp2515.h</text>
</a>
</g>
</g>
<!-- Node1&#45;&gt;Node13 -->
<g id="edge39" class="edge">
<title>Node1&#45;&gt;Node13</title>
<path fill="none" stroke="#63b8ff" d="M405.47,-274.9C416.54,-265.77 429.95,-253.01 438.5,-239 446.93,-225.19 451.83,-207.39 454.54,-194.15"/>
<polygon fill="#63b8ff" stroke="#63b8ff" points="457.98,-194.76 456.32,-184.29 451.1,-193.51 457.98,-194.76"/>
</g>
<!-- Node14 -->
<g id="node14" class="node">
<title>Node14</title>
<g id="a_node14"><a xlink:href="BMS_8hpp.html" target="_top" xlink:title="Declaration of the BMS class for managing the Accumulator (Kclear BMS) via CAN bus.">
<polygon fill="white" stroke="#666666" points="545,-239 486,-239 486,-220 545,-220 545,-239"/>
<text text-anchor="middle" x="515.5" y="-227" font-family="Helvetica,sans-Serif" font-size="10.00">BMS.hpp</text>
</a>
</g>
</g>
<!-- Node1&#45;&gt;Node14 -->
<g id="edge21" class="edge">
<title>Node1&#45;&gt;Node14</title>
<path fill="none" stroke="#63b8ff" d="M417.4,-274.99C438.63,-265.36 466.61,-252.67 487.25,-243.31"/>
<polygon fill="#63b8ff" stroke="#63b8ff" points="488.79,-246.46 496.45,-239.14 485.9,-240.08 488.79,-246.46"/>
</g>
<!-- Node15 -->
<g id="node15" class="node">
<title>Node15</title>
<g id="a_node15"><a xlink:href="Scheduler_8hpp.html" target="_top" xlink:title="Declaration of the Scheduler class template, for scheduling tasks on multiple MCP2515 instances.">
<polygon fill="white" stroke="#666666" points="596,-184 511,-184 511,-165 596,-165 596,-184"/>
<text text-anchor="middle" x="553.5" y="-172" font-family="Helvetica,sans-Serif" font-size="10.00">Scheduler.hpp</text>
</a>
</g>
</g>
<!-- Node1&#45;&gt;Node15 -->
<g id="edge31" class="edge">
<title>Node1&#45;&gt;Node15</title>
<path fill="none" stroke="#63b8ff" d="M444.22,-279.36C487.36,-270.85 541.08,-256.99 554.5,-239 563.97,-226.31 562.5,-207.87 559.38,-194.13"/>
<polygon fill="#63b8ff" stroke="#63b8ff" points="562.71,-193.05 556.71,-184.32 555.96,-194.89 562.71,-193.05"/>
</g>
<!-- Node17 -->
<g id="node17" class="node">
<title>Node17</title>
<g id="a_node17"><a xlink:href="Telemetry_8hpp.html" target="_top" xlink:title="Declaration of the Telemetry class for sending telemetry data over CAN bus.">
<polygon fill="white" stroke="#666666" points="429,-239 344,-239 344,-220 429,-220 429,-239"/>
<text text-anchor="middle" x="386.5" y="-227" font-family="Helvetica,sans-Serif" font-size="10.00">Telemetry.hpp</text>
</a>
</g>
</g>
<!-- Node1&#45;&gt;Node17 -->
<g id="edge33" class="edge">
<title>Node1&#45;&gt;Node17</title>
<path fill="none" stroke="#63b8ff" d="M386.5,-274.84C386.5,-267.21 386.5,-257.7 386.5,-249.45"/>
<polygon fill="#63b8ff" stroke="#63b8ff" points="390,-249.27 386.5,-239.27 383,-249.27 390,-249.27"/>
</g>
<!-- Node18 -->
<g id="node18" class="node">
<title>Node18</title>
<g id="a_node18"><a xlink:href="Debug_8hpp.html" target="_top" xlink:title="Debugging macros and functions for serial and CAN output.">
<polygon fill="white" stroke="#666666" points="715,-239 646,-239 646,-220 715,-220 715,-239"/>
<text text-anchor="middle" x="680.5" y="-227" font-family="Helvetica,sans-Serif" font-size="10.00">Debug.hpp</text>
</a>
</g>
</g>
<!-- Node1&#45;&gt;Node18 -->
<g id="edge36" class="edge">
<title>Node1&#45;&gt;Node18</title>
<path fill="none" stroke="#63b8ff" d="M444.23,-277.51C500.4,-266.34 584.55,-249.59 635.79,-239.4"/>
<polygon fill="#63b8ff" stroke="#63b8ff" points="636.77,-242.77 645.9,-237.39 635.41,-235.9 636.77,-242.77"/>
</g>
<!-- Node5 -->
<g id="node5" class="node">
<title>Node5</title>
<g id="a_node5"><a xlink:title=" ">
<polygon fill="#e0e0e0" stroke="#999999" points="322,-19 269,-19 269,0 322,0 322,-19"/>
<text text-anchor="middle" x="295.5" y="-7" font-family="Helvetica,sans-Serif" font-size="10.00">stdint.h</text>
</a>
</g>
</g>
<!-- Node4&#45;&gt;Node5 -->
<g id="edge4" class="edge">
<title>Node4&#45;&gt;Node5</title>
<path fill="none" stroke="#63b8ff" d="M183.94,-220.95C136.29,-209.75 52.7,-189.45 48.5,-184 28.44,-157.94 30.09,-137.26 48.5,-110 95.89,-39.81 201.94,-19.12 258.43,-13.03"/>
<polygon fill="#63b8ff" stroke="#63b8ff" points="259.09,-16.49 268.7,-12.03 258.41,-9.52 259.09,-16.49"/>
</g>
<!-- Node4&#45;&gt;Node6 -->
<g id="edge5" class="edge">
<title>Node4&#45;&gt;Node6</title>
<path fill="none" stroke="#63b8ff" d="M240.12,-219.98C264.4,-211.23 302.45,-197.51 329.87,-187.62"/>
<polygon fill="#63b8ff" stroke="#63b8ff" points="331.23,-190.85 339.45,-184.17 328.86,-184.27 331.23,-190.85"/>
</g>
<!-- Node9 -->
<g id="node9" class="node">
<title>Node9</title>
<g id="a_node9"><a xlink:href="Interp_8hpp.html" target="_top" xlink:title="Declaration and definition of the LinearInterp class template for linear interpolation.">
<polygon fill="white" stroke="#666666" points="297.5,-129 231.5,-129 231.5,-110 297.5,-110 297.5,-129"/>
<text text-anchor="middle" x="264.5" y="-117" font-family="Helvetica,sans-Serif" font-size="10.00">Interp.hpp</text>
</a>
</g>
</g>
<!-- Node4&#45;&gt;Node9 -->
<g id="edge11" class="edge">
<title>Node4&#45;&gt;Node9</title>
<path fill="none" stroke="#63b8ff" d="M216.2,-219.85C216.09,-207.21 217.14,-183.22 225.5,-165 230.45,-154.22 238.87,-144.1 246.62,-136.25"/>
<polygon fill="#63b8ff" stroke="#63b8ff" points="249.18,-138.65 254,-129.22 244.35,-133.59 249.18,-138.65"/>
</g>
<!-- Node4&#45;&gt;Node10 -->
<g id="edge13" class="edge">
<title>Node4&#45;&gt;Node10</title>
<path fill="none" stroke="#63b8ff" d="M225.25,-219.75C232.97,-212.03 244.4,-200.6 253.72,-191.28"/>
<polygon fill="#63b8ff" stroke="#63b8ff" points="256.31,-193.64 260.91,-184.09 251.36,-188.69 256.31,-193.64"/>
</g>
<!-- Node11 -->
<g id="node11" class="node">
<title>Node11</title>
<g id="a_node11"><a xlink:href="SignalProcessing_8hpp.html" target="_top" xlink:title="Declaration of signal processing functions.">
<polygon fill="white" stroke="#666666" points="177.5,-184 57.5,-184 57.5,-165 177.5,-165 177.5,-184"/>
<text text-anchor="middle" x="117.5" y="-172" font-family="Helvetica,sans-Serif" font-size="10.00">SignalProcessing.hpp</text>
</a>
</g>
</g>
<!-- Node4&#45;&gt;Node11 -->
<g id="edge16" class="edge">
<title>Node4&#45;&gt;Node11</title>
<path fill="none" stroke="#63b8ff" d="M200.59,-219.98C184.95,-211.61 160.84,-198.7 142.62,-188.95"/>
<polygon fill="#63b8ff" stroke="#63b8ff" points="144.16,-185.8 133.7,-184.17 140.86,-191.98 144.16,-185.8"/>
</g>
<!-- Node4&#45;&gt;Node13 -->
<g id="edge20" class="edge">
<title>Node4&#45;&gt;Node13</title>
<path fill="none" stroke="#63b8ff" d="M249,-221.35C291.02,-212.11 364.41,-195.97 411.97,-185.51"/>
<polygon fill="#63b8ff" stroke="#63b8ff" points="412.98,-188.87 421.99,-183.31 411.48,-182.04 412.98,-188.87"/>
</g>
<!-- Node6&#45;&gt;Node5 -->
<g id="edge10" class="edge">
<title>Node6&#45;&gt;Node5</title>
<path fill="none" stroke="#63b8ff" d="M361.35,-164.9C356.21,-144.99 342.23,-94.42 323.5,-55 318.99,-45.52 312.89,-35.58 307.53,-27.5"/>
<polygon fill="#63b8ff" stroke="#63b8ff" points="310.25,-25.29 301.72,-19.02 304.48,-29.24 310.25,-25.29"/>
</g>
<!-- Node6&#45;&gt;Node7 -->
<g id="edge6" class="edge">
<title>Node6&#45;&gt;Node7</title>
<path fill="none" stroke="#63b8ff" d="M375.68,-164.84C401.7,-146.36 462.92,-102.86 495.03,-80.05"/>
<polygon fill="#63b8ff" stroke="#63b8ff" points="497.14,-82.84 503.26,-74.2 493.08,-77.14 497.14,-82.84"/>
</g>
<!-- Node8 -->
<g id="node8" class="node">
<title>Node8</title>
<g id="a_node8"><a xlink:title=" ">
<polygon fill="#e0e0e0" stroke="#999999" points="480,-19 437,-19 437,0 480,0 480,-19"/>
<text text-anchor="middle" x="458.5" y="-7" font-family="Helvetica,sans-Serif" font-size="10.00">can.h</text>
</a>
</g>
</g>
<!-- Node6&#45;&gt;Node8 -->
<g id="edge9" class="edge">
<title>Node6&#45;&gt;Node8</title>
<path fill="none" stroke="#63b8ff" d="M368.61,-164.74C383.62,-138.98 427.82,-63.13 448.11,-28.33"/>
<polygon fill="#63b8ff" stroke="#63b8ff" points="451.36,-29.71 453.37,-19.31 445.31,-26.18 451.36,-29.71"/>
</g>
<!-- Node7&#45;&gt;Node5 -->
<g id="edge7" class="edge">
<title>Node7&#45;&gt;Node5</title>
<path fill="none" stroke="#63b8ff" d="M480.15,-54.98C439.51,-45.19 373.11,-29.2 331.99,-19.29"/>
<polygon fill="#63b8ff" stroke="#63b8ff" points="332.65,-15.85 322.11,-16.91 331.01,-22.66 332.65,-15.85"/>
</g>
<!-- Node7&#45;&gt;Node8 -->
<g id="edge8" class="edge">
<title>Node7&#45;&gt;Node8</title>
<path fill="none" stroke="#63b8ff" d="M506.34,-54.98C498,-47.23 485.47,-35.58 475.32,-26.14"/>
<polygon fill="#63b8ff" stroke="#63b8ff" points="477.53,-23.42 467.82,-19.17 472.76,-28.54 477.53,-23.42"/>
</g>
<!-- Node9&#45;&gt;Node5 -->
<g id="edge12" class="edge">
<title>Node9&#45;&gt;Node5</title>
<path fill="none" stroke="#63b8ff" d="M267.04,-109.66C272.08,-92.09 283.46,-52.45 290.2,-28.95"/>
<polygon fill="#63b8ff" stroke="#63b8ff" points="293.62,-29.74 293.01,-19.16 286.89,-27.8 293.62,-29.74"/>
</g>
<!-- Node10&#45;&gt;Node5 -->
<g id="edge15" class="edge">
<title>Node10&#45;&gt;Node5</title>
<path fill="none" stroke="#63b8ff" d="M279.94,-164.87C288.92,-156.7 301.24,-143.55 306.5,-129 318.74,-95.13 309.21,-52.45 301.89,-28.65"/>
<polygon fill="#63b8ff" stroke="#63b8ff" points="305.21,-27.56 298.76,-19.15 298.56,-29.74 305.21,-27.56"/>
</g>
<!-- Node10&#45;&gt;Node9 -->
<g id="edge14" class="edge">
<title>Node10&#45;&gt;Node9</title>
<path fill="none" stroke="#63b8ff" d="M268.67,-164.75C268.02,-157.8 267.08,-147.85 266.26,-139.13"/>
<polygon fill="#63b8ff" stroke="#63b8ff" points="269.73,-138.72 265.31,-129.09 262.77,-139.37 269.73,-138.72"/>
</g>
<!-- Node11&#45;&gt;Node5 -->
<g id="edge17" class="edge">
<title>Node11&#45;&gt;Node5</title>
<path fill="none" stroke="#63b8ff" d="M132.57,-164.87C146.63,-156.52 167.87,-143.07 184.5,-129 223.22,-96.25 262.34,-51 282.17,-27"/>
<polygon fill="#63b8ff" stroke="#63b8ff" points="284.95,-29.14 288.57,-19.18 279.53,-24.71 284.95,-29.14"/>
</g>
<!-- Node12 -->
<g id="node12" class="node">
<title>Node12</title>
<g id="a_node12"><a xlink:href="SignalProcessing_8tpp.html" target="_top" xlink:title="Definition of Signal Processing functions.">
<polygon fill="white" stroke="#666666" points="175.5,-129 57.5,-129 57.5,-110 175.5,-110 175.5,-129"/>
<text text-anchor="middle" x="116.5" y="-117" font-family="Helvetica,sans-Serif" font-size="10.00">SignalProcessing.tpp</text>
</a>
</g>
</g>
<!-- Node11&#45;&gt;Node12 -->
<g id="edge18" class="edge">
<title>Node11&#45;&gt;Node12</title>
<path fill="none" stroke="#63b8ff" d="M112.17,-164.75C110.54,-157.8 109.92,-147.85 110.37,-139.13"/>
<polygon fill="#63b8ff" stroke="#63b8ff" points="113.86,-139.42 111.53,-129.09 106.91,-138.62 113.86,-139.42"/>
</g>
<!-- Node12&#45;&gt;Node11 -->
<g id="edge19" class="edge">
<title>Node12&#45;&gt;Node11</title>
<path fill="none" stroke="#63b8ff" d="M121.79,-129.09C123.43,-135.99 124.07,-145.93 123.64,-154.66"/>
<polygon fill="#63b8ff" stroke="#63b8ff" points="120.14,-154.42 122.5,-164.75 127.1,-155.2 120.14,-154.42"/>
</g>
<!-- Node14&#45;&gt;Node6 -->
<g id="edge27" class="edge">
<title>Node14&#45;&gt;Node6</title>
<path fill="none" stroke="#63b8ff" d="M491.08,-219.98C465.78,-211.16 426.05,-197.31 397.64,-187.41"/>
<polygon fill="#63b8ff" stroke="#63b8ff" points="398.71,-184.07 388.11,-184.08 396.4,-190.68 398.71,-184.07"/>
</g>
<!-- Node14&#45;&gt;Node13 -->
<g id="edge28" class="edge">
<title>Node14&#45;&gt;Node13</title>
<path fill="none" stroke="#63b8ff" d="M506.18,-219.98C497.69,-212.23 484.94,-200.58 474.62,-191.14"/>
<polygon fill="#63b8ff" stroke="#63b8ff" points="476.73,-188.33 466.99,-184.17 472.01,-193.5 476.73,-188.33"/>
</g>
<!-- Node14&#45;&gt;Node15 -->
<g id="edge22" class="edge">
<title>Node14&#45;&gt;Node15</title>
<path fill="none" stroke="#63b8ff" d="M521.77,-219.75C527.09,-212.34 534.86,-201.5 541.38,-192.41"/>
<polygon fill="#63b8ff" stroke="#63b8ff" points="544.36,-194.26 547.34,-184.09 538.67,-190.18 544.36,-194.26"/>
</g>
<!-- Node15&#45;&gt;Node7 -->
<g id="edge23" class="edge">
<title>Node15&#45;&gt;Node7</title>
<path fill="none" stroke="#63b8ff" d="M558.47,-164.91C565.05,-152.34 574.88,-128.44 566.5,-110 560.88,-97.63 549.93,-87.36 539.61,-79.81"/>
<polygon fill="#63b8ff" stroke="#63b8ff" points="541.47,-76.84 531.23,-74.12 537.54,-82.63 541.47,-76.84"/>
</g>
<!-- Node16 -->
<g id="node16" class="node">
<title>Node16</title>
<g id="a_node16"><a xlink:href="Scheduler_8tpp.html" target="_top" xlink:title="Implementation of the Scheduler class template.">
<polygon fill="white" stroke="#666666" points="557,-129 474,-129 474,-110 557,-110 557,-129"/>
<text text-anchor="middle" x="515.5" y="-117" font-family="Helvetica,sans-Serif" font-size="10.00">Scheduler.tpp</text>
</a>
</g>
</g>
<!-- Node15&#45;&gt;Node16 -->
<g id="edge24" class="edge">
<title>Node15&#45;&gt;Node16</title>
<path fill="none" stroke="#63b8ff" d="M542.06,-164.75C535.3,-157.49 527.33,-146.95 521.64,-137.98"/>
<polygon fill="#63b8ff" stroke="#63b8ff" points="524.55,-136.01 516.53,-129.09 518.48,-139.5 524.55,-136.01"/>
</g>
<!-- Node16&#45;&gt;Node7 -->
<g id="edge25" class="edge">
<title>Node16&#45;&gt;Node7</title>
<path fill="none" stroke="#63b8ff" d="M515.5,-109.75C515.5,-102.8 515.5,-92.85 515.5,-84.13"/>
<polygon fill="#63b8ff" stroke="#63b8ff" points="519,-84.09 515.5,-74.09 512,-84.09 519,-84.09"/>
</g>
<!-- Node16&#45;&gt;Node15 -->
<g id="edge26" class="edge">
<title>Node16&#45;&gt;Node15</title>
<path fill="none" stroke="#63b8ff" d="M526.79,-129.09C533.53,-136.29 541.5,-146.82 547.23,-155.82"/>
<polygon fill="#63b8ff" stroke="#63b8ff" points="544.36,-157.84 552.39,-164.75 550.42,-154.34 544.36,-157.84"/>
</g>
<!-- Node17&#45;&gt;Node6 -->
<g id="edge34" class="edge">
<title>Node17&#45;&gt;Node6</title>
<path fill="none" stroke="#63b8ff" d="M382.7,-219.75C379.59,-212.57 375.08,-202.18 371.21,-193.27"/>
<polygon fill="#63b8ff" stroke="#63b8ff" points="374.42,-191.87 367.23,-184.09 368,-194.66 374.42,-191.87"/>
</g>
<!-- Node17&#45;&gt;Node13 -->
<g id="edge35" class="edge">
<title>Node17&#45;&gt;Node13</title>
<path fill="none" stroke="#63b8ff" d="M397.91,-219.98C408.61,-212 424.84,-199.88 437.66,-190.31"/>
<polygon fill="#63b8ff" stroke="#63b8ff" points="439.97,-192.96 445.89,-184.17 435.78,-187.35 439.97,-192.96"/>
</g>
<!-- Node18&#45;&gt;Node7 -->
<g id="edge37" class="edge">
<title>Node18&#45;&gt;Node7</title>
<path fill="none" stroke="#63b8ff" d="M679.89,-219.73C677.92,-198.08 669.88,-141.59 638.5,-110 617.87,-89.24 586.84,-78.1 561.1,-72.16"/>
<polygon fill="#63b8ff" stroke="#63b8ff" points="561.68,-68.71 551.17,-70.06 560.23,-75.55 561.68,-68.71"/>
</g>
<!-- Node18&#45;&gt;Node13 -->
<g id="edge38" class="edge">
<title>Node18&#45;&gt;Node13</title>
<path fill="none" stroke="#63b8ff" d="M645.66,-220.22C607.21,-211.08 545.2,-196.34 502.96,-186.3"/>
<polygon fill="#63b8ff" stroke="#63b8ff" points="503.74,-182.89 493.21,-183.99 502.12,-189.7 503.74,-182.89"/>
</g>
</g>
</svg>
        <g id="navigator" transform="translate(0 0)" fill="#404254">
                <rect fill="#f2f5e9" fill-opacity="0.5" stroke="#606060" stroke-width=".5" x="0" y="0" width="60" height="60"/>
                <use id="zoomplus" xlink:href="#zoomPlus" x="17" y="9" onmousedown="handleZoom(evt,'in')"/>
                <use id="zoomminus" xlink:href="#zoomMin" x="42" y="9" onmousedown="handleZoom(evt,'out')"/>
                <use id="reset" xlink:href="#resetDef" x="30" y="36" onmousedown="handleReset()"/>
                <g id="arrowUp" xlink:href="#dirArrow" transform="translate(30 24)" onmousedown="handlePan(0,-1)">
                  <use xlink:href="#rim" fill="#404040">
                        <set attributeName="fill" to="#808080" begin="arrowUp.mouseover" end="arrowUp.mouseout"/>
                  </use>
                  <path fill="none" stroke="white" stroke-width="1.5" d="M0,-3.0v7 M-2.5,-0.5L0,-3.0L2.5,-0.5"/>
                </g>
                <g id="arrowRight" xlink:href="#dirArrow" transform="rotate(90) translate(36 -43)" onmousedown="handlePan(1,0)">
                  <use xlink:href="#rim" fill="#404040">
                        <set attributeName="fill" to="#808080" begin="arrowRight.mouseover" end="arrowRight.mouseout"/>
                  </use>
                  <path fill="none" stroke="white" stroke-width="1.5" d="M0,-3.0v7 M-2.5,-0.5L0,-3.0L2.5,-0.5"/>
                </g>
                <g id="arrowDown" xlink:href="#dirArrow" transform="rotate(180) translate(-30 -48)" onmousedown="handlePan(0,1)">
                  <use xlink:href="#rim" fill="#404040">
                        <set attributeName="fill" to="#808080" begin="arrowDown.mouseover" end="arrowDown.mouseout"/>
                  </use>
                  <path fill="none" stroke="white" stroke-width="1.5" d="M0,-3.0v7 M-2.5,-0.5L0,-3.0L2.5,-0.5"/>
                </g>
                <g id="arrowLeft" xlink:href="#dirArrow" transform="rotate(270) translate(-36 17)" onmousedown="handlePan(-1,0)">
                  <use xlink:href="#rim" fill="#404040">
                        <set attributeName="fill" to="#808080" begin="arrowLeft.mouseover" end="arrowLeft.mouseout"/>
                  </use>
                  <path fill="none" stroke="white" stroke-width="1.5" d="M0,-3.0v7 M-2.5,-0.5L0,-3.0L2.5,-0.5"/>
                </g>
        </g>
        <svg viewBox="0 0 15 15" width="100%" height="30px" preserveAspectRatio="xMaxYMin meet">
         <g id="arrow_out" transform="scale(0.3 0.3)">
          <a xlink:href="main_8cpp__incl_org.svg" target="_base">
           <rect id="button" ry="5" rx="5" y="6" x="6" height="38" width="38"
                fill="#f2f5e9" fill-opacity="0.5" stroke="#606060" stroke-width="1.0"/>
           <path id="arrow"
             d="M 11.500037,31.436501 C 11.940474,20.09759 22.043105,11.32322 32.158766,21.979434 L 37.068811,17.246167 C 37.068811,17.246167 37.088388,32 37.088388,32 L 22.160133,31.978069 C 22.160133,31.978069 26.997745,27.140456 26.997745,27.140456 C 18.528582,18.264221 13.291696,25.230495 11.500037,31.436501 z"
             style="fill:#404040;"/>
          </a>
         </g>
        </svg>
</svg>
