<?xml version="1.0" encoding="UTF-8" standalone="no"?>
<!DOCTYPE svg PUBLIC "-//W3C//DTD SVG 1.1//EN"
 "http://www.w3.org/Graphics/SVG/1.1/DTD/svg11.dtd">
<!-- Generated by graphviz version 2.43.0 (0)
 -->
<!-- Title: schedulerPedalSend Pages: 1 -->
<svg width="596pt" height="116pt"
 viewBox="0.00 0.00 596.00 116.00" xmlns="http://www.w3.org/2000/svg" xmlns:xlink="http://www.w3.org/1999/xlink">
<g id="graph0" class="graph" transform="scale(1 1) rotate(0) translate(4 112)">
<title>schedulerPedalSend</title>
<!-- Node1 -->
<g id="node1" class="node">
<title>Node1</title>
<g id="a_node1"><a xlink:title=" ">
<polygon fill="#999999" stroke="#666666" points="115,-101 0,-101 0,-82 115,-82 115,-101"/>
<text text-anchor="middle" x="57.5" y="-89" font-family="Helvetica,sans-Serif" font-size="10.00">schedulerPedalSend</text>
</a>
</g>
</g>
<!-- Node2 -->
<g id="node2" class="node">
<title>Node2</title>
<g id="a_node2"><a xlink:href="main_8cpp.html#a22decc8e5af13f6021fb6ad2aaa765be" target="_top" xlink:title=" ">
<polygon fill="white" stroke="#666666" points="555,-108 511,-108 511,-89 555,-89 555,-108"/>
<text text-anchor="middle" x="533" y="-96" font-family="Helvetica,sans-Serif" font-size="10.00">pedal</text>
</a>
</g>
</g>
<!-- Node1&#45;&gt;Node2 -->
<g id="edge1" class="edge">
<title>Node1&#45;&gt;Node2</title>
<path fill="none" stroke="#63b8ff" d="M115.14,-92.34C215.72,-93.82 422.28,-96.88 500.79,-98.04"/>
<polygon fill="#63b8ff" stroke="#63b8ff" points="500.94,-101.54 510.99,-98.19 501.04,-94.54 500.94,-101.54"/>
</g>
<!-- Node3 -->
<g id="node3" class="node">
<title>Node3</title>
<g id="a_node3"><a xlink:href="classPedal.html#a1027941444ce0b3f32ab8991e05c2015" target="_top" xlink:title="Sends the appropriate CAN frame to the motor based on pedal and car state.">
<polygon fill="white" stroke="#666666" points="255,-80 151,-80 151,-61 255,-61 255,-80"/>
<text text-anchor="middle" x="203" y="-68" font-family="Helvetica,sans-Serif" font-size="10.00">Pedal::sendFrame</text>
</a>
</g>
</g>
<!-- Node1&#45;&gt;Node3 -->
<g id="edge2" class="edge">
<title>Node1&#45;&gt;Node3</title>
<path fill="none" stroke="#63b8ff" d="M115.21,-83.2C123.57,-81.98 132.21,-80.71 140.65,-79.48"/>
<polygon fill="#63b8ff" stroke="#63b8ff" points="141.43,-82.9 150.82,-77.99 140.42,-75.97 141.43,-82.9"/>
</g>
<!-- Node4 -->
<g id="node4" class="node">
<title>Node4</title>
<g id="a_node4"><a xlink:href="classExponentialFilter.html#a598576f308881ed4adeb618e0bf1f75a" target="_top" xlink:title="Retrieves the filtered value from the ExponentialFilter.">
<polygon fill="white" stroke="#666666" points="419,-85.5 314,-85.5 314,-55.5 419,-55.5 419,-85.5"/>
<text text-anchor="start" x="322" y="-73.5" font-family="Helvetica,sans-Serif" font-size="10.00">ExponentialFilter::</text>
<text text-anchor="middle" x="366.5" y="-62.5" font-family="Helvetica,sans-Serif" font-size="10.00">getFiltered</text>
</a>
</g>
</g>
<!-- Node3&#45;&gt;Node4 -->
<g id="edge3" class="edge">
<title>Node3&#45;&gt;Node4</title>
<path fill="none" stroke="#63b8ff" d="M255.1,-70.5C270.49,-70.5 287.55,-70.5 303.56,-70.5"/>
<polygon fill="#63b8ff" stroke="#63b8ff" points="303.9,-74 313.9,-70.5 303.9,-67 303.9,-74"/>
</g>
<!-- Node5 -->
<g id="node5" class="node">
<title>Node5</title>
<g id="a_node5"><a xlink:href="classPedal.html#ae82e0ae8a1a0c6918d43fb27bf8d9d0d" target="_top" xlink:title="Maps the pedal ADC to a torque value. If no braking requested, maps throttle normally....">
<polygon fill="white" stroke="#666666" points="442,-37 291,-37 291,-18 442,-18 442,-37"/>
<text text-anchor="middle" x="366.5" y="-25" font-family="Helvetica,sans-Serif" font-size="10.00">Pedal::pedalTorqueMapping</text>
</a>
</g>
</g>
<!-- Node3&#45;&gt;Node5 -->
<g id="edge4" class="edge">
<title>Node3&#45;&gt;Node5</title>
<path fill="none" stroke="#63b8ff" d="M238.25,-60.88C254.26,-56.44 273.58,-51.12 291,-46.5 299.62,-44.21 308.82,-41.82 317.71,-39.54"/>
<polygon fill="#63b8ff" stroke="#63b8ff" points="318.74,-42.89 327.56,-37.02 317.01,-36.11 318.74,-42.89"/>
</g>
<!-- Node5&#45;&gt;Node2 -->
<g id="edge6" class="edge">
<title>Node5&#45;&gt;Node2</title>
<path fill="none" stroke="#63b8ff" d="M413.05,-37.01C422.77,-39.61 432.85,-42.77 442,-46.5 455.09,-51.83 485.85,-70.1 507.76,-83.49"/>
<polygon fill="#63b8ff" stroke="#63b8ff" points="506.18,-86.62 516.53,-88.87 509.84,-80.66 506.18,-86.62"/>
</g>
<!-- Node6 -->
<g id="node6" class="node">
<title>Node6</title>
<g id="a_node6"><a xlink:href="classLinearInterp.html#a3c1654f4a47bb4db5386e38a8bdd6bc1" target="_top" xlink:title="Performs linear interpolation for the given input value, using the table.">
<polygon fill="white" stroke="#666666" points="588,-56 478,-56 478,-37 588,-37 588,-56"/>
<text text-anchor="middle" x="533" y="-44" font-family="Helvetica,sans-Serif" font-size="10.00">LinearInterp::interp</text>
</a>
</g>
</g>
<!-- Node5&#45;&gt;Node6 -->
<g id="edge5" class="edge">
<title>Node5&#45;&gt;Node6</title>
<path fill="none" stroke="#63b8ff" d="M442.05,-36.11C450.63,-37.1 459.33,-38.11 467.76,-39.08"/>
<polygon fill="#63b8ff" stroke="#63b8ff" points="467.54,-42.58 477.88,-40.25 468.35,-35.62 467.54,-42.58"/>
</g>
<!-- Node7 -->
<g id="node7" class="node">
<title>Node7</title>
<g id="a_node7"><a xlink:href="classLinearInterp.html#ade361a63c34c53564a1bd9e8ae5b6c4b" target="_top" xlink:title="Returns the starting input value of the interpolation table.">
<polygon fill="white" stroke="#666666" points="585,-19 481,-19 481,0 585,0 585,-19"/>
<text text-anchor="middle" x="533" y="-7" font-family="Helvetica,sans-Serif" font-size="10.00">LinearInterp::start</text>
</a>
</g>
</g>
<!-- Node5&#45;&gt;Node7 -->
<g id="edge7" class="edge">
<title>Node5&#45;&gt;Node7</title>
<path fill="none" stroke="#63b8ff" d="M442.05,-19.34C451.66,-18.29 461.42,-17.22 470.78,-16.2"/>
<polygon fill="#63b8ff" stroke="#63b8ff" points="471.21,-19.67 480.77,-15.11 470.45,-12.71 471.21,-19.67"/>
</g>
</g>
</svg>
