<?xml version="1.0" encoding="UTF-8" standalone="no"?>
<!DOCTYPE svg PUBLIC "-//W3C//DTD SVG 1.1//EN"
 "http://www.w3.org/Graphics/SVG/1.1/DTD/svg11.dtd">
<!-- Generated by graphviz version 2.43.0 (0)
 -->
<!-- Title: loop Pages: 1 -->
<svg width="637pt" height="165pt"
 viewBox="0.00 0.00 637.00 165.00" xmlns="http://www.w3.org/2000/svg" xmlns:xlink="http://www.w3.org/1999/xlink">
<g id="graph0" class="graph" transform="scale(1 1) rotate(0) translate(4 161)">
<title>loop</title>
<!-- Node1 -->
<g id="node1" class="node">
<title>Node1</title>
<g id="a_node1"><a xlink:title="Main loop function for the VCU system. Handles car state transitions, pipes dataflow between modules.">
<polygon fill="#999999" stroke="#666666" points="38,-120 0,-120 0,-101 38,-101 38,-120"/>
<text text-anchor="middle" x="19" y="-108" font-family="Helvetica,sans-Serif" font-size="10.00">loop</text>
</a>
</g>
</g>
<!-- Node2 -->
<g id="node2" class="node">
<title>Node2</title>
<g id="a_node2"><a xlink:href="main_8cpp.html#a22decc8e5af13f6021fb6ad2aaa765be" target="_top" xlink:title=" ">
<polygon fill="white" stroke="#666666" points="141,-157 97,-157 97,-138 141,-138 141,-157"/>
<text text-anchor="middle" x="119" y="-145" font-family="Helvetica,sans-Serif" font-size="10.00">pedal</text>
</a>
</g>
</g>
<!-- Node1&#45;&gt;Node2 -->
<g id="edge1" class="edge">
<title>Node1&#45;&gt;Node2</title>
<path fill="none" stroke="#63b8ff" d="M38.43,-117.46C52.21,-122.66 71.35,-129.89 87.4,-135.95"/>
<polygon fill="#63b8ff" stroke="#63b8ff" points="86.34,-139.29 96.93,-139.54 88.81,-132.74 86.34,-139.29"/>
</g>
<!-- Node3 -->
<g id="node3" class="node">
<title>Node3</title>
<g id="a_node3"><a xlink:href="main_8cpp.html#a55b57abe9bcb30f6af0fb927f7d576a4" target="_top" xlink:title=" ">
<polygon fill="white" stroke="#666666" points="164,-120 74,-120 74,-101 164,-101 164,-120"/>
<text text-anchor="middle" x="119" y="-108" font-family="Helvetica,sans-Serif" font-size="10.00">scheduler_bms</text>
</a>
</g>
</g>
<!-- Node1&#45;&gt;Node3 -->
<g id="edge2" class="edge">
<title>Node1&#45;&gt;Node3</title>
<path fill="none" stroke="#63b8ff" d="M38.43,-110.5C45.68,-110.5 54.42,-110.5 63.42,-110.5"/>
<polygon fill="#63b8ff" stroke="#63b8ff" points="63.61,-114 73.61,-110.5 63.61,-107 63.61,-114"/>
</g>
<!-- Node7 -->
<g id="node7" class="node">
<title>Node7</title>
<g id="a_node7"><a xlink:href="classPedal.html#a0ec014fb5ce414deded33ae3db05e231" target="_top" xlink:title="Updates pedal sensor readings, applies filtering, and checks for faults.">
<polygon fill="white" stroke="#666666" points="160.5,-80 77.5,-80 77.5,-61 160.5,-61 160.5,-80"/>
<text text-anchor="middle" x="119" y="-68" font-family="Helvetica,sans-Serif" font-size="10.00">Pedal::update</text>
</a>
</g>
</g>
<!-- Node1&#45;&gt;Node7 -->
<g id="edge6" class="edge">
<title>Node1&#45;&gt;Node7</title>
<path fill="none" stroke="#63b8ff" d="M38.43,-102.98C51.57,-97.62 69.57,-90.27 85.14,-83.91"/>
<polygon fill="#63b8ff" stroke="#63b8ff" points="86.51,-87.13 94.45,-80.11 83.87,-80.65 86.51,-87.13"/>
</g>
<!-- Node4 -->
<g id="node4" class="node">
<title>Node4</title>
<g id="a_node4"><a xlink:href="classBMS.html#a7de82f50c43e50529739213e98b9b634" target="_top" xlink:title="Attempts to start HV. First check BMS is in standby(3) state, then send the HV start command....">
<polygon fill="white" stroke="#666666" points="307,-123 221,-123 221,-104 307,-104 307,-123"/>
<text text-anchor="middle" x="264" y="-111" font-family="Helvetica,sans-Serif" font-size="10.00">BMS::checkHv</text>
</a>
</g>
</g>
<!-- Node3&#45;&gt;Node4 -->
<g id="edge3" class="edge">
<title>Node3&#45;&gt;Node4</title>
<path fill="none" stroke="#63b8ff" d="M164.07,-111.42C178.74,-111.73 195.22,-112.08 210.47,-112.4"/>
<polygon fill="#63b8ff" stroke="#63b8ff" points="210.72,-115.9 220.79,-112.61 210.86,-108.91 210.72,-115.9"/>
</g>
<!-- Node5 -->
<g id="node5" class="node">
<title>Node5</title>
<g id="a_node5"><a xlink:href="Debug_8hpp.html#a8e8d6e3de15309922f25c12f4d7cf727" target="_top" xlink:title="Prints a line to the serial console for general debug.">
<polygon fill="white" stroke="#666666" points="470,-123 368,-123 368,-104 470,-104 470,-123"/>
<text text-anchor="middle" x="419" y="-111" font-family="Helvetica,sans-Serif" font-size="10.00">DBGLN_GENERAL</text>
</a>
</g>
</g>
<!-- Node4&#45;&gt;Node5 -->
<g id="edge4" class="edge">
<title>Node4&#45;&gt;Node5</title>
<path fill="none" stroke="#63b8ff" d="M307.21,-113.5C322.74,-113.5 340.65,-113.5 357.47,-113.5"/>
<polygon fill="#63b8ff" stroke="#63b8ff" points="357.78,-117 367.78,-113.5 357.78,-110 357.78,-117"/>
</g>
<!-- Node6 -->
<g id="node6" class="node">
<title>Node6</title>
<g id="a_node6"><a xlink:href="namespaceDebug__Serial.html#a756fa9286151426012a6f8e178a6c550" target="_top" xlink:title="Prints a string AND a newline to the serial console.">
<polygon fill="white" stroke="#666666" points="629,-123 510,-123 510,-104 629,-104 629,-123"/>
<text text-anchor="middle" x="569.5" y="-111" font-family="Helvetica,sans-Serif" font-size="10.00">Debug_Serial::println</text>
</a>
</g>
</g>
<!-- Node5&#45;&gt;Node6 -->
<g id="edge5" class="edge">
<title>Node5&#45;&gt;Node6</title>
<path fill="none" stroke="#63b8ff" d="M470.28,-113.5C479.71,-113.5 489.71,-113.5 499.59,-113.5"/>
<polygon fill="#63b8ff" stroke="#63b8ff" points="499.82,-117 509.82,-113.5 499.82,-110 499.82,-117"/>
</g>
<!-- Node8 -->
<g id="node8" class="node">
<title>Node8</title>
<g id="a_node8"><a xlink:href="classExponentialFilter.html#a4128176cf6dbe847a521df4dba8d962d" target="_top" xlink:title="Adds a new sample to the ExponentialFilter. Updates the filtered value using the exponential moving a...">
<polygon fill="white" stroke="#666666" points="316.5,-85.5 211.5,-85.5 211.5,-55.5 316.5,-55.5 316.5,-85.5"/>
<text text-anchor="start" x="219.5" y="-73.5" font-family="Helvetica,sans-Serif" font-size="10.00">ExponentialFilter::</text>
<text text-anchor="middle" x="264" y="-62.5" font-family="Helvetica,sans-Serif" font-size="10.00">addSample</text>
</a>
</g>
</g>
<!-- Node7&#45;&gt;Node8 -->
<g id="edge7" class="edge">
<title>Node7&#45;&gt;Node8</title>
<path fill="none" stroke="#63b8ff" d="M160.6,-70.5C173.16,-70.5 187.31,-70.5 200.98,-70.5"/>
<polygon fill="#63b8ff" stroke="#63b8ff" points="201.31,-74 211.31,-70.5 201.31,-67 201.31,-74"/>
</g>
<!-- Node9 -->
<g id="node9" class="node">
<title>Node9</title>
<g id="a_node9"><a xlink:href="classPedal.html#a4025bb96ea422dbba6d3b604a1066bc7" target="_top" xlink:title="Checks for a fault between two pedal sensor readings.">
<polygon fill="white" stroke="#666666" points="328,-37 200,-37 200,-18 328,-18 328,-37"/>
<text text-anchor="middle" x="264" y="-25" font-family="Helvetica,sans-Serif" font-size="10.00">Pedal::checkPedalFault</text>
</a>
</g>
</g>
<!-- Node7&#45;&gt;Node9 -->
<g id="edge8" class="edge">
<title>Node7&#45;&gt;Node9</title>
<path fill="none" stroke="#63b8ff" d="M151.74,-60.96C172.29,-54.78 199.26,-46.67 221.51,-39.98"/>
<polygon fill="#63b8ff" stroke="#63b8ff" points="222.78,-43.25 231.35,-37.02 220.77,-36.54 222.78,-43.25"/>
</g>
<!-- Node10 -->
<g id="node10" class="node">
<title>Node10</title>
<g id="a_node10"><a xlink:href="classLinearInterp.html#a3c1654f4a47bb4db5386e38a8bdd6bc1" target="_top" xlink:title="Performs linear interpolation for the given input value, using the table.">
<polygon fill="white" stroke="#666666" points="474,-56 364,-56 364,-37 474,-37 474,-56"/>
<text text-anchor="middle" x="419" y="-44" font-family="Helvetica,sans-Serif" font-size="10.00">LinearInterp::interp</text>
</a>
</g>
</g>
<!-- Node9&#45;&gt;Node10 -->
<g id="edge9" class="edge">
<title>Node9&#45;&gt;Node10</title>
<path fill="none" stroke="#63b8ff" d="M328.11,-35.34C336.54,-36.38 345.19,-37.46 353.64,-38.51"/>
<polygon fill="#63b8ff" stroke="#63b8ff" points="353.46,-42.01 363.82,-39.77 354.32,-35.07 353.46,-42.01"/>
</g>
<!-- Node11 -->
<g id="node11" class="node">
<title>Node11</title>
<g id="a_node11"><a xlink:href="classLinearInterp.html#a9928dbf5a866f066fa19a3c4794bf71a" target="_top" xlink:title="Returns the input range of the interpolation table (last input &#45; first input)">
<polygon fill="white" stroke="#666666" points="473.5,-19 364.5,-19 364.5,0 473.5,0 473.5,-19"/>
<text text-anchor="middle" x="419" y="-7" font-family="Helvetica,sans-Serif" font-size="10.00">LinearInterp::range</text>
</a>
</g>
</g>
<!-- Node9&#45;&gt;Node11 -->
<g id="edge10" class="edge">
<title>Node9&#45;&gt;Node11</title>
<path fill="none" stroke="#63b8ff" d="M328.11,-20.07C336.75,-19.06 345.63,-18.01 354.27,-17"/>
<polygon fill="#63b8ff" stroke="#63b8ff" points="354.77,-20.46 364.3,-15.82 353.96,-13.51 354.77,-20.46"/>
</g>
</g>
</svg>
