<?xml version="1.0" encoding="UTF-8" standalone="no"?>
<!DOCTYPE svg PUBLIC "-//W3C//DTD SVG 1.1//EN"
 "http://www.w3.org/Graphics/SVG/1.1/DTD/svg11.dtd">
<!-- Generated by graphviz version 2.43.0 (0)
 -->
<!-- Title: vehicle_control_unit/src/main.cpp Pages: 1 -->
<svg width="842pt" height="313pt"
 viewBox="0.00 0.00 841.52 313.00" xmlns="http://www.w3.org/2000/svg" xmlns:xlink="http://www.w3.org/1999/xlink">
<g id="graph0" class="graph" transform="scale(1 1) rotate(0) translate(4 309)">
<title>vehicle_control_unit/src/main.cpp</title>
<!-- Node1 -->
<g id="node1" class="node">
<title>Node1</title>
<g id="a_node1"><a xlink:title="Main VCU program entry point.">
<polygon fill="#999999" stroke="#666666" points="506.5,-305 391.5,-305 391.5,-275 506.5,-275 506.5,-305"/>
<text text-anchor="start" x="399.5" y="-293" font-family="Helvetica,sans-Serif" font-size="10.00">vehicle_control_unit</text>
<text text-anchor="middle" x="449" y="-282" font-family="Helvetica,sans-Serif" font-size="10.00">/src/main.cpp</text>
</a>
</g>
</g>
<!-- Node2 -->
<g id="node2" class="node">
<title>Node2</title>
<g id="a_node2"><a xlink:title=" ">
<polygon fill="#e0e0e0" stroke="#999999" points="203.5,-239 140.5,-239 140.5,-220 203.5,-220 203.5,-239"/>
<text text-anchor="middle" x="172" y="-227" font-family="Helvetica,sans-Serif" font-size="10.00">Arduino.h</text>
</a>
</g>
</g>
<!-- Node1&#45;&gt;Node2 -->
<g id="edge1" class="edge">
<title>Node1&#45;&gt;Node2</title>
<path fill="none" stroke="#63b8ff" d="M391.27,-276.81C338.24,-265.61 260.92,-249.28 213.68,-239.3"/>
<polygon fill="#63b8ff" stroke="#63b8ff" points="214.3,-235.86 203.79,-237.21 212.85,-242.7 214.3,-235.86"/>
</g>
<!-- Node3 -->
<g id="node3" class="node">
<title>Node3</title>
<g id="a_node3"><a xlink:href="BoardConfig_8h.html" target="_top" xlink:title="Board configuration for the VCU (Vehicle Control Unit)">
<polygon fill="white" stroke="#666666" points="306.5,-239 221.5,-239 221.5,-220 306.5,-220 306.5,-239"/>
<text text-anchor="middle" x="264" y="-227" font-family="Helvetica,sans-Serif" font-size="10.00">BoardConfig.h</text>
</a>
</g>
</g>
<!-- Node1&#45;&gt;Node3 -->
<g id="edge2" class="edge">
<title>Node1&#45;&gt;Node3</title>
<path fill="none" stroke="#63b8ff" d="M404.69,-274.99C372.9,-264.94 330.58,-251.55 300.68,-242.1"/>
<polygon fill="#63b8ff" stroke="#63b8ff" points="301.64,-238.73 291.05,-239.05 299.53,-245.41 301.64,-238.73"/>
</g>
<!-- Node4 -->
<g id="node4" class="node">
<title>Node4</title>
<g id="a_node4"><a xlink:href="Pedal_8hpp.html" target="_top" xlink:title="Declaration of the Pedal class for handling throttle and brake pedal inputs.">
<polygon fill="white" stroke="#666666" points="318.5,-184 253.5,-184 253.5,-165 318.5,-165 318.5,-184"/>
<text text-anchor="middle" x="286" y="-172" font-family="Helvetica,sans-Serif" font-size="10.00">Pedal.hpp</text>
</a>
</g>
</g>
<!-- Node1&#45;&gt;Node4 -->
<g id="edge3" class="edge">
<title>Node1&#45;&gt;Node4</title>
<path fill="none" stroke="#63b8ff" d="M420.12,-274.92C402,-265.61 378.46,-252.65 359,-239 338.31,-224.49 316.72,-205.1 302.44,-191.58"/>
<polygon fill="#63b8ff" stroke="#63b8ff" points="304.57,-188.78 294.94,-184.38 299.73,-193.83 304.57,-188.78"/>
</g>
<!-- Node6 -->
<g id="node6" class="node">
<title>Node6</title>
<g id="a_node6"><a xlink:href="CarState_8hpp.html" target="_top" xlink:title="Definition of the CarState structure representing the state of the car.">
<polygon fill="white" stroke="#666666" points="420,-129 340,-129 340,-110 420,-110 420,-129"/>
<text text-anchor="middle" x="380" y="-117" font-family="Helvetica,sans-Serif" font-size="10.00">CarState.hpp</text>
</a>
</g>
</g>
<!-- Node1&#45;&gt;Node6 -->
<g id="edge32" class="edge">
<title>Node1&#45;&gt;Node6</title>
<path fill="none" stroke="#63b8ff" d="M443.24,-274.92C430.79,-244.52 401.39,-172.73 387.51,-138.83"/>
<polygon fill="#63b8ff" stroke="#63b8ff" points="390.61,-137.18 383.59,-129.25 384.14,-139.84 390.61,-137.18"/>
</g>
<!-- Node7 -->
<g id="node7" class="node">
<title>Node7</title>
<g id="a_node7"><a xlink:href="Enums_8hpp.html" target="_top" xlink:title="Enumeration definitions for the VCU.">
<polygon fill="white" stroke="#666666" points="521.5,-74 450.5,-74 450.5,-55 521.5,-55 521.5,-74"/>
<text text-anchor="middle" x="486" y="-62" font-family="Helvetica,sans-Serif" font-size="10.00">Enums.hpp</text>
</a>
</g>
</g>
<!-- Node1&#45;&gt;Node7 -->
<g id="edge31" class="edge">
<title>Node1&#45;&gt;Node7</title>
<path fill="none" stroke="#63b8ff" d="M451.37,-274.68C457.81,-235.76 475.64,-128.07 482.88,-84.33"/>
<polygon fill="#63b8ff" stroke="#63b8ff" points="486.37,-84.67 484.55,-74.23 479.47,-83.53 486.37,-84.67"/>
</g>
<!-- Node10 -->
<g id="node10" class="node">
<title>Node10</title>
<g id="a_node10"><a xlink:href="Curves_8hpp.html" target="_top" xlink:title="Definition of throttle and brake mapping tables.">
<polygon fill="white" stroke="#666666" points="321.5,-129 250.5,-129 250.5,-110 321.5,-110 321.5,-129"/>
<text text-anchor="middle" x="286" y="-117" font-family="Helvetica,sans-Serif" font-size="10.00">Curves.hpp</text>
</a>
</g>
</g>
<!-- Node1&#45;&gt;Node10 -->
<g id="edge34" class="edge">
<title>Node1&#45;&gt;Node10</title>
<path fill="none" stroke="#63b8ff" d="M435.38,-274.92C405.33,-243.86 333.5,-169.6 301.65,-136.68"/>
<polygon fill="#63b8ff" stroke="#63b8ff" points="303.94,-134.01 294.47,-129.25 298.91,-138.88 303.94,-134.01"/>
</g>
<!-- Node13 -->
<g id="node13" class="node">
<title>Node13</title>
<g id="a_node13"><a xlink:title=" ">
<polygon fill="#e0e0e0" stroke="#999999" points="723.5,-74 652.5,-74 652.5,-55 723.5,-55 723.5,-74"/>
<text text-anchor="middle" x="688" y="-62" font-family="Helvetica,sans-Serif" font-size="10.00">mcp2515.h</text>
</a>
</g>
</g>
<!-- Node1&#45;&gt;Node13 -->
<g id="edge41" class="edge">
<title>Node1&#45;&gt;Node13</title>
<path fill="none" stroke="#63b8ff" d="M506.63,-288.7C569,-286.29 670,-276.26 748,-239 781.24,-223.12 790.83,-215.46 810,-184 827.42,-155.42 843.65,-137.1 824,-110 803.56,-81.81 764.74,-71.15 733.79,-67.27"/>
<polygon fill="#63b8ff" stroke="#63b8ff" points="733.94,-63.77 723.63,-66.2 733.21,-70.73 733.94,-63.77"/>
</g>
<!-- Node14 -->
<g id="node14" class="node">
<title>Node14</title>
<g id="a_node14"><a xlink:href="BMS_8hpp.html" target="_top" xlink:title="Declaration of the BMS class for managing the Accumulator (Kclear BMS) via CAN bus.">
<polygon fill="white" stroke="#666666" points="716.5,-239 657.5,-239 657.5,-220 716.5,-220 716.5,-239"/>
<text text-anchor="middle" x="687" y="-227" font-family="Helvetica,sans-Serif" font-size="10.00">BMS.hpp</text>
</a>
</g>
</g>
<!-- Node1&#45;&gt;Node14 -->
<g id="edge21" class="edge">
<title>Node1&#45;&gt;Node14</title>
<path fill="none" stroke="#63b8ff" d="M506.01,-274.99C549.69,-264.25 608.82,-249.72 647.43,-240.23"/>
<polygon fill="#63b8ff" stroke="#63b8ff" points="648.39,-243.59 657.27,-237.81 646.72,-236.8 648.39,-243.59"/>
</g>
<!-- Node15 -->
<g id="node15" class="node">
<title>Node15</title>
<g id="a_node15"><a xlink:href="Scheduler_8hpp.html" target="_top" xlink:title="Declaration of the Scheduler class template, for scheduling tasks on multiple MCP2515 instances.">
<polygon fill="white" stroke="#666666" points="800.5,-184 715.5,-184 715.5,-165 800.5,-165 800.5,-184"/>
<text text-anchor="middle" x="758" y="-172" font-family="Helvetica,sans-Serif" font-size="10.00">Scheduler.hpp</text>
</a>
</g>
</g>
<!-- Node1&#45;&gt;Node15 -->
<g id="edge33" class="edge">
<title>Node1&#45;&gt;Node15</title>
<path fill="none" stroke="#63b8ff" d="M506.79,-284.61C577.54,-278.23 692.13,-264.29 726,-239 740.66,-228.05 749.07,-208.5 753.56,-193.97"/>
<polygon fill="#63b8ff" stroke="#63b8ff" points="757,-194.63 756.26,-184.07 750.25,-192.79 757,-194.63"/>
</g>
<!-- Node17 -->
<g id="node17" class="node">
<title>Node17</title>
<g id="a_node17"><a xlink:href="Telemetry_8hpp.html" target="_top" xlink:title="Declaration of the Telemetry class for sending telemetry data over CAN bus.">
<polygon fill="white" stroke="#666666" points="600.5,-184 515.5,-184 515.5,-165 600.5,-165 600.5,-184"/>
<text text-anchor="middle" x="558" y="-172" font-family="Helvetica,sans-Serif" font-size="10.00">Telemetry.hpp</text>
</a>
</g>
</g>
<!-- Node1&#45;&gt;Node17 -->
<g id="edge35" class="edge">
<title>Node1&#45;&gt;Node17</title>
<path fill="none" stroke="#63b8ff" d="M462.8,-274.63C483.21,-253.37 521.31,-213.71 542.6,-191.54"/>
<polygon fill="#63b8ff" stroke="#63b8ff" points="545.21,-193.87 549.62,-184.23 540.17,-189.02 545.21,-193.87"/>
</g>
<!-- Node18 -->
<g id="node18" class="node">
<title>Node18</title>
<g id="a_node18"><a xlink:href="Debug_8hpp.html" target="_top" xlink:title="Debugging macros and functions for serial and CAN output.">
<polygon fill="white" stroke="#666666" points="659.5,-129 590.5,-129 590.5,-110 659.5,-110 659.5,-129"/>
<text text-anchor="middle" x="625" y="-117" font-family="Helvetica,sans-Serif" font-size="10.00">Debug.hpp</text>
</a>
</g>
</g>
<!-- Node1&#45;&gt;Node18 -->
<g id="edge38" class="edge">
<title>Node1&#45;&gt;Node18</title>
<path fill="none" stroke="#63b8ff" d="M485.27,-274.97C522.36,-258.72 578.83,-228.37 610,-184 619.26,-170.82 622.86,-152.69 624.23,-139.18"/>
<polygon fill="#63b8ff" stroke="#63b8ff" points="627.73,-139.34 624.94,-129.12 620.75,-138.85 627.73,-139.34"/>
</g>
<!-- Node5 -->
<g id="node5" class="node">
<title>Node5</title>
<g id="a_node5"><a xlink:title=" ">
<polygon fill="#e0e0e0" stroke="#999999" points="302.5,-19 249.5,-19 249.5,0 302.5,0 302.5,-19"/>
<text text-anchor="middle" x="276" y="-7" font-family="Helvetica,sans-Serif" font-size="10.00">stdint.h</text>
</a>
</g>
</g>
<!-- Node4&#45;&gt;Node5 -->
<g id="edge4" class="edge">
<title>Node4&#45;&gt;Node5</title>
<path fill="none" stroke="#63b8ff" d="M273.78,-164.99C262.51,-156.71 245.77,-143.32 234,-129 216.18,-107.33 210.12,-101.14 203,-74 200.86,-65.83 198.87,-62.36 203,-55 211.11,-40.56 226.01,-30.26 240.25,-23.22"/>
<polygon fill="#63b8ff" stroke="#63b8ff" points="241.77,-26.38 249.43,-19.06 238.88,-20 241.77,-26.38"/>
</g>
<!-- Node4&#45;&gt;Node6 -->
<g id="edge5" class="edge">
<title>Node4&#45;&gt;Node6</title>
<path fill="none" stroke="#63b8ff" d="M301.1,-164.98C315.82,-156.69 338.42,-143.94 355.67,-134.22"/>
<polygon fill="#63b8ff" stroke="#63b8ff" points="357.63,-137.13 364.62,-129.17 354.19,-131.03 357.63,-137.13"/>
</g>
<!-- Node9 -->
<g id="node9" class="node">
<title>Node9</title>
<g id="a_node9"><a xlink:href="Interp_8hpp.html" target="_top" xlink:title="Declaration and definition of the LinearInterp class template for linear interpolation.">
<polygon fill="white" stroke="#666666" points="278,-74 212,-74 212,-55 278,-55 278,-74"/>
<text text-anchor="middle" x="245" y="-62" font-family="Helvetica,sans-Serif" font-size="10.00">Interp.hpp</text>
</a>
</g>
</g>
<!-- Node4&#45;&gt;Node9 -->
<g id="edge11" class="edge">
<title>Node4&#45;&gt;Node9</title>
<path fill="none" stroke="#63b8ff" d="M273.22,-165C262.61,-157.1 248.28,-144.27 242,-129 236.16,-114.79 237.56,-97.25 240.05,-84.21"/>
<polygon fill="#63b8ff" stroke="#63b8ff" points="243.54,-84.64 242.37,-74.11 236.72,-83.07 243.54,-84.64"/>
</g>
<!-- Node4&#45;&gt;Node10 -->
<g id="edge13" class="edge">
<title>Node4&#45;&gt;Node10</title>
<path fill="none" stroke="#63b8ff" d="M286,-164.75C286,-157.8 286,-147.85 286,-139.13"/>
<polygon fill="#63b8ff" stroke="#63b8ff" points="289.5,-139.09 286,-129.09 282.5,-139.09 289.5,-139.09"/>
</g>
<!-- Node11 -->
<g id="node11" class="node">
<title>Node11</title>
<g id="a_node11"><a xlink:href="SignalProcessing_8hpp.html" target="_top" xlink:title="Declaration of signal processing functions.">
<polygon fill="white" stroke="#666666" points="138,-129 18,-129 18,-110 138,-110 138,-129"/>
<text text-anchor="middle" x="78" y="-117" font-family="Helvetica,sans-Serif" font-size="10.00">SignalProcessing.hpp</text>
</a>
</g>
</g>
<!-- Node4&#45;&gt;Node11 -->
<g id="edge16" class="edge">
<title>Node4&#45;&gt;Node11</title>
<path fill="none" stroke="#63b8ff" d="M253.04,-165.1C217.42,-156.03 160.51,-141.52 121.3,-131.53"/>
<polygon fill="#63b8ff" stroke="#63b8ff" points="122.05,-128.11 111.49,-129.03 120.32,-134.9 122.05,-128.11"/>
</g>
<!-- Node4&#45;&gt;Node13 -->
<g id="edge20" class="edge">
<title>Node4&#45;&gt;Node13</title>
<path fill="none" stroke="#63b8ff" d="M317.88,-164.94C390.01,-145.56 565.69,-98.36 646.31,-76.7"/>
<polygon fill="#63b8ff" stroke="#63b8ff" points="647.37,-80.04 656.12,-74.07 645.55,-73.28 647.37,-80.04"/>
</g>
<!-- Node6&#45;&gt;Node5 -->
<g id="edge10" class="edge">
<title>Node6&#45;&gt;Node5</title>
<path fill="none" stroke="#63b8ff" d="M371.49,-109.66C353.96,-91.46 313.6,-49.55 291.38,-26.47"/>
<polygon fill="#63b8ff" stroke="#63b8ff" points="293.8,-23.93 284.34,-19.16 288.75,-28.79 293.8,-23.93"/>
</g>
<!-- Node6&#45;&gt;Node7 -->
<g id="edge6" class="edge">
<title>Node6&#45;&gt;Node7</title>
<path fill="none" stroke="#63b8ff" d="M397.03,-109.98C413.93,-101.54 440.06,-88.47 459.64,-78.68"/>
<polygon fill="#63b8ff" stroke="#63b8ff" points="461.28,-81.77 468.66,-74.17 458.15,-75.51 461.28,-81.77"/>
</g>
<!-- Node8 -->
<g id="node8" class="node">
<title>Node8</title>
<g id="a_node8"><a xlink:title=" ">
<polygon fill="#e0e0e0" stroke="#999999" points="465.5,-19 422.5,-19 422.5,0 465.5,0 465.5,-19"/>
<text text-anchor="middle" x="444" y="-7" font-family="Helvetica,sans-Serif" font-size="10.00">can.h</text>
</a>
</g>
</g>
<!-- Node6&#45;&gt;Node8 -->
<g id="edge9" class="edge">
<title>Node6&#45;&gt;Node8</title>
<path fill="none" stroke="#63b8ff" d="M385.24,-109.66C395.79,-91.85 419.78,-51.37 433.63,-28.01"/>
<polygon fill="#63b8ff" stroke="#63b8ff" points="436.78,-29.55 438.87,-19.16 430.76,-25.98 436.78,-29.55"/>
</g>
<!-- Node7&#45;&gt;Node5 -->
<g id="edge7" class="edge">
<title>Node7&#45;&gt;Node5</title>
<path fill="none" stroke="#63b8ff" d="M452.26,-54.98C413.97,-45.32 351.74,-29.62 312.39,-19.68"/>
<polygon fill="#63b8ff" stroke="#63b8ff" points="313.21,-16.28 302.66,-17.23 311.5,-23.07 313.21,-16.28"/>
</g>
<!-- Node7&#45;&gt;Node8 -->
<g id="edge8" class="edge">
<title>Node7&#45;&gt;Node8</title>
<path fill="none" stroke="#63b8ff" d="M479.06,-54.75C473.13,-47.26 464.43,-36.28 457.18,-27.13"/>
<polygon fill="#63b8ff" stroke="#63b8ff" points="459.76,-24.75 450.81,-19.09 454.27,-29.1 459.76,-24.75"/>
</g>
<!-- Node9&#45;&gt;Node5 -->
<g id="edge12" class="edge">
<title>Node9&#45;&gt;Node5</title>
<path fill="none" stroke="#63b8ff" d="M250.12,-54.75C254.36,-47.49 260.53,-36.95 265.78,-27.98"/>
<polygon fill="#63b8ff" stroke="#63b8ff" points="268.95,-29.49 270.98,-19.09 262.91,-25.95 268.95,-29.49"/>
</g>
<!-- Node10&#45;&gt;Node5 -->
<g id="edge15" class="edge">
<title>Node10&#45;&gt;Node5</title>
<path fill="none" stroke="#63b8ff" d="M286.88,-109.83C287.96,-97.57 289.37,-74.48 287,-55 285.94,-46.31 283.76,-36.87 281.62,-28.93"/>
<polygon fill="#63b8ff" stroke="#63b8ff" points="284.96,-27.89 278.83,-19.25 278.23,-29.83 284.96,-27.89"/>
</g>
<!-- Node10&#45;&gt;Node9 -->
<g id="edge14" class="edge">
<title>Node10&#45;&gt;Node9</title>
<path fill="none" stroke="#63b8ff" d="M279.23,-109.75C273.44,-102.26 264.94,-91.28 257.86,-82.13"/>
<polygon fill="#63b8ff" stroke="#63b8ff" points="260.53,-79.86 251.64,-74.09 254.99,-84.14 260.53,-79.86"/>
</g>
<!-- Node11&#45;&gt;Node5 -->
<g id="edge17" class="edge">
<title>Node11&#45;&gt;Node5</title>
<path fill="none" stroke="#63b8ff" d="M88.85,-109.9C105.59,-96.9 139.02,-71.96 170,-55 193.28,-42.26 220.96,-30.75 242.2,-22.63"/>
<polygon fill="#63b8ff" stroke="#63b8ff" points="243.64,-25.83 251.77,-19.04 241.18,-19.28 243.64,-25.83"/>
</g>
<!-- Node12 -->
<g id="node12" class="node">
<title>Node12</title>
<g id="a_node12"><a xlink:href="SignalProcessing_8tpp.html" target="_top" xlink:title="Definition of Signal Processing functions.">
<polygon fill="white" stroke="#666666" points="118,-74 0,-74 0,-55 118,-55 118,-74"/>
<text text-anchor="middle" x="59" y="-62" font-family="Helvetica,sans-Serif" font-size="10.00">SignalProcessing.tpp</text>
</a>
</g>
</g>
<!-- Node11&#45;&gt;Node12 -->
<g id="edge18" class="edge">
<title>Node11&#45;&gt;Node12</title>
<path fill="none" stroke="#63b8ff" d="M69.7,-109.75C65.71,-102.8 61.71,-92.85 59.2,-84.13"/>
<polygon fill="#63b8ff" stroke="#63b8ff" points="62.55,-83.08 56.95,-74.09 55.72,-84.61 62.55,-83.08"/>
</g>
<!-- Node12&#45;&gt;Node11 -->
<g id="edge19" class="edge">
<title>Node12&#45;&gt;Node11</title>
<path fill="none" stroke="#63b8ff" d="M67.21,-74.09C71.24,-81.06 75.3,-91.15 77.82,-99.95"/>
<polygon fill="#63b8ff" stroke="#63b8ff" points="74.42,-100.76 80.03,-109.75 81.25,-99.22 74.42,-100.76"/>
</g>
<!-- Node14&#45;&gt;Node6 -->
<g id="edge29" class="edge">
<title>Node14&#45;&gt;Node6</title>
<path fill="none" stroke="#63b8ff" d="M657.41,-223.27C621.24,-216.41 558.5,-202.97 507,-184 469.26,-170.1 428.04,-148.12 403.1,-134.01"/>
<polygon fill="#63b8ff" stroke="#63b8ff" points="404.8,-130.95 394.39,-129.02 401.33,-137.03 404.8,-130.95"/>
</g>
<!-- Node14&#45;&gt;Node13 -->
<g id="edge30" class="edge">
<title>Node14&#45;&gt;Node13</title>
<path fill="none" stroke="#63b8ff" d="M687.05,-219.74C687.21,-194.31 687.67,-120.08 687.88,-84.69"/>
<polygon fill="#63b8ff" stroke="#63b8ff" points="691.38,-84.33 687.95,-74.31 684.38,-84.29 691.38,-84.33"/>
</g>
<!-- Node14&#45;&gt;Node15 -->
<g id="edge22" class="edge">
<title>Node14&#45;&gt;Node15</title>
<path fill="none" stroke="#63b8ff" d="M698.41,-219.98C709.11,-212 725.34,-199.88 738.16,-190.31"/>
<polygon fill="#63b8ff" stroke="#63b8ff" points="740.47,-192.96 746.39,-184.17 736.28,-187.35 740.47,-192.96"/>
</g>
<!-- Node15&#45;&gt;Node7 -->
<g id="edge23" class="edge">
<title>Node15&#45;&gt;Node7</title>
<path fill="none" stroke="#63b8ff" d="M715.43,-166.89C678.94,-160.26 625.53,-148.23 582,-129 552.97,-116.17 523,-94.82 504.44,-80.45"/>
<polygon fill="#63b8ff" stroke="#63b8ff" points="506.55,-77.66 496.53,-74.22 502.22,-83.16 506.55,-77.66"/>
</g>
<!-- Node15&#45;&gt;Node13 -->
<g id="edge24" class="edge">
<title>Node15&#45;&gt;Node13</title>
<path fill="none" stroke="#63b8ff" d="M773.66,-164.95C793.46,-153.02 823.32,-130.53 809,-110 792.08,-85.75 760.39,-74.68 733.69,-69.64"/>
<polygon fill="#63b8ff" stroke="#63b8ff" points="734.18,-66.17 723.74,-67.99 733.04,-73.08 734.18,-66.17"/>
</g>
<!-- Node16 -->
<g id="node16" class="node">
<title>Node16</title>
<g id="a_node16"><a xlink:href="Scheduler_8tpp.html" target="_top" xlink:title="Implementation of the Scheduler class template.">
<polygon fill="white" stroke="#666666" points="799.5,-129 716.5,-129 716.5,-110 799.5,-110 799.5,-129"/>
<text text-anchor="middle" x="758" y="-117" font-family="Helvetica,sans-Serif" font-size="10.00">Scheduler.tpp</text>
</a>
</g>
</g>
<!-- Node15&#45;&gt;Node16 -->
<g id="edge25" class="edge">
<title>Node15&#45;&gt;Node16</title>
<path fill="none" stroke="#63b8ff" d="M752.83,-164.75C751.34,-157.8 750.9,-147.85 751.52,-139.13"/>
<polygon fill="#63b8ff" stroke="#63b8ff" points="755.01,-139.47 752.87,-129.09 748.07,-138.53 755.01,-139.47"/>
</g>
<!-- Node16&#45;&gt;Node7 -->
<g id="edge26" class="edge">
<title>Node16&#45;&gt;Node7</title>
<path fill="none" stroke="#63b8ff" d="M716.39,-110.39C666.45,-100.66 582.98,-84.4 531.4,-74.35"/>
<polygon fill="#63b8ff" stroke="#63b8ff" points="532.02,-70.9 521.53,-72.42 530.68,-77.77 532.02,-70.9"/>
</g>
<!-- Node16&#45;&gt;Node13 -->
<g id="edge27" class="edge">
<title>Node16&#45;&gt;Node13</title>
<path fill="none" stroke="#63b8ff" d="M746.75,-109.98C736.2,-102 720.2,-89.88 707.56,-80.31"/>
<polygon fill="#63b8ff" stroke="#63b8ff" points="709.54,-77.42 699.45,-74.17 705.31,-83 709.54,-77.42"/>
</g>
<!-- Node16&#45;&gt;Node15 -->
<g id="edge28" class="edge">
<title>Node16&#45;&gt;Node15</title>
<path fill="none" stroke="#63b8ff" d="M763.13,-129.09C764.64,-135.99 765.09,-145.93 764.49,-154.66"/>
<polygon fill="#63b8ff" stroke="#63b8ff" points="761,-154.38 763.17,-164.75 767.94,-155.29 761,-154.38"/>
</g>
<!-- Node17&#45;&gt;Node6 -->
<g id="edge36" class="edge">
<title>Node17&#45;&gt;Node6</title>
<path fill="none" stroke="#63b8ff" d="M529.4,-164.98C499.39,-156.05 452.02,-141.94 418.68,-132.02"/>
<polygon fill="#63b8ff" stroke="#63b8ff" points="419.41,-128.58 408.82,-129.08 417.41,-135.29 419.41,-128.58"/>
</g>
<!-- Node17&#45;&gt;Node13 -->
<g id="edge37" class="edge">
<title>Node17&#45;&gt;Node13</title>
<path fill="none" stroke="#63b8ff" d="M559.05,-164.96C561.13,-151.58 566.95,-125.61 582,-110 598.27,-93.13 621.91,-82.38 642.74,-75.68"/>
<polygon fill="#63b8ff" stroke="#63b8ff" points="643.81,-79.01 652.38,-72.79 641.8,-72.3 643.81,-79.01"/>
</g>
<!-- Node18&#45;&gt;Node7 -->
<g id="edge39" class="edge">
<title>Node18&#45;&gt;Node7</title>
<path fill="none" stroke="#63b8ff" d="M602.67,-109.98C579.8,-101.27 544.04,-87.63 518.14,-77.75"/>
<polygon fill="#63b8ff" stroke="#63b8ff" points="519.33,-74.46 508.74,-74.17 516.84,-81 519.33,-74.46"/>
</g>
<!-- Node18&#45;&gt;Node13 -->
<g id="edge40" class="edge">
<title>Node18&#45;&gt;Node13</title>
<path fill="none" stroke="#63b8ff" d="M635.12,-109.98C644.44,-102.15 658.47,-90.34 669.74,-80.86"/>
<polygon fill="#63b8ff" stroke="#63b8ff" points="672.29,-83.29 677.69,-74.17 667.79,-77.93 672.29,-83.29"/>
</g>
</g>
</svg>
