<?xml version="1.0" encoding="UTF-8" standalone="no"?>
<!DOCTYPE svg PUBLIC "-//W3C//DTD SVG 1.1//EN"
 "http://www.w3.org/Graphics/SVG/1.1/DTD/svg11.dtd">
<!-- Generated by graphviz version 2.43.0 (0)
 -->
<!-- Title: scheduler_pedal Pages: 1 -->
<svg width="577pt" height="116pt"
 viewBox="0.00 0.00 577.00 116.00" xmlns="http://www.w3.org/2000/svg" xmlns:xlink="http://www.w3.org/1999/xlink">
<g id="graph0" class="graph" transform="scale(1 1) rotate(0) translate(4 112)">
<title>scheduler_pedal</title>
<!-- Node1 -->
<g id="node1" class="node">
<title>Node1</title>
<g id="a_node1"><a xlink:title=" ">
<polygon fill="#999999" stroke="#666666" points="96,-85 0,-85 0,-66 96,-66 96,-85"/>
<text text-anchor="middle" x="48" y="-73" font-family="Helvetica,sans-Serif" font-size="10.00">scheduler_pedal</text>
</a>
</g>
</g>
<!-- Node2 -->
<g id="node2" class="node">
<title>Node2</title>
<g id="a_node2"><a xlink:href="main_8cpp.html#a22decc8e5af13f6021fb6ad2aaa765be" target="_top" xlink:title=" ">
<polygon fill="white" stroke="#666666" points="536,-108 492,-108 492,-89 536,-89 536,-108"/>
<text text-anchor="middle" x="514" y="-96" font-family="Helvetica,sans-Serif" font-size="10.00">pedal</text>
</a>
</g>
</g>
<!-- Node1&#45;&gt;Node2 -->
<g id="edge1" class="edge">
<title>Node1&#45;&gt;Node2</title>
<path fill="none" stroke="#63b8ff" d="M85.51,-85.07C99.89,-88.41 116.62,-91.75 132,-93.5 261.19,-108.21 416.6,-103.28 481.81,-100.2"/>
<polygon fill="#63b8ff" stroke="#63b8ff" points="482.03,-103.69 491.84,-99.7 481.68,-96.7 482.03,-103.69"/>
</g>
<!-- Node3 -->
<g id="node3" class="node">
<title>Node3</title>
<g id="a_node3"><a xlink:href="classPedal.html#aa66167fb494c00db7b8a0b8140e85973" target="_top" xlink:title="Reads motor data from the CAN bus and updates the CarState.">
<polygon fill="white" stroke="#666666" points="234,-85 134,-85 134,-66 234,-66 234,-85"/>
<text text-anchor="middle" x="184" y="-73" font-family="Helvetica,sans-Serif" font-size="10.00">Pedal::readMotor</text>
</a>
</g>
</g>
<!-- Node1&#45;&gt;Node3 -->
<g id="edge2" class="edge">
<title>Node1&#45;&gt;Node3</title>
<path fill="none" stroke="#63b8ff" d="M96.24,-75.5C105.11,-75.5 114.49,-75.5 123.67,-75.5"/>
<polygon fill="#63b8ff" stroke="#63b8ff" points="123.92,-79 133.92,-75.5 123.92,-72 123.92,-79"/>
</g>
<!-- Node4 -->
<g id="node4" class="node">
<title>Node4</title>
<g id="a_node4"><a xlink:href="classPedal.html#a1027941444ce0b3f32ab8991e05c2015" target="_top" xlink:title="Sends the appropriate CAN frame to the motor based on pedal and car state.">
<polygon fill="white" stroke="#666666" points="236,-48 132,-48 132,-29 236,-29 236,-48"/>
<text text-anchor="middle" x="184" y="-36" font-family="Helvetica,sans-Serif" font-size="10.00">Pedal::sendFrame</text>
</a>
</g>
</g>
<!-- Node1&#45;&gt;Node4 -->
<g id="edge3" class="edge">
<title>Node1&#45;&gt;Node4</title>
<path fill="none" stroke="#63b8ff" d="M83.51,-65.97C100.26,-61.35 120.58,-55.73 138.48,-50.79"/>
<polygon fill="#63b8ff" stroke="#63b8ff" points="139.44,-54.16 148.14,-48.12 137.57,-47.41 139.44,-54.16"/>
</g>
<!-- Node5 -->
<g id="node5" class="node">
<title>Node5</title>
<g id="a_node5"><a xlink:href="classExponentialFilter.html#a598576f308881ed4adeb618e0bf1f75a" target="_top" xlink:title="Retrieves the filtered value from the ExponentialFilter.">
<polygon fill="white" stroke="#666666" points="400,-85.5 295,-85.5 295,-55.5 400,-55.5 400,-85.5"/>
<text text-anchor="start" x="303" y="-73.5" font-family="Helvetica,sans-Serif" font-size="10.00">ExponentialFilter::</text>
<text text-anchor="middle" x="347.5" y="-62.5" font-family="Helvetica,sans-Serif" font-size="10.00">getFiltered</text>
</a>
</g>
</g>
<!-- Node4&#45;&gt;Node5 -->
<g id="edge4" class="edge">
<title>Node4&#45;&gt;Node5</title>
<path fill="none" stroke="#63b8ff" d="M233.02,-48.01C249.26,-51.23 267.63,-54.87 284.79,-58.27"/>
<polygon fill="#63b8ff" stroke="#63b8ff" points="284.24,-61.73 294.73,-60.24 285.6,-54.86 284.24,-61.73"/>
</g>
<!-- Node6 -->
<g id="node6" class="node">
<title>Node6</title>
<g id="a_node6"><a xlink:href="classPedal.html#ae82e0ae8a1a0c6918d43fb27bf8d9d0d" target="_top" xlink:title="Maps the pedal ADC to a torque value. If no braking requested, maps throttle normally....">
<polygon fill="white" stroke="#666666" points="423,-37 272,-37 272,-18 423,-18 423,-37"/>
<text text-anchor="middle" x="347.5" y="-25" font-family="Helvetica,sans-Serif" font-size="10.00">Pedal::pedalTorqueMapping</text>
</a>
</g>
</g>
<!-- Node4&#45;&gt;Node6 -->
<g id="edge5" class="edge">
<title>Node4&#45;&gt;Node6</title>
<path fill="none" stroke="#63b8ff" d="M236.1,-35.02C244.27,-34.46 252.91,-33.87 261.61,-33.28"/>
<polygon fill="#63b8ff" stroke="#63b8ff" points="262.1,-36.76 271.84,-32.59 261.62,-29.77 262.1,-36.76"/>
</g>
<!-- Node6&#45;&gt;Node2 -->
<g id="edge7" class="edge">
<title>Node6&#45;&gt;Node2</title>
<path fill="none" stroke="#63b8ff" d="M394.05,-37.01C403.77,-39.61 413.85,-42.77 423,-46.5 436.09,-51.83 466.85,-70.1 488.76,-83.49"/>
<polygon fill="#63b8ff" stroke="#63b8ff" points="487.18,-86.62 497.53,-88.87 490.84,-80.66 487.18,-86.62"/>
</g>
<!-- Node7 -->
<g id="node7" class="node">
<title>Node7</title>
<g id="a_node7"><a xlink:href="classLinearInterp.html#a3c1654f4a47bb4db5386e38a8bdd6bc1" target="_top" xlink:title="Performs linear interpolation for the given input value, using the table.">
<polygon fill="white" stroke="#666666" points="569,-56 459,-56 459,-37 569,-37 569,-56"/>
<text text-anchor="middle" x="514" y="-44" font-family="Helvetica,sans-Serif" font-size="10.00">LinearInterp::interp</text>
</a>
</g>
</g>
<!-- Node6&#45;&gt;Node7 -->
<g id="edge6" class="edge">
<title>Node6&#45;&gt;Node7</title>
<path fill="none" stroke="#63b8ff" d="M423.05,-36.11C431.63,-37.1 440.33,-38.11 448.76,-39.08"/>
<polygon fill="#63b8ff" stroke="#63b8ff" points="448.54,-42.58 458.88,-40.25 449.35,-35.62 448.54,-42.58"/>
</g>
<!-- Node8 -->
<g id="node8" class="node">
<title>Node8</title>
<g id="a_node8"><a xlink:href="classLinearInterp.html#ade361a63c34c53564a1bd9e8ae5b6c4b" target="_top" xlink:title="Returns the starting input value of the interpolation table.">
<polygon fill="white" stroke="#666666" points="566,-19 462,-19 462,0 566,0 566,-19"/>
<text text-anchor="middle" x="514" y="-7" font-family="Helvetica,sans-Serif" font-size="10.00">LinearInterp::start</text>
</a>
</g>
</g>
<!-- Node6&#45;&gt;Node8 -->
<g id="edge8" class="edge">
<title>Node6&#45;&gt;Node8</title>
<path fill="none" stroke="#63b8ff" d="M423.05,-19.34C432.66,-18.29 442.42,-17.22 451.78,-16.2"/>
<polygon fill="#63b8ff" stroke="#63b8ff" points="452.21,-19.67 461.77,-15.11 451.45,-12.71 452.21,-19.67"/>
</g>
</g>
</svg>
