<?xml version="1.0" encoding="UTF-8" standalone="no"?>
<!DOCTYPE svg PUBLIC "-//W3C//DTD SVG 1.1//EN"
 "http://www.w3.org/Graphics/SVG/1.1/DTD/svg11.dtd">
<!-- Generated by graphviz version 2.43.0 (0)
 -->
<!-- Title: pedal Pages: 1 -->
<svg width="623pt" height="178pt"
 viewBox="0.00 0.00 623.00 178.00" xmlns="http://www.w3.org/2000/svg" xmlns:xlink="http://www.w3.org/1999/xlink">
<g id="graph0" class="graph" transform="scale(1 1) rotate(0) translate(4 174)">
<title>pedal</title>
<!-- Node1 -->
<g id="node1" class="node">
<title>Node1</title>
<g id="a_node1"><a xlink:title=" ">
<polygon fill="#999999" stroke="#666666" points="615,-95 571,-95 571,-76 615,-76 615,-95"/>
<text text-anchor="middle" x="593" y="-83" font-family="Helvetica,sans-Serif" font-size="10.00">pedal</text>
</a>
</g>
</g>
<!-- Node2 -->
<g id="node2" class="node">
<title>Node2</title>
<g id="a_node2"><a xlink:href="main_8cpp.html#afe461d27b9c48d5921c00d521181f12f" target="_top" xlink:title="Main loop function for the VCU system. Handles car state transitions, pipes dataflow between modules.">
<polygon fill="white" stroke="#666666" points="478.5,-170 440.5,-170 440.5,-151 478.5,-151 478.5,-170"/>
<text text-anchor="middle" x="459.5" y="-158" font-family="Helvetica,sans-Serif" font-size="10.00">loop</text>
</a>
</g>
</g>
<!-- Node1&#45;&gt;Node2 -->
<g id="edge1" class="edge">
<title>Node1&#45;&gt;Node2</title>
<path fill="none" stroke="#63b8ff" d="M578.69,-103.29C568.19,-116.07 552.45,-132.71 535,-142.5 517.36,-152.4 494.4,-156.89 478.66,-158.9"/>
<polygon fill="#63b8ff" stroke="#63b8ff" points="581.63,-105.21 585.07,-95.19 576.13,-100.88 581.63,-105.21"/>
</g>
<!-- Node3 -->
<g id="node3" class="node">
<title>Node3</title>
<g id="a_node3"><a xlink:href="classPedal.html#ae82e0ae8a1a0c6918d43fb27bf8d9d0d" target="_top" xlink:title="Maps the pedal ADC to a torque value. If no braking requested, maps throttle normally....">
<polygon fill="white" stroke="#666666" points="535,-133 384,-133 384,-114 535,-114 535,-133"/>
<text text-anchor="middle" x="459.5" y="-121" font-family="Helvetica,sans-Serif" font-size="10.00">Pedal::pedalTorqueMapping</text>
</a>
</g>
</g>
<!-- Node1&#45;&gt;Node3 -->
<g id="edge2" class="edge">
<title>Node1&#45;&gt;Node3</title>
<path fill="none" stroke="#63b8ff" d="M561.15,-94.41C540.79,-100.3 514.15,-108 493.39,-114"/>
<polygon fill="#63b8ff" stroke="#63b8ff" points="562.24,-97.74 570.87,-91.61 560.29,-91.02 562.24,-97.74"/>
</g>
<!-- Node5 -->
<g id="node5" class="node">
<title>Node5</title>
<g id="a_node5"><a xlink:href="main_8cpp.html#a35850a25a9bfe403bb5f5d4c4796ad41" target="_top" xlink:title=" ">
<polygon fill="white" stroke="#666666" points="195,-95 80,-95 80,-76 195,-76 195,-95"/>
<text text-anchor="middle" x="137.5" y="-83" font-family="Helvetica,sans-Serif" font-size="10.00">schedulerPedalSend</text>
</a>
</g>
</g>
<!-- Node1&#45;&gt;Node5 -->
<g id="edge8" class="edge">
<title>Node1&#45;&gt;Node5</title>
<path fill="none" stroke="#63b8ff" d="M560.43,-85.5C484.61,-85.5 291.42,-85.5 195.01,-85.5"/>
<polygon fill="#63b8ff" stroke="#63b8ff" points="560.74,-89 570.74,-85.5 560.73,-82 560.74,-89"/>
</g>
<!-- Node6 -->
<g id="node6" class="node">
<title>Node6</title>
<g id="a_node6"><a xlink:href="main_8cpp.html#a4fc01d736fe50cf5b977f755b675f11d" target="_top" xlink:title="Setup function for initializing the VCU system. Initializes MCP2515s, IO pins, as well as own modules...">
<polygon fill="white" stroke="#666666" points="44,-57 0,-57 0,-38 44,-38 44,-57"/>
<text text-anchor="middle" x="22" y="-45" font-family="Helvetica,sans-Serif" font-size="10.00">setup</text>
</a>
</g>
</g>
<!-- Node1&#45;&gt;Node6 -->
<g id="edge9" class="edge">
<title>Node1&#45;&gt;Node6</title>
<path fill="none" stroke="#63b8ff" d="M560.75,-83.29C552.39,-82.7 543.35,-82.07 535,-81.5 344.8,-68.51 114.81,-53.48 44.46,-48.9"/>
<polygon fill="#63b8ff" stroke="#63b8ff" points="560.67,-86.79 570.89,-84 561.16,-79.81 560.67,-86.79"/>
</g>
<!-- Node7 -->
<g id="node7" class="node">
<title>Node7</title>
<g id="a_node7"><a xlink:href="main_8cpp.html#a4849579a51ba5515a1140dda7c80ed61" target="_top" xlink:title=" ">
<polygon fill="white" stroke="#666666" points="348,-19 231,-19 231,0 348,0 348,-19"/>
<text text-anchor="middle" x="289.5" y="-7" font-family="Helvetica,sans-Serif" font-size="10.00">schedulerMotorRead</text>
</a>
</g>
</g>
<!-- Node1&#45;&gt;Node7 -->
<g id="edge6" class="edge">
<title>Node1&#45;&gt;Node7</title>
<path fill="none" stroke="#63b8ff" d="M578.05,-67.85C567.58,-55.96 552.14,-41.13 535,-33.5 475.28,-6.92 399.44,-3.57 348.18,-5.15"/>
<polygon fill="#63b8ff" stroke="#63b8ff" points="575.65,-70.42 584.76,-75.83 581.01,-65.92 575.65,-70.42"/>
</g>
<!-- Node4 -->
<g id="node4" class="node">
<title>Node4</title>
<g id="a_node4"><a xlink:href="classPedal.html#a1027941444ce0b3f32ab8991e05c2015" target="_top" xlink:title="Sends the appropriate CAN frame to the motor based on pedal and car state.">
<polygon fill="white" stroke="#666666" points="341.5,-133 237.5,-133 237.5,-114 341.5,-114 341.5,-133"/>
<text text-anchor="middle" x="289.5" y="-121" font-family="Helvetica,sans-Serif" font-size="10.00">Pedal::sendFrame</text>
</a>
</g>
</g>
<!-- Node3&#45;&gt;Node4 -->
<g id="edge3" class="edge">
<title>Node3&#45;&gt;Node4</title>
<path fill="none" stroke="#63b8ff" d="M373.81,-123.5C362.88,-123.5 351.97,-123.5 341.81,-123.5"/>
<polygon fill="#63b8ff" stroke="#63b8ff" points="373.83,-127 383.83,-123.5 373.83,-120 373.83,-127"/>
</g>
<!-- Node4&#45;&gt;Node5 -->
<g id="edge4" class="edge">
<title>Node4&#45;&gt;Node5</title>
<path fill="none" stroke="#63b8ff" d="M240.69,-111.39C219.8,-106.1 195.65,-99.98 176.08,-95.02"/>
<polygon fill="#63b8ff" stroke="#63b8ff" points="240.1,-114.85 250.65,-113.91 241.81,-108.06 240.1,-114.85"/>
</g>
<!-- Node5&#45;&gt;Node6 -->
<g id="edge5" class="edge">
<title>Node5&#45;&gt;Node6</title>
<path fill="none" stroke="#63b8ff" d="M98.17,-72.67C80.11,-66.62 59.26,-59.64 44.11,-54.57"/>
<polygon fill="#63b8ff" stroke="#63b8ff" points="97.27,-76.06 107.86,-75.91 99.49,-69.42 97.27,-76.06"/>
</g>
<!-- Node7&#45;&gt;Node6 -->
<g id="edge7" class="edge">
<title>Node7&#45;&gt;Node6</title>
<path fill="none" stroke="#63b8ff" d="M220.56,-15.13C179.65,-19.07 126.62,-25.13 80,-33.5 68.06,-35.64 54.91,-38.82 44.25,-41.6"/>
<polygon fill="#63b8ff" stroke="#63b8ff" points="221.06,-18.6 230.69,-14.18 220.41,-11.63 221.06,-18.6"/>
</g>
</g>
</svg>
