<?xml version="1.0" encoding="UTF-8" standalone="no"?>
<!DOCTYPE svg PUBLIC "-//W3C//DTD SVG 1.1//EN"
 "http://www.w3.org/Graphics/SVG/1.1/DTD/svg11.dtd">
<!-- Generated by graphviz version 2.43.0 (0)
 -->
<!-- Title: setup Pages: 1 -->
<!--zoomable 318 -->
<svg id="main" version="1.1" xmlns="http://www.w3.org/2000/svg" xmlns:xlink="http://www.w3.org/1999/xlink" xml:space="preserve" onload="init(evt)">
<style type="text/css"><![CDATA[
.edge:hover path { stroke: red; }
.edge:hover polygon { stroke: red; fill: red; }
]]></style>
<script type="text/javascript"><![CDATA[
var edges = document.getElementsByTagName('g');
if (edges && edges.length) {
  for (var i=0;i<edges.length;i++) {
    if (edges[i].id.substr(0,4)=='edge') {
      edges[i].setAttribute('class','edge');
    }
  }
}
]]></script>
        <defs>
                <circle id="rim" cx="0" cy="0" r="7"/>
                <circle id="rim2" cx="0" cy="0" r="3.5"/>
                <g id="zoomPlus">
                        <use xlink:href="#rim" fill="#404040">
                                <set attributeName="fill" to="#808080" begin="zoomplus.mouseover" end="zoomplus.mouseout"/>
                        </use>
                        <path d="M-4,0h8M0,-4v8" fill="none" stroke="white" stroke-width="1.5" pointer-events="none"/>
                </g>
                <g id="zoomMin">
                        <use xlink:href="#rim" fill="#404040">
                                <set attributeName="fill" to="#808080" begin="zoomminus.mouseover" end="zoomminus.mouseout"/>
                        </use>
                        <path d="M-4,0h8" fill="none" stroke="white" stroke-width="1.5" pointer-events="none"/>
                </g>
                <g id="dirArrow">
                        <path fill="none" stroke="white" stroke-width="1.5" d="M0,-3.0v7 M-2.5,-0.5L0,-3.0L2.5,-0.5"/>
                </g>
               <g id="resetDef">
                       <use xlink:href="#rim2" fill="#404040">
                               <set attributeName="fill" to="#808080" begin="reset.mouseover" end="reset.mouseout"/>
                       </use>
               </g>
        </defs>

<script type="text/javascript">
var viewWidth = 720;
var viewHeight = 318;
var sectionId = 'dynsection-14';
</script>
<script xlink:href="svgpan.js"/>
<svg id="graph" class="graph">
<g id="viewport">
<title>setup</title>
<!-- Node1 -->
<g id="node1" class="node">
<title>Node1</title>
<g id="a_node1"><a xlink:title="Setup function for initializing the VCU system. Initializes MCP2515s, IO pins, as well as own modules...">
<polygon fill="#999999" stroke="#666666" points="44,-179.5 0,-179.5 0,-160.5 44,-160.5 44,-179.5"/>
<text text-anchor="middle" x="22" y="-167.5" font-family="Helvetica,sans-Serif" font-size="10.00">setup</text>
</a>
</g>
</g>
<!-- Node2 -->
<g id="node2" class="node">
<title>Node2</title>
<g id="a_node2"><a xlink:href="Debug_8hpp.html#a8e8d6e3de15309922f25c12f4d7cf727" target="_top" xlink:title="Prints a line to the serial console for general debug.">
<polygon fill="white" stroke="#666666" points="201.5,-309.5 99.5,-309.5 99.5,-290.5 201.5,-290.5 201.5,-309.5"/>
<text text-anchor="middle" x="150.5" y="-297.5" font-family="Helvetica,sans-Serif" font-size="10.00">DBGLN_GENERAL</text>
</a>
</g>
</g>
<!-- Node1&#45;&gt;Node2 -->
<g id="edge1" class="edge">
<title>Node1&#45;&gt;Node2</title>
<path fill="none" stroke="#63b8ff" d="M25.11,-179.81C30.33,-201.69 45.98,-254.67 80,-282 83.08,-284.48 86.47,-286.61 90.03,-288.46"/>
<polygon fill="#63b8ff" stroke="#63b8ff" points="88.64,-291.67 99.2,-292.48 91.45,-285.26 88.64,-291.67"/>
</g>
<!-- Node4 -->
<g id="node4" class="node">
<title>Node4</title>
<g id="a_node4"><a xlink:href="namespaceDebug__Serial.html#ad136936636c7b7140cb1e14c55eb5f31" target="_top" xlink:title="Initializes the Debug_Serial interface. It should be called before using any other Debug_Serial funct...">
<polygon fill="white" stroke="#666666" points="215,-272.5 86,-272.5 86,-253.5 215,-253.5 215,-272.5"/>
<text text-anchor="middle" x="150.5" y="-260.5" font-family="Helvetica,sans-Serif" font-size="10.00">Debug_Serial::initialize</text>
</a>
</g>
</g>
<!-- Node1&#45;&gt;Node4 -->
<g id="edge3" class="edge">
<title>Node1&#45;&gt;Node4</title>
<path fill="none" stroke="#63b8ff" d="M27.64,-179.72C35.86,-195.85 54.54,-228.06 80,-245 82.43,-246.62 85,-248.09 87.66,-249.43"/>
<polygon fill="#63b8ff" stroke="#63b8ff" points="86.43,-252.71 97,-253.5 89.23,-246.3 86.43,-252.71"/>
</g>
<!-- Node5 -->
<g id="node5" class="node">
<title>Node5</title>
<g id="a_node5"><a xlink:href="namespaceDebug__CAN.html#a5c8b33000e36a19ccb285e45f666e64e" target="_top" xlink:title="Initializes the Debug_CAN interface. It should be called before using any other Debug_CAN functions.">
<polygon fill="white" stroke="#666666" points="211.5,-235.5 89.5,-235.5 89.5,-216.5 211.5,-216.5 211.5,-235.5"/>
<text text-anchor="middle" x="150.5" y="-223.5" font-family="Helvetica,sans-Serif" font-size="10.00">Debug_CAN::initialize</text>
</a>
</g>
</g>
<!-- Node1&#45;&gt;Node5 -->
<g id="edge4" class="edge">
<title>Node1&#45;&gt;Node5</title>
<path fill="none" stroke="#63b8ff" d="M34.97,-179.73C46.05,-188.29 63.28,-200.52 80,-208 84.39,-209.96 89.04,-211.75 93.76,-213.35"/>
<polygon fill="#63b8ff" stroke="#63b8ff" points="92.93,-216.76 103.52,-216.42 95.02,-210.08 92.93,-216.76"/>
</g>
<!-- Node6 -->
<g id="node6" class="node">
<title>Node6</title>
<g id="a_node6"><a xlink:href="main_8cpp.html#a95581c94a7dc4a68f61fa24f06cc90d1" target="_top" xlink:title=" ">
<polygon fill="white" stroke="#666666" points="190.5,-198.5 110.5,-198.5 110.5,-179.5 190.5,-179.5 190.5,-198.5"/>
<text text-anchor="middle" x="150.5" y="-186.5" font-family="Helvetica,sans-Serif" font-size="10.00">mcp2515_DL</text>
</a>
</g>
</g>
<!-- Node1&#45;&gt;Node6 -->
<g id="edge5" class="edge">
<title>Node1&#45;&gt;Node6</title>
<path fill="none" stroke="#63b8ff" d="M44.17,-173.18C59.51,-175.48 80.88,-178.69 100.36,-181.62"/>
<polygon fill="#63b8ff" stroke="#63b8ff" points="99.93,-185.09 110.34,-183.12 100.97,-178.17 99.93,-185.09"/>
</g>
<!-- Node7 -->
<g id="node7" class="node">
<title>Node7</title>
<g id="a_node7"><a xlink:href="main_8cpp.html#a1174b6795782479542559289cd623faf" target="_top" xlink:title=" ">
<polygon fill="white" stroke="#666666" points="198.5,-161.5 102.5,-161.5 102.5,-142.5 198.5,-142.5 198.5,-161.5"/>
<text text-anchor="middle" x="150.5" y="-149.5" font-family="Helvetica,sans-Serif" font-size="10.00">scheduler_pedal</text>
</a>
</g>
</g>
<!-- Node1&#45;&gt;Node7 -->
<g id="edge6" class="edge">
<title>Node1&#45;&gt;Node7</title>
<path fill="none" stroke="#63b8ff" d="M44.17,-166.99C57.4,-165.1 75.13,-162.58 92.26,-160.15"/>
<polygon fill="#63b8ff" stroke="#63b8ff" points="92.83,-163.6 102.24,-158.73 91.84,-156.67 92.83,-163.6"/>
</g>
<!-- Node15 -->
<g id="node15" class="node">
<title>Node15</title>
<g id="a_node15"><a xlink:href="main_8cpp.html#a6ce4f6f8e1e47dc50c24b0240f7390c4" target="_top" xlink:title=" ">
<polygon fill="white" stroke="#666666" points="217.5,-121.5 83.5,-121.5 83.5,-102.5 217.5,-102.5 217.5,-121.5"/>
<text text-anchor="middle" x="150.5" y="-109.5" font-family="Helvetica,sans-Serif" font-size="10.00">schedulerTelemetryBms</text>
</a>
</g>
</g>
<!-- Node1&#45;&gt;Node15 -->
<g id="edge15" class="edge">
<title>Node1&#45;&gt;Node15</title>
<path fill="none" stroke="#63b8ff" d="M36.04,-160.4C47.25,-152.49 64.08,-141.4 80,-134 87.43,-130.55 95.54,-127.44 103.51,-124.72"/>
<polygon fill="#63b8ff" stroke="#63b8ff" points="104.69,-128.01 113.12,-121.59 102.53,-121.36 104.69,-128.01"/>
</g>
<!-- Node18 -->
<g id="node18" class="node">
<title>Node18</title>
<g id="a_node18"><a xlink:href="main_8cpp.html#af749f68ca5ebf490db3de9a27bf7bfc6" target="_top" xlink:title=" ">
<polygon fill="white" stroke="#666666" points="221,-84.5 80,-84.5 80,-65.5 221,-65.5 221,-84.5"/>
<text text-anchor="middle" x="150.5" y="-72.5" font-family="Helvetica,sans-Serif" font-size="10.00">schedulerTelemetryMotor</text>
</a>
</g>
</g>
<!-- Node1&#45;&gt;Node18 -->
<g id="edge18" class="edge">
<title>Node1&#45;&gt;Node18</title>
<path fill="none" stroke="#63b8ff" d="M27.5,-160.45C35.64,-144.25 54.36,-111.43 80,-94 82.93,-92.01 86.07,-90.22 89.33,-88.62"/>
<polygon fill="#63b8ff" stroke="#63b8ff" points="90.94,-91.74 98.77,-84.59 88.2,-85.3 90.94,-91.74"/>
</g>
<!-- Node21 -->
<g id="node21" class="node">
<title>Node21</title>
<g id="a_node21"><a xlink:href="main_8cpp.html#a2e1609fa80a6555982d945314147b005" target="_top" xlink:title=" ">
<polygon fill="white" stroke="#666666" points="220.5,-47.5 80.5,-47.5 80.5,-28.5 220.5,-28.5 220.5,-47.5"/>
<text text-anchor="middle" x="150.5" y="-35.5" font-family="Helvetica,sans-Serif" font-size="10.00">schedulerTelemetryPedal</text>
</a>
</g>
</g>
<!-- Node1&#45;&gt;Node21 -->
<g id="edge21" class="edge">
<title>Node1&#45;&gt;Node21</title>
<path fill="none" stroke="#63b8ff" d="M25.03,-160.46C30.17,-138.67 45.8,-84.95 80,-57 82.08,-55.3 84.29,-53.76 86.61,-52.35"/>
<polygon fill="#63b8ff" stroke="#63b8ff" points="88.66,-55.23 95.97,-47.57 85.47,-49 88.66,-55.23"/>
</g>
<!-- Node3 -->
<g id="node3" class="node">
<title>Node3</title>
<g id="a_node3"><a xlink:href="namespaceDebug__Serial.html#a756fa9286151426012a6f8e178a6c550" target="_top" xlink:title="Prints a string AND a newline to the serial console.">
<polygon fill="white" stroke="#666666" points="377.5,-309.5 258.5,-309.5 258.5,-290.5 377.5,-290.5 377.5,-309.5"/>
<text text-anchor="middle" x="318" y="-297.5" font-family="Helvetica,sans-Serif" font-size="10.00">Debug_Serial::println</text>
</a>
</g>
</g>
<!-- Node2&#45;&gt;Node3 -->
<g id="edge2" class="edge">
<title>Node2&#45;&gt;Node3</title>
<path fill="none" stroke="#63b8ff" d="M201.6,-300C216.28,-300 232.58,-300 248.2,-300"/>
<polygon fill="#63b8ff" stroke="#63b8ff" points="248.34,-303.5 258.34,-300 248.34,-296.5 248.34,-303.5"/>
</g>
<!-- Node8 -->
<g id="node8" class="node">
<title>Node8</title>
<g id="a_node8"><a xlink:href="main_8cpp.html#a22decc8e5af13f6021fb6ad2aaa765be" target="_top" xlink:title=" ">
<polygon fill="white" stroke="#666666" points="679,-236.5 635,-236.5 635,-217.5 679,-217.5 679,-236.5"/>
<text text-anchor="middle" x="657" y="-224.5" font-family="Helvetica,sans-Serif" font-size="10.00">pedal</text>
</a>
</g>
</g>
<!-- Node7&#45;&gt;Node8 -->
<g id="edge7" class="edge">
<title>Node7&#45;&gt;Node8</title>
<path fill="none" stroke="#63b8ff" d="M198.55,-161.09C206.35,-163.64 214.13,-166.89 221,-171 240.96,-182.95 235.99,-199 257,-209 382.07,-268.51 554.88,-246.11 624.79,-233.4"/>
<polygon fill="#63b8ff" stroke="#63b8ff" points="625.54,-236.82 634.72,-231.53 624.24,-229.94 625.54,-236.82"/>
</g>
<!-- Node9 -->
<g id="node9" class="node">
<title>Node9</title>
<g id="a_node9"><a xlink:href="classPedal.html#aa66167fb494c00db7b8a0b8140e85973" target="_top" xlink:title="Reads motor data from the CAN bus and updates the CarState.">
<polygon fill="white" stroke="#666666" points="368,-199.5 268,-199.5 268,-180.5 368,-180.5 368,-199.5"/>
<text text-anchor="middle" x="318" y="-187.5" font-family="Helvetica,sans-Serif" font-size="10.00">Pedal::readMotor</text>
</a>
</g>
</g>
<!-- Node7&#45;&gt;Node9 -->
<g id="edge8" class="edge">
<title>Node7&#45;&gt;Node9</title>
<path fill="none" stroke="#63b8ff" d="M193.26,-161.59C215.2,-166.63 242.28,-172.84 265.51,-178.18"/>
<polygon fill="#63b8ff" stroke="#63b8ff" points="265.01,-181.65 275.54,-180.48 266.57,-174.83 265.01,-181.65"/>
</g>
<!-- Node10 -->
<g id="node10" class="node">
<title>Node10</title>
<g id="a_node10"><a xlink:href="classPedal.html#a1027941444ce0b3f32ab8991e05c2015" target="_top" xlink:title="Sends the appropriate CAN frame to the motor based on pedal and car state.">
<polygon fill="white" stroke="#666666" points="370,-162.5 266,-162.5 266,-143.5 370,-143.5 370,-162.5"/>
<text text-anchor="middle" x="318" y="-150.5" font-family="Helvetica,sans-Serif" font-size="10.00">Pedal::sendFrame</text>
</a>
</g>
</g>
<!-- Node7&#45;&gt;Node10 -->
<g id="edge9" class="edge">
<title>Node7&#45;&gt;Node10</title>
<path fill="none" stroke="#63b8ff" d="M198.93,-152.29C216.58,-152.39 236.86,-152.52 255.59,-152.63"/>
<polygon fill="#63b8ff" stroke="#63b8ff" points="255.78,-156.13 265.8,-152.69 255.83,-149.13 255.78,-156.13"/>
</g>
<!-- Node11 -->
<g id="node11" class="node">
<title>Node11</title>
<g id="a_node11"><a xlink:href="classExponentialFilter.html#a598576f308881ed4adeb618e0bf1f75a" target="_top" xlink:title="Retrieves the filtered value from the ExponentialFilter.">
<polygon fill="white" stroke="#666666" points="543,-212 438,-212 438,-182 543,-182 543,-212"/>
<text text-anchor="start" x="446" y="-200" font-family="Helvetica,sans-Serif" font-size="10.00">ExponentialFilter::</text>
<text text-anchor="middle" x="490.5" y="-189" font-family="Helvetica,sans-Serif" font-size="10.00">getFiltered</text>
</a>
</g>
</g>
<!-- Node10&#45;&gt;Node11 -->
<g id="edge10" class="edge">
<title>Node10&#45;&gt;Node11</title>
<path fill="none" stroke="#63b8ff" d="M356,-162.55C377,-167.97 403.83,-174.89 427.92,-181.11"/>
<polygon fill="#63b8ff" stroke="#63b8ff" points="427.14,-184.52 437.7,-183.63 428.89,-177.74 427.14,-184.52"/>
</g>
<!-- Node12 -->
<g id="node12" class="node">
<title>Node12</title>
<g id="a_node12"><a xlink:href="classPedal.html#ae82e0ae8a1a0c6918d43fb27bf8d9d0d" target="_top" xlink:title="Maps the pedal ADC to a torque value. If no braking requested, maps throttle normally....">
<polygon fill="white" stroke="#666666" points="566,-163.5 415,-163.5 415,-144.5 566,-144.5 566,-163.5"/>
<text text-anchor="middle" x="490.5" y="-151.5" font-family="Helvetica,sans-Serif" font-size="10.00">Pedal::pedalTorqueMapping</text>
</a>
</g>
</g>
<!-- Node10&#45;&gt;Node12 -->
<g id="edge11" class="edge">
<title>Node10&#45;&gt;Node12</title>
<path fill="none" stroke="#63b8ff" d="M370.16,-153.3C381,-153.36 392.74,-153.43 404.46,-153.5"/>
<polygon fill="#63b8ff" stroke="#63b8ff" points="404.72,-157 414.74,-153.56 404.76,-150 404.72,-157"/>
</g>
<!-- Node12&#45;&gt;Node8 -->
<g id="edge13" class="edge">
<title>Node12&#45;&gt;Node8</title>
<path fill="none" stroke="#63b8ff" d="M537.89,-163.6C547.36,-166.18 557.13,-169.3 566,-173 590.78,-183.33 616.84,-199.66 634.51,-211.65"/>
<polygon fill="#63b8ff" stroke="#63b8ff" points="632.71,-214.67 642.93,-217.48 636.7,-208.91 632.71,-214.67"/>
</g>
<!-- Node13 -->
<g id="node13" class="node">
<title>Node13</title>
<g id="a_node13"><a xlink:href="classLinearInterp.html#a3c1654f4a47bb4db5386e38a8bdd6bc1" target="_top" xlink:title="Performs linear interpolation for the given input value, using the table.">
<polygon fill="white" stroke="#666666" points="712,-175.5 602,-175.5 602,-156.5 712,-156.5 712,-175.5"/>
<text text-anchor="middle" x="657" y="-163.5" font-family="Helvetica,sans-Serif" font-size="10.00">LinearInterp::interp</text>
</a>
</g>
</g>
<!-- Node12&#45;&gt;Node13 -->
<g id="edge12" class="edge">
<title>Node12&#45;&gt;Node13</title>
<path fill="none" stroke="#63b8ff" d="M566.05,-159.44C574.63,-160.06 583.33,-160.7 591.76,-161.31"/>
<polygon fill="#63b8ff" stroke="#63b8ff" points="591.65,-164.82 601.88,-162.05 592.16,-157.83 591.65,-164.82"/>
</g>
<!-- Node14 -->
<g id="node14" class="node">
<title>Node14</title>
<g id="a_node14"><a xlink:href="classLinearInterp.html#ade361a63c34c53564a1bd9e8ae5b6c4b" target="_top" xlink:title="Returns the starting input value of the interpolation table.">
<polygon fill="white" stroke="#666666" points="709,-138.5 605,-138.5 605,-119.5 709,-119.5 709,-138.5"/>
<text text-anchor="middle" x="657" y="-126.5" font-family="Helvetica,sans-Serif" font-size="10.00">LinearInterp::start</text>
</a>
</g>
</g>
<!-- Node12&#45;&gt;Node14 -->
<g id="edge14" class="edge">
<title>Node12&#45;&gt;Node14</title>
<path fill="none" stroke="#63b8ff" d="M554.16,-144.48C567.55,-142.44 581.67,-140.3 594.99,-138.27"/>
<polygon fill="#63b8ff" stroke="#63b8ff" points="595.63,-141.71 604.99,-136.75 594.58,-134.79 595.63,-141.71"/>
</g>
<!-- Node16 -->
<g id="node16" class="node">
<title>Node16</title>
<g id="a_node16"><a xlink:href="classTelemetry.html#a9b8b2cf254f25b0133b5f3bafd1b80e1" target="_top" xlink:title="Internal helper to get and send the BMS telemetry frame.">
<polygon fill="white" stroke="#666666" points="376,-120.5 260,-120.5 260,-101.5 376,-101.5 376,-120.5"/>
<text text-anchor="middle" x="318" y="-108.5" font-family="Helvetica,sans-Serif" font-size="10.00">Telemetry::sendBms</text>
</a>
</g>
</g>
<!-- Node15&#45;&gt;Node16 -->
<g id="edge16" class="edge">
<title>Node15&#45;&gt;Node16</title>
<path fill="none" stroke="#63b8ff" d="M217.86,-111.6C228.42,-111.54 239.36,-111.47 249.94,-111.41"/>
<polygon fill="#63b8ff" stroke="#63b8ff" points="249.97,-114.91 259.95,-111.34 249.93,-107.91 249.97,-114.91"/>
</g>
<!-- Node17 -->
<g id="node17" class="node">
<title>Node17</title>
<g id="a_node17"><a xlink:href="structTelemetryFrameBms.html#a6b03b160b930c3a40a06e99f6e6cb175" target="_top" xlink:title="Converts the TelemetryFrameBms to a CAN frame.">
<polygon fill="white" stroke="#666666" points="552.5,-126 428.5,-126 428.5,-96 552.5,-96 552.5,-126"/>
<text text-anchor="start" x="436.5" y="-114" font-family="Helvetica,sans-Serif" font-size="10.00">TelemetryFrameBms::</text>
<text text-anchor="middle" x="490.5" y="-103" font-family="Helvetica,sans-Serif" font-size="10.00">toCanFrame</text>
</a>
</g>
</g>
<!-- Node16&#45;&gt;Node17 -->
<g id="edge17" class="edge">
<title>Node16&#45;&gt;Node17</title>
<path fill="none" stroke="#63b8ff" d="M376.25,-111C389.72,-111 404.23,-111 418.23,-111"/>
<polygon fill="#63b8ff" stroke="#63b8ff" points="418.31,-114.5 428.31,-111 418.31,-107.5 418.31,-114.5"/>
</g>
<!-- Node19 -->
<g id="node19" class="node">
<title>Node19</title>
<g id="a_node19"><a xlink:href="classTelemetry.html#a24571b8d560d99079a460857669231a1" target="_top" xlink:title="Internal helper to get and send the motor telemetry frame.">
<polygon fill="white" stroke="#666666" points="379,-78.5 257,-78.5 257,-59.5 379,-59.5 379,-78.5"/>
<text text-anchor="middle" x="318" y="-66.5" font-family="Helvetica,sans-Serif" font-size="10.00">Telemetry::sendMotor</text>
</a>
</g>
</g>
<!-- Node18&#45;&gt;Node19 -->
<g id="edge19" class="edge">
<title>Node18&#45;&gt;Node19</title>
<path fill="none" stroke="#63b8ff" d="M221.21,-72.47C229.62,-72.17 238.22,-71.86 246.65,-71.55"/>
<polygon fill="#63b8ff" stroke="#63b8ff" points="246.95,-75.04 256.81,-71.18 246.69,-68.05 246.95,-75.04"/>
</g>
<!-- Node20 -->
<g id="node20" class="node">
<title>Node20</title>
<g id="a_node20"><a xlink:href="structTelemetryFrameMotor.html#a34bcb5a8f27caa3a1098c35c051236aa" target="_top" xlink:title="Converts the TelemetryFrameMotor to a CAN frame.">
<polygon fill="white" stroke="#666666" points="553,-78 428,-78 428,-48 553,-48 553,-78"/>
<text text-anchor="start" x="436" y="-66" font-family="Helvetica,sans-Serif" font-size="10.00">TelemetryFrameMotor</text>
<text text-anchor="middle" x="490.5" y="-55" font-family="Helvetica,sans-Serif" font-size="10.00">::toCanFrame</text>
</a>
</g>
</g>
<!-- Node19&#45;&gt;Node20 -->
<g id="edge20" class="edge">
<title>Node19&#45;&gt;Node20</title>
<path fill="none" stroke="#63b8ff" d="M379.11,-66.88C391.59,-66.45 404.87,-65.98 417.72,-65.53"/>
<polygon fill="#63b8ff" stroke="#63b8ff" points="418.04,-69.02 427.91,-65.17 417.8,-62.02 418.04,-69.02"/>
</g>
<!-- Node22 -->
<g id="node22" class="node">
<title>Node22</title>
<g id="a_node22"><a xlink:href="classTelemetry.html#a8fea6e56820f19a233237434f32aa511" target="_top" xlink:title="Internal helper to get and send the Pedal telemetry frame.">
<polygon fill="white" stroke="#666666" points="378.5,-30.5 257.5,-30.5 257.5,-11.5 378.5,-11.5 378.5,-30.5"/>
<text text-anchor="middle" x="318" y="-18.5" font-family="Helvetica,sans-Serif" font-size="10.00">Telemetry::sendPedal</text>
</a>
</g>
</g>
<!-- Node21&#45;&gt;Node22 -->
<g id="edge22" class="edge">
<title>Node21&#45;&gt;Node22</title>
<path fill="none" stroke="#63b8ff" d="M220.73,-30.89C229.45,-29.99 238.38,-29.08 247.11,-28.18"/>
<polygon fill="#63b8ff" stroke="#63b8ff" points="247.66,-31.64 257.25,-27.14 246.94,-24.68 247.66,-31.64"/>
</g>
<!-- Node23 -->
<g id="node23" class="node">
<title>Node23</title>
<g id="a_node23"><a xlink:href="structTelemetryFramePedal.html#af36459761c019b01b84e3844f8c38f49" target="_top" xlink:title="Converts the TelemetryFramePedal to a CAN frame.">
<polygon fill="white" stroke="#666666" points="552,-30 429,-30 429,0 552,0 552,-30"/>
<text text-anchor="start" x="437" y="-18" font-family="Helvetica,sans-Serif" font-size="10.00">TelemetryFramePedal</text>
<text text-anchor="middle" x="490.5" y="-7" font-family="Helvetica,sans-Serif" font-size="10.00">::toCanFrame</text>
</a>
</g>
</g>
<!-- Node22&#45;&gt;Node23 -->
<g id="edge23" class="edge">
<title>Node22&#45;&gt;Node23</title>
<path fill="none" stroke="#63b8ff" d="M378.63,-18.9C391.57,-18.45 405.36,-17.96 418.68,-17.49"/>
<polygon fill="#63b8ff" stroke="#63b8ff" points="418.88,-20.99 428.75,-17.14 418.63,-13.99 418.88,-20.99"/>
</g>
</g>
</svg>
        <g id="navigator" transform="translate(0 0)" fill="#404254">
                <rect fill="#f2f5e9" fill-opacity="0.5" stroke="#606060" stroke-width=".5" x="0" y="0" width="60" height="60"/>
                <use id="zoomplus" xlink:href="#zoomPlus" x="17" y="9" onmousedown="handleZoom(evt,'in')"/>
                <use id="zoomminus" xlink:href="#zoomMin" x="42" y="9" onmousedown="handleZoom(evt,'out')"/>
                <use id="reset" xlink:href="#resetDef" x="30" y="36" onmousedown="handleReset()"/>
                <g id="arrowUp" xlink:href="#dirArrow" transform="translate(30 24)" onmousedown="handlePan(0,-1)">
                  <use xlink:href="#rim" fill="#404040">
                        <set attributeName="fill" to="#808080" begin="arrowUp.mouseover" end="arrowUp.mouseout"/>
                  </use>
                  <path fill="none" stroke="white" stroke-width="1.5" d="M0,-3.0v7 M-2.5,-0.5L0,-3.0L2.5,-0.5"/>
                </g>
                <g id="arrowRight" xlink:href="#dirArrow" transform="rotate(90) translate(36 -43)" onmousedown="handlePan(1,0)">
                  <use xlink:href="#rim" fill="#404040">
                        <set attributeName="fill" to="#808080" begin="arrowRight.mouseover" end="arrowRight.mouseout"/>
                  </use>
                  <path fill="none" stroke="white" stroke-width="1.5" d="M0,-3.0v7 M-2.5,-0.5L0,-3.0L2.5,-0.5"/>
                </g>
                <g id="arrowDown" xlink:href="#dirArrow" transform="rotate(180) translate(-30 -48)" onmousedown="handlePan(0,1)">
                  <use xlink:href="#rim" fill="#404040">
                        <set attributeName="fill" to="#808080" begin="arrowDown.mouseover" end="arrowDown.mouseout"/>
                  </use>
                  <path fill="none" stroke="white" stroke-width="1.5" d="M0,-3.0v7 M-2.5,-0.5L0,-3.0L2.5,-0.5"/>
                </g>
                <g id="arrowLeft" xlink:href="#dirArrow" transform="rotate(270) translate(-36 17)" onmousedown="handlePan(-1,0)">
                  <use xlink:href="#rim" fill="#404040">
                        <set attributeName="fill" to="#808080" begin="arrowLeft.mouseover" end="arrowLeft.mouseout"/>
                  </use>
                  <path fill="none" stroke="white" stroke-width="1.5" d="M0,-3.0v7 M-2.5,-0.5L0,-3.0L2.5,-0.5"/>
                </g>
        </g>
        <svg viewBox="0 0 15 15" width="100%" height="30px" preserveAspectRatio="xMaxYMin meet">
         <g id="arrow_out" transform="scale(0.3 0.3)">
          <a xlink:href="main_8cpp_a4fc01d736fe50cf5b977f755b675f11d_cgraph_org.svg" target="_base">
           <rect id="button" ry="5" rx="5" y="6" x="6" height="38" width="38"
                fill="#f2f5e9" fill-opacity="0.5" stroke="#606060" stroke-width="1.0"/>
           <path id="arrow"
             d="M 11.500037,31.436501 C 11.940474,20.09759 22.043105,11.32322 32.158766,21.979434 L 37.068811,17.246167 C 37.068811,17.246167 37.088388,32 37.088388,32 L 22.160133,31.978069 C 22.160133,31.978069 26.997745,27.140456 26.997745,27.140456 C 18.528582,18.264221 13.291696,25.230495 11.500037,31.436501 z"
             style="fill:#404040;"/>
          </a>
         </g>
        </svg>
</svg>
