<?xml version="1.0" encoding="UTF-8" standalone="no"?>
<!DOCTYPE svg PUBLIC "-//W3C//DTD SVG 1.1//EN"
 "http://www.w3.org/Graphics/SVG/1.1/DTD/svg11.dtd">
<!-- Generated by graphviz version 2.43.0 (0)
 -->
<!-- Title: Debug_Serial::println Pages: 1 -->
<svg width="587pt" height="64pt"
 viewBox="0.00 0.00 587.00 64.00" xmlns="http://www.w3.org/2000/svg" xmlns:xlink="http://www.w3.org/1999/xlink">
<g id="graph0" class="graph" transform="scale(1 1) rotate(0) translate(4 60)">
<title>Debug_Serial::println</title>
<!-- Node1 -->
<g id="node1" class="node">
<title>Node1</title>
<g id="a_node1"><a xlink:title="Prints a string AND a newline to the serial console.">
<polygon fill="#999999" stroke="#666666" points="579,-37 460,-37 460,-18 579,-18 579,-37"/>
<text text-anchor="middle" x="519.5" y="-25" font-family="Helvetica,sans-Serif" font-size="10.00">Debug_Serial::println</text>
</a>
</g>
</g>
<!-- Node2 -->
<g id="node2" class="node">
<title>Node2</title>
<g id="a_node2"><a xlink:href="Debug_8hpp.html#a8e8d6e3de15309922f25c12f4d7cf727" target="_top" xlink:title="Prints a line to the serial console for general debug.">
<polygon fill="white" stroke="#666666" points="424,-37 322,-37 322,-18 424,-18 424,-37"/>
<text text-anchor="middle" x="373" y="-25" font-family="Helvetica,sans-Serif" font-size="10.00">DBGLN_GENERAL</text>
</a>
</g>
</g>
<!-- Node1&#45;&gt;Node2 -->
<g id="edge1" class="edge">
<title>Node1&#45;&gt;Node2</title>
<path fill="none" stroke="#63b8ff" d="M449.47,-27.5C441.01,-27.5 432.5,-27.5 424.39,-27.5"/>
<polygon fill="#63b8ff" stroke="#63b8ff" points="449.73,-31 459.73,-27.5 449.73,-24 449.73,-31"/>
</g>
<!-- Node3 -->
<g id="node3" class="node">
<title>Node3</title>
<g id="a_node3"><a xlink:href="classBMS.html#a7de82f50c43e50529739213e98b9b634" target="_top" xlink:title="Attempts to start HV. First check BMS is in standby(3) state, then send the HV start command....">
<polygon fill="white" stroke="#666666" points="286,-56 200,-56 200,-37 286,-37 286,-56"/>
<text text-anchor="middle" x="243" y="-44" font-family="Helvetica,sans-Serif" font-size="10.00">BMS::checkHv</text>
</a>
</g>
</g>
<!-- Node2&#45;&gt;Node3 -->
<g id="edge2" class="edge">
<title>Node2&#45;&gt;Node3</title>
<path fill="none" stroke="#63b8ff" d="M311.73,-36.45C303.11,-37.73 294.39,-39.02 286.22,-40.23"/>
<polygon fill="#63b8ff" stroke="#63b8ff" points="312.4,-39.89 321.78,-34.95 311.37,-32.96 312.4,-39.89"/>
</g>
<!-- Node6 -->
<g id="node6" class="node">
<title>Node6</title>
<g id="a_node6"><a xlink:href="main_8cpp.html#a4fc01d736fe50cf5b977f755b675f11d" target="_top" xlink:title="Setup function for initializing the VCU system. Initializes MCP2515s, IO pins, as well as own modules...">
<polygon fill="white" stroke="#666666" points="265,-19 221,-19 221,0 265,0 265,-19"/>
<text text-anchor="middle" x="243" y="-7" font-family="Helvetica,sans-Serif" font-size="10.00">setup</text>
</a>
</g>
</g>
<!-- Node2&#45;&gt;Node6 -->
<g id="edge5" class="edge">
<title>Node2&#45;&gt;Node6</title>
<path fill="none" stroke="#63b8ff" d="M311.47,-18.99C294.79,-16.64 277.79,-14.25 265.03,-12.46"/>
<polygon fill="#63b8ff" stroke="#63b8ff" points="311.39,-22.51 321.78,-20.44 312.36,-15.58 311.39,-22.51"/>
</g>
<!-- Node4 -->
<g id="node4" class="node">
<title>Node4</title>
<g id="a_node4"><a xlink:href="main_8cpp.html#a55b57abe9bcb30f6af0fb927f7d576a4" target="_top" xlink:title=" ">
<polygon fill="white" stroke="#666666" points="164,-56 74,-56 74,-37 164,-37 164,-56"/>
<text text-anchor="middle" x="119" y="-44" font-family="Helvetica,sans-Serif" font-size="10.00">scheduler_bms</text>
</a>
</g>
</g>
<!-- Node3&#45;&gt;Node4 -->
<g id="edge3" class="edge">
<title>Node3&#45;&gt;Node4</title>
<path fill="none" stroke="#63b8ff" d="M189.57,-46.5C181.16,-46.5 172.52,-46.5 164.33,-46.5"/>
<polygon fill="#63b8ff" stroke="#63b8ff" points="189.67,-50 199.67,-46.5 189.67,-43 189.67,-50"/>
</g>
<!-- Node5 -->
<g id="node5" class="node">
<title>Node5</title>
<g id="a_node5"><a xlink:href="main_8cpp.html#afe461d27b9c48d5921c00d521181f12f" target="_top" xlink:title="Main loop function for the VCU system. Handles car state transitions, pipes dataflow between modules.">
<polygon fill="white" stroke="#666666" points="38,-56 0,-56 0,-37 38,-37 38,-56"/>
<text text-anchor="middle" x="19" y="-44" font-family="Helvetica,sans-Serif" font-size="10.00">loop</text>
</a>
</g>
</g>
<!-- Node4&#45;&gt;Node5 -->
<g id="edge4" class="edge">
<title>Node4&#45;&gt;Node5</title>
<path fill="none" stroke="#63b8ff" d="M63.8,-46.5C54.56,-46.5 45.56,-46.5 38.15,-46.5"/>
<polygon fill="#63b8ff" stroke="#63b8ff" points="63.87,-50 73.87,-46.5 63.87,-43 63.87,-50"/>
</g>
</g>
</svg>
