<?xml version="1.0" encoding="UTF-8" standalone="no"?>
<!DOCTYPE svg PUBLIC "-//W3C//DTD SVG 1.1//EN"
 "http://www.w3.org/Graphics/SVG/1.1/DTD/svg11.dtd">
<!-- Generated by graphviz version 2.43.0 (0)
 -->
<!-- Title: vehicle_control_unit/lib/Pedal/Pedal.cpp Pages: 1 -->
<svg width="582pt" height="258pt"
 viewBox="0.00 0.00 581.59 258.00" xmlns="http://www.w3.org/2000/svg" xmlns:xlink="http://www.w3.org/1999/xlink">
<g id="graph0" class="graph" transform="scale(1 1) rotate(0) translate(4 254)">
<title>vehicle_control_unit/lib/Pedal/Pedal.cpp</title>
<!-- Node1 -->
<g id="node1" class="node">
<title>Node1</title>
<g id="a_node1"><a xlink:title="Implementation of the Pedal class for handling throttle pedal inputs.">
<polygon fill="#999999" stroke="#666666" points="462.19,-250 347.19,-250 347.19,-220 462.19,-220 462.19,-250"/>
<text text-anchor="start" x="355.19" y="-238" font-family="Helvetica,sans-Serif" font-size="10.00">vehicle_control_unit</text>
<text text-anchor="middle" x="404.69" y="-227" font-family="Helvetica,sans-Serif" font-size="10.00">/lib/Pedal/Pedal.cpp</text>
</a>
</g>
</g>
<!-- Node2 -->
<g id="node2" class="node">
<title>Node2</title>
<g id="a_node2"><a xlink:href="Pedal_8hpp.html" target="_top" xlink:title="Declaration of the Pedal class for handling throttle and brake pedal inputs.">
<polygon fill="white" stroke="#666666" points="331.19,-184 266.19,-184 266.19,-165 331.19,-165 331.19,-184"/>
<text text-anchor="middle" x="298.69" y="-172" font-family="Helvetica,sans-Serif" font-size="10.00">Pedal.hpp</text>
</a>
</g>
</g>
<!-- Node1&#45;&gt;Node2 -->
<g id="edge1" class="edge">
<title>Node1&#45;&gt;Node2</title>
<path fill="none" stroke="#63b8ff" d="M379.3,-219.99C362.41,-210.66 340.32,-198.47 323.53,-189.21"/>
<polygon fill="#63b8ff" stroke="#63b8ff" points="324.79,-185.91 314.35,-184.14 321.41,-192.04 324.79,-185.91"/>
</g>
<!-- Node3 -->
<g id="node3" class="node">
<title>Node3</title>
<g id="a_node3"><a xlink:title=" ">
<polygon fill="#e0e0e0" stroke="#999999" points="373.19,-19 320.19,-19 320.19,0 373.19,0 373.19,-19"/>
<text text-anchor="middle" x="346.69" y="-7" font-family="Helvetica,sans-Serif" font-size="10.00">stdint.h</text>
</a>
</g>
</g>
<!-- Node1&#45;&gt;Node3 -->
<g id="edge21" class="edge">
<title>Node1&#45;&gt;Node3</title>
<path fill="none" stroke="#63b8ff" d="M462.19,-233.17C499.61,-229.26 545.92,-217.34 570.69,-184 575.73,-177.22 572.22,-173.3 570.69,-165 561.2,-113.54 567.93,-89.62 528.69,-55 488.28,-19.34 423.93,-11.2 383.57,-9.89"/>
<polygon fill="#63b8ff" stroke="#63b8ff" points="383.42,-6.39 373.36,-9.69 383.29,-13.39 383.42,-6.39"/>
</g>
<!-- Node4 -->
<g id="node4" class="node">
<title>Node4</title>
<g id="a_node4"><a xlink:href="CarState_8hpp.html" target="_top" xlink:title="Definition of the CarState structure representing the state of the car.">
<polygon fill="white" stroke="#666666" points="182.69,-129 102.69,-129 102.69,-110 182.69,-110 182.69,-129"/>
<text text-anchor="middle" x="142.69" y="-117" font-family="Helvetica,sans-Serif" font-size="10.00">CarState.hpp</text>
</a>
</g>
</g>
<!-- Node1&#45;&gt;Node4 -->
<g id="edge20" class="edge">
<title>Node1&#45;&gt;Node4</title>
<path fill="none" stroke="#63b8ff" d="M355.85,-219.96C326.59,-210.95 288.93,-198.28 256.69,-184 223.7,-169.39 187.64,-148.38 165.1,-134.59"/>
<polygon fill="#63b8ff" stroke="#63b8ff" points="166.66,-131.44 156.31,-129.16 162.98,-137.4 166.66,-131.44"/>
</g>
<!-- Node7 -->
<g id="node7" class="node">
<title>Node7</title>
<g id="a_node7"><a xlink:href="Interp_8hpp.html" target="_top" xlink:title="Declaration and definition of the LinearInterp class template for linear interpolation.">
<polygon fill="white" stroke="#666666" points="478.69,-74 412.69,-74 412.69,-55 478.69,-55 478.69,-74"/>
<text text-anchor="middle" x="445.69" y="-62" font-family="Helvetica,sans-Serif" font-size="10.00">Interp.hpp</text>
</a>
</g>
</g>
<!-- Node1&#45;&gt;Node7 -->
<g id="edge24" class="edge">
<title>Node1&#45;&gt;Node7</title>
<path fill="none" stroke="#63b8ff" d="M408.12,-219.92C415.48,-189.65 432.83,-118.35 441.12,-84.27"/>
<polygon fill="#63b8ff" stroke="#63b8ff" points="444.6,-84.8 443.56,-74.25 437.8,-83.14 444.6,-84.8"/>
</g>
<!-- Node8 -->
<g id="node8" class="node">
<title>Node8</title>
<g id="a_node8"><a xlink:href="Curves_8hpp.html" target="_top" xlink:title="Definition of throttle and brake mapping tables.">
<polygon fill="white" stroke="#666666" points="524.19,-129 453.19,-129 453.19,-110 524.19,-110 524.19,-129"/>
<text text-anchor="middle" x="488.69" y="-117" font-family="Helvetica,sans-Serif" font-size="10.00">Curves.hpp</text>
</a>
</g>
</g>
<!-- Node1&#45;&gt;Node8 -->
<g id="edge25" class="edge">
<title>Node1&#45;&gt;Node8</title>
<path fill="none" stroke="#63b8ff" d="M415.33,-219.63C430.85,-198.65 459.65,-159.75 476.17,-137.42"/>
<polygon fill="#63b8ff" stroke="#63b8ff" points="479.09,-139.35 482.23,-129.23 473.47,-135.19 479.09,-139.35"/>
</g>
<!-- Node9 -->
<g id="node9" class="node">
<title>Node9</title>
<g id="a_node9"><a xlink:href="SignalProcessing_8hpp.html" target="_top" xlink:title="Declaration of signal processing functions.">
<polygon fill="white" stroke="#666666" points="358.69,-129 238.69,-129 238.69,-110 358.69,-110 358.69,-129"/>
<text text-anchor="middle" x="298.69" y="-117" font-family="Helvetica,sans-Serif" font-size="10.00">SignalProcessing.hpp</text>
</a>
</g>
</g>
<!-- Node1&#45;&gt;Node9 -->
<g id="edge19" class="edge">
<title>Node1&#45;&gt;Node9</title>
<path fill="none" stroke="#63b8ff" d="M391.27,-219.63C371.42,-198.37 334.37,-158.71 313.67,-136.54"/>
<polygon fill="#63b8ff" stroke="#63b8ff" points="316.23,-134.15 306.84,-129.23 311.11,-138.93 316.23,-134.15"/>
</g>
<!-- Node12 -->
<g id="node12" class="node">
<title>Node12</title>
<g id="a_node12"><a xlink:href="Queue_8hpp.html" target="_top" xlink:title="Declaration of a simple RingBuffer (circular buffer) template class.">
<polygon fill="white" stroke="#666666" points="562.19,-184 493.19,-184 493.19,-165 562.19,-165 562.19,-184"/>
<text text-anchor="middle" x="527.69" y="-172" font-family="Helvetica,sans-Serif" font-size="10.00">Queue.hpp</text>
</a>
</g>
</g>
<!-- Node1&#45;&gt;Node12 -->
<g id="edge22" class="edge">
<title>Node1&#45;&gt;Node12</title>
<path fill="none" stroke="#63b8ff" d="M434.15,-219.99C454.31,-210.4 480.83,-197.79 500.49,-188.44"/>
<polygon fill="#63b8ff" stroke="#63b8ff" points="502,-191.6 509.53,-184.14 498.99,-185.27 502,-191.6"/>
</g>
<!-- Node13 -->
<g id="node13" class="node">
<title>Node13</title>
<g id="a_node13"><a xlink:href="Debug_8hpp.html" target="_top" xlink:title="Debugging macros and functions for serial and CAN output.">
<polygon fill="white" stroke="#666666" points="83.19,-184 14.19,-184 14.19,-165 83.19,-165 83.19,-184"/>
<text text-anchor="middle" x="48.69" y="-172" font-family="Helvetica,sans-Serif" font-size="10.00">Debug.hpp</text>
</a>
</g>
</g>
<!-- Node1&#45;&gt;Node13 -->
<g id="edge26" class="edge">
<title>Node1&#45;&gt;Node13</title>
<path fill="none" stroke="#63b8ff" d="M347.1,-224.54C276.45,-212.93 158.16,-193.49 93.77,-182.91"/>
<polygon fill="#63b8ff" stroke="#63b8ff" points="93.97,-179.39 83.54,-181.23 92.84,-186.3 93.97,-179.39"/>
</g>
<!-- Node2&#45;&gt;Node3 -->
<g id="edge2" class="edge">
<title>Node2&#45;&gt;Node3</title>
<path fill="none" stroke="#63b8ff" d="M274.23,-164.86C258.42,-157.85 239.1,-146.27 229.69,-129 225.65,-121.59 227.55,-118.17 229.69,-110 236.81,-82.86 240.5,-74.48 260.69,-55 275.15,-41.05 294.86,-30.42 311.76,-23.06"/>
<polygon fill="#63b8ff" stroke="#63b8ff" points="313.43,-26.16 321.33,-19.1 310.75,-19.69 313.43,-26.16"/>
</g>
<!-- Node2&#45;&gt;Node4 -->
<g id="edge3" class="edge">
<title>Node2&#45;&gt;Node4</title>
<path fill="none" stroke="#63b8ff" d="M273.63,-164.98C247.66,-156.16 206.88,-142.31 177.73,-132.41"/>
<polygon fill="#63b8ff" stroke="#63b8ff" points="178.55,-128.99 167.95,-129.08 176.29,-135.61 178.55,-128.99"/>
</g>
<!-- Node2&#45;&gt;Node7 -->
<g id="edge9" class="edge">
<title>Node2&#45;&gt;Node7</title>
<path fill="none" stroke="#63b8ff" d="M313,-164.91C327.18,-156.26 349.35,-142.32 367.69,-129 389.15,-113.42 412.6,-93.97 428.13,-80.74"/>
<polygon fill="#63b8ff" stroke="#63b8ff" points="430.57,-83.25 435.87,-74.08 426.01,-77.94 430.57,-83.25"/>
</g>
<!-- Node2&#45;&gt;Node8 -->
<g id="edge11" class="edge">
<title>Node2&#45;&gt;Node8</title>
<path fill="none" stroke="#63b8ff" d="M329.22,-164.98C361.39,-156.01 412.25,-141.82 447.86,-131.89"/>
<polygon fill="#63b8ff" stroke="#63b8ff" points="449.23,-135.14 457.93,-129.08 447.35,-128.4 449.23,-135.14"/>
</g>
<!-- Node2&#45;&gt;Node9 -->
<g id="edge14" class="edge">
<title>Node2&#45;&gt;Node9</title>
<path fill="none" stroke="#63b8ff" d="M298.69,-164.75C298.69,-157.8 298.69,-147.85 298.69,-139.13"/>
<polygon fill="#63b8ff" stroke="#63b8ff" points="302.19,-139.09 298.69,-129.09 295.19,-139.09 302.19,-139.09"/>
</g>
<!-- Node11 -->
<g id="node11" class="node">
<title>Node11</title>
<g id="a_node11"><a xlink:title=" ">
<polygon fill="#e0e0e0" stroke="#999999" points="84.19,-129 13.19,-129 13.19,-110 84.19,-110 84.19,-129"/>
<text text-anchor="middle" x="48.69" y="-117" font-family="Helvetica,sans-Serif" font-size="10.00">mcp2515.h</text>
</a>
</g>
</g>
<!-- Node2&#45;&gt;Node11 -->
<g id="edge18" class="edge">
<title>Node2&#45;&gt;Node11</title>
<path fill="none" stroke="#63b8ff" d="M266.01,-166.57C222.05,-157.25 143.68,-140.64 94.04,-130.11"/>
<polygon fill="#63b8ff" stroke="#63b8ff" points="94.72,-126.68 84.21,-128.03 93.26,-133.53 94.72,-126.68"/>
</g>
<!-- Node4&#45;&gt;Node3 -->
<g id="edge8" class="edge">
<title>Node4&#45;&gt;Node3</title>
<path fill="none" stroke="#63b8ff" d="M147.81,-109.7C156.24,-95.98 174.38,-69.53 196.69,-55 231.35,-32.43 277.86,-20.96 309.85,-15.38"/>
<polygon fill="#63b8ff" stroke="#63b8ff" points="310.8,-18.77 320.1,-13.7 309.67,-11.86 310.8,-18.77"/>
</g>
<!-- Node5 -->
<g id="node5" class="node">
<title>Node5</title>
<g id="a_node5"><a xlink:href="Enums_8hpp.html" target="_top" xlink:title="Enumeration definitions for the VCU.">
<polygon fill="white" stroke="#666666" points="144.19,-74 73.19,-74 73.19,-55 144.19,-55 144.19,-74"/>
<text text-anchor="middle" x="108.69" y="-62" font-family="Helvetica,sans-Serif" font-size="10.00">Enums.hpp</text>
</a>
</g>
</g>
<!-- Node4&#45;&gt;Node5 -->
<g id="edge4" class="edge">
<title>Node4&#45;&gt;Node5</title>
<path fill="none" stroke="#63b8ff" d="M137.08,-109.75C132.37,-102.42 125.52,-91.73 119.72,-82.7"/>
<polygon fill="#63b8ff" stroke="#63b8ff" points="122.55,-80.62 114.2,-74.09 116.65,-84.4 122.55,-80.62"/>
</g>
<!-- Node6 -->
<g id="node6" class="node">
<title>Node6</title>
<g id="a_node6"><a xlink:title=" ">
<polygon fill="#e0e0e0" stroke="#999999" points="98.19,-19 55.19,-19 55.19,0 98.19,0 98.19,-19"/>
<text text-anchor="middle" x="76.69" y="-7" font-family="Helvetica,sans-Serif" font-size="10.00">can.h</text>
</a>
</g>
</g>
<!-- Node4&#45;&gt;Node6 -->
<g id="edge7" class="edge">
<title>Node4&#45;&gt;Node6</title>
<path fill="none" stroke="#63b8ff" d="M112.42,-109.92C94.85,-103.21 74.18,-91.94 63.69,-74 55.55,-60.06 60.61,-41.81 66.64,-28.45"/>
<polygon fill="#63b8ff" stroke="#63b8ff" points="69.85,-29.85 71.23,-19.34 63.6,-26.7 69.85,-29.85"/>
</g>
<!-- Node5&#45;&gt;Node3 -->
<g id="edge5" class="edge">
<title>Node5&#45;&gt;Node3</title>
<path fill="none" stroke="#63b8ff" d="M144.32,-55.57C188.96,-45.63 265.03,-28.68 310.11,-18.65"/>
<polygon fill="#63b8ff" stroke="#63b8ff" points="311.05,-22.02 320.05,-16.43 309.53,-15.19 311.05,-22.02"/>
</g>
<!-- Node5&#45;&gt;Node6 -->
<g id="edge6" class="edge">
<title>Node5&#45;&gt;Node6</title>
<path fill="none" stroke="#63b8ff" d="M103.41,-54.75C98.98,-47.42 92.53,-36.73 87.07,-27.7"/>
<polygon fill="#63b8ff" stroke="#63b8ff" points="90.04,-25.84 81.88,-19.09 84.05,-29.46 90.04,-25.84"/>
</g>
<!-- Node7&#45;&gt;Node3 -->
<g id="edge10" class="edge">
<title>Node7&#45;&gt;Node3</title>
<path fill="none" stroke="#63b8ff" d="M429.79,-54.98C414.15,-46.61 390.04,-33.7 371.81,-23.95"/>
<polygon fill="#63b8ff" stroke="#63b8ff" points="373.35,-20.8 362.89,-19.17 370.05,-26.98 373.35,-20.8"/>
</g>
<!-- Node8&#45;&gt;Node3 -->
<g id="edge13" class="edge">
<title>Node8&#45;&gt;Node3</title>
<path fill="none" stroke="#63b8ff" d="M491.49,-109.68C495.13,-96.4 499.68,-71.09 487.69,-55 463.82,-22.96 416.85,-13.43 383.69,-10.88"/>
<polygon fill="#63b8ff" stroke="#63b8ff" points="383.65,-7.38 373.46,-10.28 383.24,-14.36 383.65,-7.38"/>
</g>
<!-- Node8&#45;&gt;Node7 -->
<g id="edge12" class="edge">
<title>Node8&#45;&gt;Node7</title>
<path fill="none" stroke="#63b8ff" d="M481.59,-109.75C475.52,-102.26 466.61,-91.28 459.18,-82.13"/>
<polygon fill="#63b8ff" stroke="#63b8ff" points="461.68,-79.65 452.66,-74.09 456.24,-84.06 461.68,-79.65"/>
</g>
<!-- Node9&#45;&gt;Node3 -->
<g id="edge15" class="edge">
<title>Node9&#45;&gt;Node3</title>
<path fill="none" stroke="#63b8ff" d="M288.74,-109.66C275.96,-97.19 256.67,-73.85 267.69,-55 276.97,-39.13 294.22,-28.48 310.23,-21.59"/>
<polygon fill="#63b8ff" stroke="#63b8ff" points="311.94,-24.68 319.97,-17.77 309.38,-18.16 311.94,-24.68"/>
</g>
<!-- Node10 -->
<g id="node10" class="node">
<title>Node10</title>
<g id="a_node10"><a xlink:href="SignalProcessing_8tpp.html" target="_top" xlink:title="Definition of Signal Processing functions.">
<polygon fill="white" stroke="#666666" points="394.69,-74 276.69,-74 276.69,-55 394.69,-55 394.69,-74"/>
<text text-anchor="middle" x="335.69" y="-62" font-family="Helvetica,sans-Serif" font-size="10.00">SignalProcessing.tpp</text>
</a>
</g>
</g>
<!-- Node9&#45;&gt;Node10 -->
<g id="edge16" class="edge">
<title>Node9&#45;&gt;Node10</title>
<path fill="none" stroke="#63b8ff" d="M299.63,-109.75C303.29,-102.18 310.69,-91.05 317.99,-81.84"/>
<polygon fill="#63b8ff" stroke="#63b8ff" points="320.77,-83.98 324.56,-74.09 315.43,-79.46 320.77,-83.98"/>
</g>
<!-- Node10&#45;&gt;Node9 -->
<g id="edge17" class="edge">
<title>Node10&#45;&gt;Node9</title>
<path fill="none" stroke="#63b8ff" d="M334.83,-74.09C331.23,-81.6 323.85,-92.72 316.55,-101.96"/>
<polygon fill="#63b8ff" stroke="#63b8ff" points="313.75,-99.85 309.97,-109.75 319.09,-104.37 313.75,-99.85"/>
</g>
<!-- Node12&#45;&gt;Node3 -->
<g id="edge23" class="edge">
<title>Node12&#45;&gt;Node3</title>
<path fill="none" stroke="#63b8ff" d="M528.93,-164.99C530.17,-156.05 531.99,-141.57 532.69,-129 534.65,-94.05 532.61,-77.38 505.69,-55 470.94,-26.1 418.67,-15.92 383.65,-12.36"/>
<polygon fill="#63b8ff" stroke="#63b8ff" points="383.64,-8.85 373.38,-11.46 383.03,-15.82 383.64,-8.85"/>
</g>
<!-- Node13&#45;&gt;Node5 -->
<g id="edge27" class="edge">
<title>Node13&#45;&gt;Node5</title>
<path fill="none" stroke="#63b8ff" d="M35.01,-164.99C17.35,-152.92 -9.59,-130.05 3.69,-110 16.96,-89.96 41.26,-78.92 63.14,-72.85"/>
<polygon fill="#63b8ff" stroke="#63b8ff" points="64.12,-76.21 72.98,-70.4 62.43,-69.42 64.12,-76.21"/>
</g>
<!-- Node13&#45;&gt;Node11 -->
<g id="edge28" class="edge">
<title>Node13&#45;&gt;Node11</title>
<path fill="none" stroke="#63b8ff" d="M48.69,-164.75C48.69,-157.8 48.69,-147.85 48.69,-139.13"/>
<polygon fill="#63b8ff" stroke="#63b8ff" points="52.19,-139.09 48.69,-129.09 45.19,-139.09 52.19,-139.09"/>
</g>
</g>
</svg>
