<?xml version="1.0" encoding="UTF-8" standalone="no"?>
<!DOCTYPE svg PUBLIC "-//W3C//DTD SVG 1.1//EN"
 "http://www.w3.org/Graphics/SVG/1.1/DTD/svg11.dtd">
<!-- Generated by graphviz version 2.43.0 (0)
 -->
<!-- Title: vehicle_control_unit/lib/Scheduler/Scheduler.tpp Pages: 1 -->
<svg width="180pt" height="203pt"
 viewBox="0.00 0.00 179.50 203.00" xmlns="http://www.w3.org/2000/svg" xmlns:xlink="http://www.w3.org/1999/xlink">
<g id="graph0" class="graph" transform="scale(1 1) rotate(0) translate(4 199)">
<title>vehicle_control_unit/lib/Scheduler/Scheduler.tpp</title>
<!-- Node1 -->
<g id="node1" class="node">
<title>Node1</title>
<g id="a_node1"><a xlink:title="Implementation of the Scheduler class template.">
<polygon fill="#999999" stroke="#666666" points="171.5,-195 19.5,-195 19.5,-165 171.5,-165 171.5,-195"/>
<text text-anchor="start" x="27.5" y="-183" font-family="Helvetica,sans-Serif" font-size="10.00">vehicle_control_unit</text>
<text text-anchor="middle" x="95.5" y="-172" font-family="Helvetica,sans-Serif" font-size="10.00">/lib/Scheduler/Scheduler.tpp</text>
</a>
</g>
</g>
<!-- Node2 -->
<g id="node2" class="node">
<title>Node2</title>
<g id="a_node2"><a xlink:href="Enums_8hpp.html" target="_top" xlink:title="Enumeration definitions for the VCU.">
<polygon fill="white" stroke="#666666" points="95,-74 24,-74 24,-55 95,-55 95,-74"/>
<text text-anchor="middle" x="59.5" y="-62" font-family="Helvetica,sans-Serif" font-size="10.00">Enums.hpp</text>
</a>
</g>
</g>
<!-- Node1&#45;&gt;Node2 -->
<g id="edge1" class="edge">
<title>Node1&#45;&gt;Node2</title>
<path fill="none" stroke="#63b8ff" d="M73.94,-164.86C62.58,-156.05 49.73,-143.63 43.5,-129 37.18,-114.16 42.78,-96.27 49.02,-83.27"/>
<polygon fill="#63b8ff" stroke="#63b8ff" points="52.13,-84.88 53.74,-74.41 45.95,-81.59 52.13,-84.88"/>
</g>
<!-- Node5 -->
<g id="node5" class="node">
<title>Node5</title>
<g id="a_node5"><a xlink:href="Scheduler_8hpp.html" target="_top" xlink:title="Declaration of the Scheduler class template, for scheduling tasks on multiple MCP2515 instances.">
<polygon fill="white" stroke="#666666" points="138,-129 53,-129 53,-110 138,-110 138,-129"/>
<text text-anchor="middle" x="95.5" y="-117" font-family="Helvetica,sans-Serif" font-size="10.00">Scheduler.hpp</text>
</a>
</g>
</g>
<!-- Node1&#45;&gt;Node5 -->
<g id="edge4" class="edge">
<title>Node1&#45;&gt;Node5</title>
<path fill="none" stroke="#63b8ff" d="M89.62,-164.84C88.65,-157.21 88.49,-147.7 89.14,-139.45"/>
<polygon fill="#63b8ff" stroke="#63b8ff" points="92.64,-139.65 90.52,-129.27 85.71,-138.71 92.64,-139.65"/>
</g>
<!-- Node3 -->
<g id="node3" class="node">
<title>Node3</title>
<g id="a_node3"><a xlink:title=" ">
<polygon fill="#e0e0e0" stroke="#999999" points="53,-19 0,-19 0,0 53,0 53,-19"/>
<text text-anchor="middle" x="26.5" y="-7" font-family="Helvetica,sans-Serif" font-size="10.00">stdint.h</text>
</a>
</g>
</g>
<!-- Node2&#45;&gt;Node3 -->
<g id="edge2" class="edge">
<title>Node2&#45;&gt;Node3</title>
<path fill="none" stroke="#63b8ff" d="M54.05,-54.75C49.49,-47.42 42.83,-36.73 37.21,-27.7"/>
<polygon fill="#63b8ff" stroke="#63b8ff" points="40.1,-25.73 31.85,-19.09 34.16,-29.43 40.1,-25.73"/>
</g>
<!-- Node4 -->
<g id="node4" class="node">
<title>Node4</title>
<g id="a_node4"><a xlink:title=" ">
<polygon fill="#e0e0e0" stroke="#999999" points="114,-19 71,-19 71,0 114,0 114,-19"/>
<text text-anchor="middle" x="92.5" y="-7" font-family="Helvetica,sans-Serif" font-size="10.00">can.h</text>
</a>
</g>
</g>
<!-- Node2&#45;&gt;Node4 -->
<g id="edge3" class="edge">
<title>Node2&#45;&gt;Node4</title>
<path fill="none" stroke="#63b8ff" d="M64.95,-54.75C69.51,-47.42 76.17,-36.73 81.79,-27.7"/>
<polygon fill="#63b8ff" stroke="#63b8ff" points="84.84,-29.43 87.15,-19.09 78.9,-25.73 84.84,-29.43"/>
</g>
<!-- Node5&#45;&gt;Node1 -->
<g id="edge6" class="edge">
<title>Node5&#45;&gt;Node1</title>
<path fill="none" stroke="#63b8ff" d="M100.48,-129.27C101.92,-136.03 102.48,-145.72 102.16,-154.75"/>
<polygon fill="#63b8ff" stroke="#63b8ff" points="98.66,-154.6 101.38,-164.84 105.64,-155.14 98.66,-154.6"/>
</g>
<!-- Node5&#45;&gt;Node2 -->
<g id="edge5" class="edge">
<title>Node5&#45;&gt;Node2</title>
<path fill="none" stroke="#63b8ff" d="M89.56,-109.75C84.52,-102.34 77.16,-91.5 70.99,-82.41"/>
<polygon fill="#63b8ff" stroke="#63b8ff" points="73.85,-80.39 65.33,-74.09 68.06,-84.33 73.85,-80.39"/>
</g>
</g>
</svg>
